%TF.GenerationSoftware,KiCad,Pcbnew,10.0.1*%
%TF.CreationDate,2026-05-05T02:11:59+03:00*%
%TF.ProjectId,maze_solver_4wd,6d617a65-5f73-46f6-9c76-65725f347764,rev?*%
%TF.SameCoordinates,Original*%
%TF.FileFunction,Legend,Top*%
%TF.FilePolarity,Positive*%
%FSLAX46Y46*%
G04 Gerber Fmt 4.6, Leading zero omitted, Abs format (unit mm)*
G04 Created by KiCad (PCBNEW 10.0.1) date 2026-05-05 02:11:59*
%MOMM*%
%LPD*%
G01*
G04 APERTURE LIST*
%ADD10C,0.150000*%
%ADD11C,0.120000*%
G04 APERTURE END LIST*
D10*
X190666667Y-134804819D02*
X190666667Y-133804819D01*
X190666667Y-133804819D02*
X191000000Y-134519104D01*
X191000000Y-134519104D02*
X191333333Y-133804819D01*
X191333333Y-133804819D02*
X191333333Y-134804819D01*
X191809524Y-134804819D02*
X191809524Y-133804819D01*
X191809524Y-134281009D02*
X192380952Y-134281009D01*
X192380952Y-134804819D02*
X192380952Y-133804819D01*
X193285714Y-134138152D02*
X193285714Y-134804819D01*
X193047619Y-133757200D02*
X192809524Y-134471485D01*
X192809524Y-134471485D02*
X193428571Y-134471485D01*
X130666667Y-135304819D02*
X130666667Y-134304819D01*
X130666667Y-134304819D02*
X131000000Y-135019104D01*
X131000000Y-135019104D02*
X131333333Y-134304819D01*
X131333333Y-134304819D02*
X131333333Y-135304819D01*
X131809524Y-135304819D02*
X131809524Y-134304819D01*
X131809524Y-134781009D02*
X132380952Y-134781009D01*
X132380952Y-135304819D02*
X132380952Y-134304819D01*
X132761905Y-134304819D02*
X133380952Y-134304819D01*
X133380952Y-134304819D02*
X133047619Y-134685771D01*
X133047619Y-134685771D02*
X133190476Y-134685771D01*
X133190476Y-134685771D02*
X133285714Y-134733390D01*
X133285714Y-134733390D02*
X133333333Y-134781009D01*
X133333333Y-134781009D02*
X133380952Y-134876247D01*
X133380952Y-134876247D02*
X133380952Y-135114342D01*
X133380952Y-135114342D02*
X133333333Y-135209580D01*
X133333333Y-135209580D02*
X133285714Y-135257200D01*
X133285714Y-135257200D02*
X133190476Y-135304819D01*
X133190476Y-135304819D02*
X132904762Y-135304819D01*
X132904762Y-135304819D02*
X132809524Y-135257200D01*
X132809524Y-135257200D02*
X132761905Y-135209580D01*
X187166667Y-54304819D02*
X187166667Y-53304819D01*
X187166667Y-53304819D02*
X187500000Y-54019104D01*
X187500000Y-54019104D02*
X187833333Y-53304819D01*
X187833333Y-53304819D02*
X187833333Y-54304819D01*
X188309524Y-54304819D02*
X188309524Y-53304819D01*
X188309524Y-53781009D02*
X188880952Y-53781009D01*
X188880952Y-54304819D02*
X188880952Y-53304819D01*
X189309524Y-53400057D02*
X189357143Y-53352438D01*
X189357143Y-53352438D02*
X189452381Y-53304819D01*
X189452381Y-53304819D02*
X189690476Y-53304819D01*
X189690476Y-53304819D02*
X189785714Y-53352438D01*
X189785714Y-53352438D02*
X189833333Y-53400057D01*
X189833333Y-53400057D02*
X189880952Y-53495295D01*
X189880952Y-53495295D02*
X189880952Y-53590533D01*
X189880952Y-53590533D02*
X189833333Y-53733390D01*
X189833333Y-53733390D02*
X189261905Y-54304819D01*
X189261905Y-54304819D02*
X189880952Y-54304819D01*
X131666667Y-55304819D02*
X131666667Y-54304819D01*
X131666667Y-54304819D02*
X132000000Y-55019104D01*
X132000000Y-55019104D02*
X132333333Y-54304819D01*
X132333333Y-54304819D02*
X132333333Y-55304819D01*
X132809524Y-55304819D02*
X132809524Y-54304819D01*
X132809524Y-54781009D02*
X133380952Y-54781009D01*
X133380952Y-55304819D02*
X133380952Y-54304819D01*
X134380952Y-55304819D02*
X133809524Y-55304819D01*
X134095238Y-55304819D02*
X134095238Y-54304819D01*
X134095238Y-54304819D02*
X134000000Y-54447676D01*
X134000000Y-54447676D02*
X133904762Y-54542914D01*
X133904762Y-54542914D02*
X133809524Y-54590533D01*
X181738095Y-113829819D02*
X181738095Y-114639342D01*
X181738095Y-114639342D02*
X181785714Y-114734580D01*
X181785714Y-114734580D02*
X181833333Y-114782200D01*
X181833333Y-114782200D02*
X181928571Y-114829819D01*
X181928571Y-114829819D02*
X182119047Y-114829819D01*
X182119047Y-114829819D02*
X182214285Y-114782200D01*
X182214285Y-114782200D02*
X182261904Y-114734580D01*
X182261904Y-114734580D02*
X182309523Y-114639342D01*
X182309523Y-114639342D02*
X182309523Y-113829819D01*
X183214285Y-114163152D02*
X183214285Y-114829819D01*
X182976190Y-113782200D02*
X182738095Y-114496485D01*
X182738095Y-114496485D02*
X183357142Y-114496485D01*
X145238095Y-113629819D02*
X145238095Y-114439342D01*
X145238095Y-114439342D02*
X145285714Y-114534580D01*
X145285714Y-114534580D02*
X145333333Y-114582200D01*
X145333333Y-114582200D02*
X145428571Y-114629819D01*
X145428571Y-114629819D02*
X145619047Y-114629819D01*
X145619047Y-114629819D02*
X145714285Y-114582200D01*
X145714285Y-114582200D02*
X145761904Y-114534580D01*
X145761904Y-114534580D02*
X145809523Y-114439342D01*
X145809523Y-114439342D02*
X145809523Y-113629819D01*
X146190476Y-113629819D02*
X146809523Y-113629819D01*
X146809523Y-113629819D02*
X146476190Y-114010771D01*
X146476190Y-114010771D02*
X146619047Y-114010771D01*
X146619047Y-114010771D02*
X146714285Y-114058390D01*
X146714285Y-114058390D02*
X146761904Y-114106009D01*
X146761904Y-114106009D02*
X146809523Y-114201247D01*
X146809523Y-114201247D02*
X146809523Y-114439342D01*
X146809523Y-114439342D02*
X146761904Y-114534580D01*
X146761904Y-114534580D02*
X146714285Y-114582200D01*
X146714285Y-114582200D02*
X146619047Y-114629819D01*
X146619047Y-114629819D02*
X146333333Y-114629819D01*
X146333333Y-114629819D02*
X146238095Y-114582200D01*
X146238095Y-114582200D02*
X146190476Y-114534580D01*
X163888095Y-126154819D02*
X163888095Y-126964342D01*
X163888095Y-126964342D02*
X163935714Y-127059580D01*
X163935714Y-127059580D02*
X163983333Y-127107200D01*
X163983333Y-127107200D02*
X164078571Y-127154819D01*
X164078571Y-127154819D02*
X164269047Y-127154819D01*
X164269047Y-127154819D02*
X164364285Y-127107200D01*
X164364285Y-127107200D02*
X164411904Y-127059580D01*
X164411904Y-127059580D02*
X164459523Y-126964342D01*
X164459523Y-126964342D02*
X164459523Y-126154819D01*
X164888095Y-126250057D02*
X164935714Y-126202438D01*
X164935714Y-126202438D02*
X165030952Y-126154819D01*
X165030952Y-126154819D02*
X165269047Y-126154819D01*
X165269047Y-126154819D02*
X165364285Y-126202438D01*
X165364285Y-126202438D02*
X165411904Y-126250057D01*
X165411904Y-126250057D02*
X165459523Y-126345295D01*
X165459523Y-126345295D02*
X165459523Y-126440533D01*
X165459523Y-126440533D02*
X165411904Y-126583390D01*
X165411904Y-126583390D02*
X164840476Y-127154819D01*
X164840476Y-127154819D02*
X165459523Y-127154819D01*
X150974819Y-106511904D02*
X151784342Y-106511904D01*
X151784342Y-106511904D02*
X151879580Y-106464285D01*
X151879580Y-106464285D02*
X151927200Y-106416666D01*
X151927200Y-106416666D02*
X151974819Y-106321428D01*
X151974819Y-106321428D02*
X151974819Y-106130952D01*
X151974819Y-106130952D02*
X151927200Y-106035714D01*
X151927200Y-106035714D02*
X151879580Y-105988095D01*
X151879580Y-105988095D02*
X151784342Y-105940476D01*
X151784342Y-105940476D02*
X150974819Y-105940476D01*
X151974819Y-104940476D02*
X151974819Y-105511904D01*
X151974819Y-105226190D02*
X150974819Y-105226190D01*
X150974819Y-105226190D02*
X151117676Y-105321428D01*
X151117676Y-105321428D02*
X151212914Y-105416666D01*
X151212914Y-105416666D02*
X151260533Y-105511904D01*
X122816667Y-125757200D02*
X122959524Y-125804819D01*
X122959524Y-125804819D02*
X123197619Y-125804819D01*
X123197619Y-125804819D02*
X123292857Y-125757200D01*
X123292857Y-125757200D02*
X123340476Y-125709580D01*
X123340476Y-125709580D02*
X123388095Y-125614342D01*
X123388095Y-125614342D02*
X123388095Y-125519104D01*
X123388095Y-125519104D02*
X123340476Y-125423866D01*
X123340476Y-125423866D02*
X123292857Y-125376247D01*
X123292857Y-125376247D02*
X123197619Y-125328628D01*
X123197619Y-125328628D02*
X123007143Y-125281009D01*
X123007143Y-125281009D02*
X122911905Y-125233390D01*
X122911905Y-125233390D02*
X122864286Y-125185771D01*
X122864286Y-125185771D02*
X122816667Y-125090533D01*
X122816667Y-125090533D02*
X122816667Y-124995295D01*
X122816667Y-124995295D02*
X122864286Y-124900057D01*
X122864286Y-124900057D02*
X122911905Y-124852438D01*
X122911905Y-124852438D02*
X123007143Y-124804819D01*
X123007143Y-124804819D02*
X123245238Y-124804819D01*
X123245238Y-124804819D02*
X123388095Y-124852438D01*
X123721429Y-124804819D02*
X123959524Y-125804819D01*
X123959524Y-125804819D02*
X124150000Y-125090533D01*
X124150000Y-125090533D02*
X124340476Y-125804819D01*
X124340476Y-125804819D02*
X124578572Y-124804819D01*
X124864286Y-124804819D02*
X125483333Y-124804819D01*
X125483333Y-124804819D02*
X125150000Y-125185771D01*
X125150000Y-125185771D02*
X125292857Y-125185771D01*
X125292857Y-125185771D02*
X125388095Y-125233390D01*
X125388095Y-125233390D02*
X125435714Y-125281009D01*
X125435714Y-125281009D02*
X125483333Y-125376247D01*
X125483333Y-125376247D02*
X125483333Y-125614342D01*
X125483333Y-125614342D02*
X125435714Y-125709580D01*
X125435714Y-125709580D02*
X125388095Y-125757200D01*
X125388095Y-125757200D02*
X125292857Y-125804819D01*
X125292857Y-125804819D02*
X125007143Y-125804819D01*
X125007143Y-125804819D02*
X124911905Y-125757200D01*
X124911905Y-125757200D02*
X124864286Y-125709580D01*
X122816667Y-116257200D02*
X122959524Y-116304819D01*
X122959524Y-116304819D02*
X123197619Y-116304819D01*
X123197619Y-116304819D02*
X123292857Y-116257200D01*
X123292857Y-116257200D02*
X123340476Y-116209580D01*
X123340476Y-116209580D02*
X123388095Y-116114342D01*
X123388095Y-116114342D02*
X123388095Y-116019104D01*
X123388095Y-116019104D02*
X123340476Y-115923866D01*
X123340476Y-115923866D02*
X123292857Y-115876247D01*
X123292857Y-115876247D02*
X123197619Y-115828628D01*
X123197619Y-115828628D02*
X123007143Y-115781009D01*
X123007143Y-115781009D02*
X122911905Y-115733390D01*
X122911905Y-115733390D02*
X122864286Y-115685771D01*
X122864286Y-115685771D02*
X122816667Y-115590533D01*
X122816667Y-115590533D02*
X122816667Y-115495295D01*
X122816667Y-115495295D02*
X122864286Y-115400057D01*
X122864286Y-115400057D02*
X122911905Y-115352438D01*
X122911905Y-115352438D02*
X123007143Y-115304819D01*
X123007143Y-115304819D02*
X123245238Y-115304819D01*
X123245238Y-115304819D02*
X123388095Y-115352438D01*
X123721429Y-115304819D02*
X123959524Y-116304819D01*
X123959524Y-116304819D02*
X124150000Y-115590533D01*
X124150000Y-115590533D02*
X124340476Y-116304819D01*
X124340476Y-116304819D02*
X124578572Y-115304819D01*
X124911905Y-115400057D02*
X124959524Y-115352438D01*
X124959524Y-115352438D02*
X125054762Y-115304819D01*
X125054762Y-115304819D02*
X125292857Y-115304819D01*
X125292857Y-115304819D02*
X125388095Y-115352438D01*
X125388095Y-115352438D02*
X125435714Y-115400057D01*
X125435714Y-115400057D02*
X125483333Y-115495295D01*
X125483333Y-115495295D02*
X125483333Y-115590533D01*
X125483333Y-115590533D02*
X125435714Y-115733390D01*
X125435714Y-115733390D02*
X124864286Y-116304819D01*
X124864286Y-116304819D02*
X125483333Y-116304819D01*
X111166667Y-121377200D02*
X111309524Y-121424819D01*
X111309524Y-121424819D02*
X111547619Y-121424819D01*
X111547619Y-121424819D02*
X111642857Y-121377200D01*
X111642857Y-121377200D02*
X111690476Y-121329580D01*
X111690476Y-121329580D02*
X111738095Y-121234342D01*
X111738095Y-121234342D02*
X111738095Y-121139104D01*
X111738095Y-121139104D02*
X111690476Y-121043866D01*
X111690476Y-121043866D02*
X111642857Y-120996247D01*
X111642857Y-120996247D02*
X111547619Y-120948628D01*
X111547619Y-120948628D02*
X111357143Y-120901009D01*
X111357143Y-120901009D02*
X111261905Y-120853390D01*
X111261905Y-120853390D02*
X111214286Y-120805771D01*
X111214286Y-120805771D02*
X111166667Y-120710533D01*
X111166667Y-120710533D02*
X111166667Y-120615295D01*
X111166667Y-120615295D02*
X111214286Y-120520057D01*
X111214286Y-120520057D02*
X111261905Y-120472438D01*
X111261905Y-120472438D02*
X111357143Y-120424819D01*
X111357143Y-120424819D02*
X111595238Y-120424819D01*
X111595238Y-120424819D02*
X111738095Y-120472438D01*
X112071429Y-120424819D02*
X112309524Y-121424819D01*
X112309524Y-121424819D02*
X112500000Y-120710533D01*
X112500000Y-120710533D02*
X112690476Y-121424819D01*
X112690476Y-121424819D02*
X112928572Y-120424819D01*
X113833333Y-121424819D02*
X113261905Y-121424819D01*
X113547619Y-121424819D02*
X113547619Y-120424819D01*
X113547619Y-120424819D02*
X113452381Y-120567676D01*
X113452381Y-120567676D02*
X113357143Y-120662914D01*
X113357143Y-120662914D02*
X113261905Y-120710533D01*
X146245833Y-101754819D02*
X145912500Y-101278628D01*
X145674405Y-101754819D02*
X145674405Y-100754819D01*
X145674405Y-100754819D02*
X146055357Y-100754819D01*
X146055357Y-100754819D02*
X146150595Y-100802438D01*
X146150595Y-100802438D02*
X146198214Y-100850057D01*
X146198214Y-100850057D02*
X146245833Y-100945295D01*
X146245833Y-100945295D02*
X146245833Y-101088152D01*
X146245833Y-101088152D02*
X146198214Y-101183390D01*
X146198214Y-101183390D02*
X146150595Y-101231009D01*
X146150595Y-101231009D02*
X146055357Y-101278628D01*
X146055357Y-101278628D02*
X145674405Y-101278628D01*
X146626786Y-100850057D02*
X146674405Y-100802438D01*
X146674405Y-100802438D02*
X146769643Y-100754819D01*
X146769643Y-100754819D02*
X147007738Y-100754819D01*
X147007738Y-100754819D02*
X147102976Y-100802438D01*
X147102976Y-100802438D02*
X147150595Y-100850057D01*
X147150595Y-100850057D02*
X147198214Y-100945295D01*
X147198214Y-100945295D02*
X147198214Y-101040533D01*
X147198214Y-101040533D02*
X147150595Y-101183390D01*
X147150595Y-101183390D02*
X146579167Y-101754819D01*
X146579167Y-101754819D02*
X147198214Y-101754819D01*
X146245833Y-96804819D02*
X145912500Y-96328628D01*
X145674405Y-96804819D02*
X145674405Y-95804819D01*
X145674405Y-95804819D02*
X146055357Y-95804819D01*
X146055357Y-95804819D02*
X146150595Y-95852438D01*
X146150595Y-95852438D02*
X146198214Y-95900057D01*
X146198214Y-95900057D02*
X146245833Y-95995295D01*
X146245833Y-95995295D02*
X146245833Y-96138152D01*
X146245833Y-96138152D02*
X146198214Y-96233390D01*
X146198214Y-96233390D02*
X146150595Y-96281009D01*
X146150595Y-96281009D02*
X146055357Y-96328628D01*
X146055357Y-96328628D02*
X145674405Y-96328628D01*
X147198214Y-96804819D02*
X146626786Y-96804819D01*
X146912500Y-96804819D02*
X146912500Y-95804819D01*
X146912500Y-95804819D02*
X146817262Y-95947676D01*
X146817262Y-95947676D02*
X146722024Y-96042914D01*
X146722024Y-96042914D02*
X146626786Y-96090533D01*
X209816666Y-132754819D02*
X209816666Y-133469104D01*
X209816666Y-133469104D02*
X209769047Y-133611961D01*
X209769047Y-133611961D02*
X209673809Y-133707200D01*
X209673809Y-133707200D02*
X209530952Y-133754819D01*
X209530952Y-133754819D02*
X209435714Y-133754819D01*
X210340476Y-133754819D02*
X210530952Y-133754819D01*
X210530952Y-133754819D02*
X210626190Y-133707200D01*
X210626190Y-133707200D02*
X210673809Y-133659580D01*
X210673809Y-133659580D02*
X210769047Y-133516723D01*
X210769047Y-133516723D02*
X210816666Y-133326247D01*
X210816666Y-133326247D02*
X210816666Y-132945295D01*
X210816666Y-132945295D02*
X210769047Y-132850057D01*
X210769047Y-132850057D02*
X210721428Y-132802438D01*
X210721428Y-132802438D02*
X210626190Y-132754819D01*
X210626190Y-132754819D02*
X210435714Y-132754819D01*
X210435714Y-132754819D02*
X210340476Y-132802438D01*
X210340476Y-132802438D02*
X210292857Y-132850057D01*
X210292857Y-132850057D02*
X210245238Y-132945295D01*
X210245238Y-132945295D02*
X210245238Y-133183390D01*
X210245238Y-133183390D02*
X210292857Y-133278628D01*
X210292857Y-133278628D02*
X210340476Y-133326247D01*
X210340476Y-133326247D02*
X210435714Y-133373866D01*
X210435714Y-133373866D02*
X210626190Y-133373866D01*
X210626190Y-133373866D02*
X210721428Y-133326247D01*
X210721428Y-133326247D02*
X210769047Y-133278628D01*
X210769047Y-133278628D02*
X210816666Y-133183390D01*
X112016666Y-133254819D02*
X112016666Y-133969104D01*
X112016666Y-133969104D02*
X111969047Y-134111961D01*
X111969047Y-134111961D02*
X111873809Y-134207200D01*
X111873809Y-134207200D02*
X111730952Y-134254819D01*
X111730952Y-134254819D02*
X111635714Y-134254819D01*
X112635714Y-133683390D02*
X112540476Y-133635771D01*
X112540476Y-133635771D02*
X112492857Y-133588152D01*
X112492857Y-133588152D02*
X112445238Y-133492914D01*
X112445238Y-133492914D02*
X112445238Y-133445295D01*
X112445238Y-133445295D02*
X112492857Y-133350057D01*
X112492857Y-133350057D02*
X112540476Y-133302438D01*
X112540476Y-133302438D02*
X112635714Y-133254819D01*
X112635714Y-133254819D02*
X112826190Y-133254819D01*
X112826190Y-133254819D02*
X112921428Y-133302438D01*
X112921428Y-133302438D02*
X112969047Y-133350057D01*
X112969047Y-133350057D02*
X113016666Y-133445295D01*
X113016666Y-133445295D02*
X113016666Y-133492914D01*
X113016666Y-133492914D02*
X112969047Y-133588152D01*
X112969047Y-133588152D02*
X112921428Y-133635771D01*
X112921428Y-133635771D02*
X112826190Y-133683390D01*
X112826190Y-133683390D02*
X112635714Y-133683390D01*
X112635714Y-133683390D02*
X112540476Y-133731009D01*
X112540476Y-133731009D02*
X112492857Y-133778628D01*
X112492857Y-133778628D02*
X112445238Y-133873866D01*
X112445238Y-133873866D02*
X112445238Y-134064342D01*
X112445238Y-134064342D02*
X112492857Y-134159580D01*
X112492857Y-134159580D02*
X112540476Y-134207200D01*
X112540476Y-134207200D02*
X112635714Y-134254819D01*
X112635714Y-134254819D02*
X112826190Y-134254819D01*
X112826190Y-134254819D02*
X112921428Y-134207200D01*
X112921428Y-134207200D02*
X112969047Y-134159580D01*
X112969047Y-134159580D02*
X113016666Y-134064342D01*
X113016666Y-134064342D02*
X113016666Y-133873866D01*
X113016666Y-133873866D02*
X112969047Y-133778628D01*
X112969047Y-133778628D02*
X112921428Y-133731009D01*
X112921428Y-133731009D02*
X112826190Y-133683390D01*
X208511666Y-97374819D02*
X208511666Y-98089104D01*
X208511666Y-98089104D02*
X208464047Y-98231961D01*
X208464047Y-98231961D02*
X208368809Y-98327200D01*
X208368809Y-98327200D02*
X208225952Y-98374819D01*
X208225952Y-98374819D02*
X208130714Y-98374819D01*
X208892619Y-97374819D02*
X209559285Y-97374819D01*
X209559285Y-97374819D02*
X209130714Y-98374819D01*
X204666666Y-59004819D02*
X204666666Y-59719104D01*
X204666666Y-59719104D02*
X204619047Y-59861961D01*
X204619047Y-59861961D02*
X204523809Y-59957200D01*
X204523809Y-59957200D02*
X204380952Y-60004819D01*
X204380952Y-60004819D02*
X204285714Y-60004819D01*
X205571428Y-59004819D02*
X205380952Y-59004819D01*
X205380952Y-59004819D02*
X205285714Y-59052438D01*
X205285714Y-59052438D02*
X205238095Y-59100057D01*
X205238095Y-59100057D02*
X205142857Y-59242914D01*
X205142857Y-59242914D02*
X205095238Y-59433390D01*
X205095238Y-59433390D02*
X205095238Y-59814342D01*
X205095238Y-59814342D02*
X205142857Y-59909580D01*
X205142857Y-59909580D02*
X205190476Y-59957200D01*
X205190476Y-59957200D02*
X205285714Y-60004819D01*
X205285714Y-60004819D02*
X205476190Y-60004819D01*
X205476190Y-60004819D02*
X205571428Y-59957200D01*
X205571428Y-59957200D02*
X205619047Y-59909580D01*
X205619047Y-59909580D02*
X205666666Y-59814342D01*
X205666666Y-59814342D02*
X205666666Y-59576247D01*
X205666666Y-59576247D02*
X205619047Y-59481009D01*
X205619047Y-59481009D02*
X205571428Y-59433390D01*
X205571428Y-59433390D02*
X205476190Y-59385771D01*
X205476190Y-59385771D02*
X205285714Y-59385771D01*
X205285714Y-59385771D02*
X205190476Y-59433390D01*
X205190476Y-59433390D02*
X205142857Y-59481009D01*
X205142857Y-59481009D02*
X205095238Y-59576247D01*
X115666666Y-58504819D02*
X115666666Y-59219104D01*
X115666666Y-59219104D02*
X115619047Y-59361961D01*
X115619047Y-59361961D02*
X115523809Y-59457200D01*
X115523809Y-59457200D02*
X115380952Y-59504819D01*
X115380952Y-59504819D02*
X115285714Y-59504819D01*
X116619047Y-58504819D02*
X116142857Y-58504819D01*
X116142857Y-58504819D02*
X116095238Y-58981009D01*
X116095238Y-58981009D02*
X116142857Y-58933390D01*
X116142857Y-58933390D02*
X116238095Y-58885771D01*
X116238095Y-58885771D02*
X116476190Y-58885771D01*
X116476190Y-58885771D02*
X116571428Y-58933390D01*
X116571428Y-58933390D02*
X116619047Y-58981009D01*
X116619047Y-58981009D02*
X116666666Y-59076247D01*
X116666666Y-59076247D02*
X116666666Y-59314342D01*
X116666666Y-59314342D02*
X116619047Y-59409580D01*
X116619047Y-59409580D02*
X116571428Y-59457200D01*
X116571428Y-59457200D02*
X116476190Y-59504819D01*
X116476190Y-59504819D02*
X116238095Y-59504819D01*
X116238095Y-59504819D02*
X116142857Y-59457200D01*
X116142857Y-59457200D02*
X116095238Y-59409580D01*
X204166666Y-73504819D02*
X204166666Y-74219104D01*
X204166666Y-74219104D02*
X204119047Y-74361961D01*
X204119047Y-74361961D02*
X204023809Y-74457200D01*
X204023809Y-74457200D02*
X203880952Y-74504819D01*
X203880952Y-74504819D02*
X203785714Y-74504819D01*
X205071428Y-73838152D02*
X205071428Y-74504819D01*
X204833333Y-73457200D02*
X204595238Y-74171485D01*
X204595238Y-74171485D02*
X205214285Y-74171485D01*
X113816666Y-75754819D02*
X113816666Y-76469104D01*
X113816666Y-76469104D02*
X113769047Y-76611961D01*
X113769047Y-76611961D02*
X113673809Y-76707200D01*
X113673809Y-76707200D02*
X113530952Y-76754819D01*
X113530952Y-76754819D02*
X113435714Y-76754819D01*
X114197619Y-75754819D02*
X114816666Y-75754819D01*
X114816666Y-75754819D02*
X114483333Y-76135771D01*
X114483333Y-76135771D02*
X114626190Y-76135771D01*
X114626190Y-76135771D02*
X114721428Y-76183390D01*
X114721428Y-76183390D02*
X114769047Y-76231009D01*
X114769047Y-76231009D02*
X114816666Y-76326247D01*
X114816666Y-76326247D02*
X114816666Y-76564342D01*
X114816666Y-76564342D02*
X114769047Y-76659580D01*
X114769047Y-76659580D02*
X114721428Y-76707200D01*
X114721428Y-76707200D02*
X114626190Y-76754819D01*
X114626190Y-76754819D02*
X114340476Y-76754819D01*
X114340476Y-76754819D02*
X114245238Y-76707200D01*
X114245238Y-76707200D02*
X114197619Y-76659580D01*
X152334819Y-58178333D02*
X153049104Y-58178333D01*
X153049104Y-58178333D02*
X153191961Y-58225952D01*
X153191961Y-58225952D02*
X153287200Y-58321190D01*
X153287200Y-58321190D02*
X153334819Y-58464047D01*
X153334819Y-58464047D02*
X153334819Y-58559285D01*
X152430057Y-57749761D02*
X152382438Y-57702142D01*
X152382438Y-57702142D02*
X152334819Y-57606904D01*
X152334819Y-57606904D02*
X152334819Y-57368809D01*
X152334819Y-57368809D02*
X152382438Y-57273571D01*
X152382438Y-57273571D02*
X152430057Y-57225952D01*
X152430057Y-57225952D02*
X152525295Y-57178333D01*
X152525295Y-57178333D02*
X152620533Y-57178333D01*
X152620533Y-57178333D02*
X152763390Y-57225952D01*
X152763390Y-57225952D02*
X153334819Y-57797380D01*
X153334819Y-57797380D02*
X153334819Y-57178333D01*
X112166666Y-104254819D02*
X112166666Y-104969104D01*
X112166666Y-104969104D02*
X112119047Y-105111961D01*
X112119047Y-105111961D02*
X112023809Y-105207200D01*
X112023809Y-105207200D02*
X111880952Y-105254819D01*
X111880952Y-105254819D02*
X111785714Y-105254819D01*
X113166666Y-105254819D02*
X112595238Y-105254819D01*
X112880952Y-105254819D02*
X112880952Y-104254819D01*
X112880952Y-104254819D02*
X112785714Y-104397676D01*
X112785714Y-104397676D02*
X112690476Y-104492914D01*
X112690476Y-104492914D02*
X112595238Y-104540533D01*
X117257142Y-99679580D02*
X117209523Y-99727200D01*
X117209523Y-99727200D02*
X117066666Y-99774819D01*
X117066666Y-99774819D02*
X116971428Y-99774819D01*
X116971428Y-99774819D02*
X116828571Y-99727200D01*
X116828571Y-99727200D02*
X116733333Y-99631961D01*
X116733333Y-99631961D02*
X116685714Y-99536723D01*
X116685714Y-99536723D02*
X116638095Y-99346247D01*
X116638095Y-99346247D02*
X116638095Y-99203390D01*
X116638095Y-99203390D02*
X116685714Y-99012914D01*
X116685714Y-99012914D02*
X116733333Y-98917676D01*
X116733333Y-98917676D02*
X116828571Y-98822438D01*
X116828571Y-98822438D02*
X116971428Y-98774819D01*
X116971428Y-98774819D02*
X117066666Y-98774819D01*
X117066666Y-98774819D02*
X117209523Y-98822438D01*
X117209523Y-98822438D02*
X117257142Y-98870057D01*
X118209523Y-99774819D02*
X117638095Y-99774819D01*
X117923809Y-99774819D02*
X117923809Y-98774819D01*
X117923809Y-98774819D02*
X117828571Y-98917676D01*
X117828571Y-98917676D02*
X117733333Y-99012914D01*
X117733333Y-99012914D02*
X117638095Y-99060533D01*
X119066666Y-99108152D02*
X119066666Y-99774819D01*
X118828571Y-98727200D02*
X118590476Y-99441485D01*
X118590476Y-99441485D02*
X119209523Y-99441485D01*
X117257142Y-95189580D02*
X117209523Y-95237200D01*
X117209523Y-95237200D02*
X117066666Y-95284819D01*
X117066666Y-95284819D02*
X116971428Y-95284819D01*
X116971428Y-95284819D02*
X116828571Y-95237200D01*
X116828571Y-95237200D02*
X116733333Y-95141961D01*
X116733333Y-95141961D02*
X116685714Y-95046723D01*
X116685714Y-95046723D02*
X116638095Y-94856247D01*
X116638095Y-94856247D02*
X116638095Y-94713390D01*
X116638095Y-94713390D02*
X116685714Y-94522914D01*
X116685714Y-94522914D02*
X116733333Y-94427676D01*
X116733333Y-94427676D02*
X116828571Y-94332438D01*
X116828571Y-94332438D02*
X116971428Y-94284819D01*
X116971428Y-94284819D02*
X117066666Y-94284819D01*
X117066666Y-94284819D02*
X117209523Y-94332438D01*
X117209523Y-94332438D02*
X117257142Y-94380057D01*
X118209523Y-95284819D02*
X117638095Y-95284819D01*
X117923809Y-95284819D02*
X117923809Y-94284819D01*
X117923809Y-94284819D02*
X117828571Y-94427676D01*
X117828571Y-94427676D02*
X117733333Y-94522914D01*
X117733333Y-94522914D02*
X117638095Y-94570533D01*
X118542857Y-94284819D02*
X119161904Y-94284819D01*
X119161904Y-94284819D02*
X118828571Y-94665771D01*
X118828571Y-94665771D02*
X118971428Y-94665771D01*
X118971428Y-94665771D02*
X119066666Y-94713390D01*
X119066666Y-94713390D02*
X119114285Y-94761009D01*
X119114285Y-94761009D02*
X119161904Y-94856247D01*
X119161904Y-94856247D02*
X119161904Y-95094342D01*
X119161904Y-95094342D02*
X119114285Y-95189580D01*
X119114285Y-95189580D02*
X119066666Y-95237200D01*
X119066666Y-95237200D02*
X118971428Y-95284819D01*
X118971428Y-95284819D02*
X118685714Y-95284819D01*
X118685714Y-95284819D02*
X118590476Y-95237200D01*
X118590476Y-95237200D02*
X118542857Y-95189580D01*
X117257142Y-90679580D02*
X117209523Y-90727200D01*
X117209523Y-90727200D02*
X117066666Y-90774819D01*
X117066666Y-90774819D02*
X116971428Y-90774819D01*
X116971428Y-90774819D02*
X116828571Y-90727200D01*
X116828571Y-90727200D02*
X116733333Y-90631961D01*
X116733333Y-90631961D02*
X116685714Y-90536723D01*
X116685714Y-90536723D02*
X116638095Y-90346247D01*
X116638095Y-90346247D02*
X116638095Y-90203390D01*
X116638095Y-90203390D02*
X116685714Y-90012914D01*
X116685714Y-90012914D02*
X116733333Y-89917676D01*
X116733333Y-89917676D02*
X116828571Y-89822438D01*
X116828571Y-89822438D02*
X116971428Y-89774819D01*
X116971428Y-89774819D02*
X117066666Y-89774819D01*
X117066666Y-89774819D02*
X117209523Y-89822438D01*
X117209523Y-89822438D02*
X117257142Y-89870057D01*
X118209523Y-90774819D02*
X117638095Y-90774819D01*
X117923809Y-90774819D02*
X117923809Y-89774819D01*
X117923809Y-89774819D02*
X117828571Y-89917676D01*
X117828571Y-89917676D02*
X117733333Y-90012914D01*
X117733333Y-90012914D02*
X117638095Y-90060533D01*
X118590476Y-89870057D02*
X118638095Y-89822438D01*
X118638095Y-89822438D02*
X118733333Y-89774819D01*
X118733333Y-89774819D02*
X118971428Y-89774819D01*
X118971428Y-89774819D02*
X119066666Y-89822438D01*
X119066666Y-89822438D02*
X119114285Y-89870057D01*
X119114285Y-89870057D02*
X119161904Y-89965295D01*
X119161904Y-89965295D02*
X119161904Y-90060533D01*
X119161904Y-90060533D02*
X119114285Y-90203390D01*
X119114285Y-90203390D02*
X118542857Y-90774819D01*
X118542857Y-90774819D02*
X119161904Y-90774819D01*
X112807142Y-99679580D02*
X112759523Y-99727200D01*
X112759523Y-99727200D02*
X112616666Y-99774819D01*
X112616666Y-99774819D02*
X112521428Y-99774819D01*
X112521428Y-99774819D02*
X112378571Y-99727200D01*
X112378571Y-99727200D02*
X112283333Y-99631961D01*
X112283333Y-99631961D02*
X112235714Y-99536723D01*
X112235714Y-99536723D02*
X112188095Y-99346247D01*
X112188095Y-99346247D02*
X112188095Y-99203390D01*
X112188095Y-99203390D02*
X112235714Y-99012914D01*
X112235714Y-99012914D02*
X112283333Y-98917676D01*
X112283333Y-98917676D02*
X112378571Y-98822438D01*
X112378571Y-98822438D02*
X112521428Y-98774819D01*
X112521428Y-98774819D02*
X112616666Y-98774819D01*
X112616666Y-98774819D02*
X112759523Y-98822438D01*
X112759523Y-98822438D02*
X112807142Y-98870057D01*
X113759523Y-99774819D02*
X113188095Y-99774819D01*
X113473809Y-99774819D02*
X113473809Y-98774819D01*
X113473809Y-98774819D02*
X113378571Y-98917676D01*
X113378571Y-98917676D02*
X113283333Y-99012914D01*
X113283333Y-99012914D02*
X113188095Y-99060533D01*
X114711904Y-99774819D02*
X114140476Y-99774819D01*
X114426190Y-99774819D02*
X114426190Y-98774819D01*
X114426190Y-98774819D02*
X114330952Y-98917676D01*
X114330952Y-98917676D02*
X114235714Y-99012914D01*
X114235714Y-99012914D02*
X114140476Y-99060533D01*
X112807142Y-95189580D02*
X112759523Y-95237200D01*
X112759523Y-95237200D02*
X112616666Y-95284819D01*
X112616666Y-95284819D02*
X112521428Y-95284819D01*
X112521428Y-95284819D02*
X112378571Y-95237200D01*
X112378571Y-95237200D02*
X112283333Y-95141961D01*
X112283333Y-95141961D02*
X112235714Y-95046723D01*
X112235714Y-95046723D02*
X112188095Y-94856247D01*
X112188095Y-94856247D02*
X112188095Y-94713390D01*
X112188095Y-94713390D02*
X112235714Y-94522914D01*
X112235714Y-94522914D02*
X112283333Y-94427676D01*
X112283333Y-94427676D02*
X112378571Y-94332438D01*
X112378571Y-94332438D02*
X112521428Y-94284819D01*
X112521428Y-94284819D02*
X112616666Y-94284819D01*
X112616666Y-94284819D02*
X112759523Y-94332438D01*
X112759523Y-94332438D02*
X112807142Y-94380057D01*
X113759523Y-95284819D02*
X113188095Y-95284819D01*
X113473809Y-95284819D02*
X113473809Y-94284819D01*
X113473809Y-94284819D02*
X113378571Y-94427676D01*
X113378571Y-94427676D02*
X113283333Y-94522914D01*
X113283333Y-94522914D02*
X113188095Y-94570533D01*
X114378571Y-94284819D02*
X114473809Y-94284819D01*
X114473809Y-94284819D02*
X114569047Y-94332438D01*
X114569047Y-94332438D02*
X114616666Y-94380057D01*
X114616666Y-94380057D02*
X114664285Y-94475295D01*
X114664285Y-94475295D02*
X114711904Y-94665771D01*
X114711904Y-94665771D02*
X114711904Y-94903866D01*
X114711904Y-94903866D02*
X114664285Y-95094342D01*
X114664285Y-95094342D02*
X114616666Y-95189580D01*
X114616666Y-95189580D02*
X114569047Y-95237200D01*
X114569047Y-95237200D02*
X114473809Y-95284819D01*
X114473809Y-95284819D02*
X114378571Y-95284819D01*
X114378571Y-95284819D02*
X114283333Y-95237200D01*
X114283333Y-95237200D02*
X114235714Y-95189580D01*
X114235714Y-95189580D02*
X114188095Y-95094342D01*
X114188095Y-95094342D02*
X114140476Y-94903866D01*
X114140476Y-94903866D02*
X114140476Y-94665771D01*
X114140476Y-94665771D02*
X114188095Y-94475295D01*
X114188095Y-94475295D02*
X114235714Y-94380057D01*
X114235714Y-94380057D02*
X114283333Y-94332438D01*
X114283333Y-94332438D02*
X114378571Y-94284819D01*
X113283333Y-90679580D02*
X113235714Y-90727200D01*
X113235714Y-90727200D02*
X113092857Y-90774819D01*
X113092857Y-90774819D02*
X112997619Y-90774819D01*
X112997619Y-90774819D02*
X112854762Y-90727200D01*
X112854762Y-90727200D02*
X112759524Y-90631961D01*
X112759524Y-90631961D02*
X112711905Y-90536723D01*
X112711905Y-90536723D02*
X112664286Y-90346247D01*
X112664286Y-90346247D02*
X112664286Y-90203390D01*
X112664286Y-90203390D02*
X112711905Y-90012914D01*
X112711905Y-90012914D02*
X112759524Y-89917676D01*
X112759524Y-89917676D02*
X112854762Y-89822438D01*
X112854762Y-89822438D02*
X112997619Y-89774819D01*
X112997619Y-89774819D02*
X113092857Y-89774819D01*
X113092857Y-89774819D02*
X113235714Y-89822438D01*
X113235714Y-89822438D02*
X113283333Y-89870057D01*
X113759524Y-90774819D02*
X113950000Y-90774819D01*
X113950000Y-90774819D02*
X114045238Y-90727200D01*
X114045238Y-90727200D02*
X114092857Y-90679580D01*
X114092857Y-90679580D02*
X114188095Y-90536723D01*
X114188095Y-90536723D02*
X114235714Y-90346247D01*
X114235714Y-90346247D02*
X114235714Y-89965295D01*
X114235714Y-89965295D02*
X114188095Y-89870057D01*
X114188095Y-89870057D02*
X114140476Y-89822438D01*
X114140476Y-89822438D02*
X114045238Y-89774819D01*
X114045238Y-89774819D02*
X113854762Y-89774819D01*
X113854762Y-89774819D02*
X113759524Y-89822438D01*
X113759524Y-89822438D02*
X113711905Y-89870057D01*
X113711905Y-89870057D02*
X113664286Y-89965295D01*
X113664286Y-89965295D02*
X113664286Y-90203390D01*
X113664286Y-90203390D02*
X113711905Y-90298628D01*
X113711905Y-90298628D02*
X113759524Y-90346247D01*
X113759524Y-90346247D02*
X113854762Y-90393866D01*
X113854762Y-90393866D02*
X114045238Y-90393866D01*
X114045238Y-90393866D02*
X114140476Y-90346247D01*
X114140476Y-90346247D02*
X114188095Y-90298628D01*
X114188095Y-90298628D02*
X114235714Y-90203390D01*
X108833333Y-99679580D02*
X108785714Y-99727200D01*
X108785714Y-99727200D02*
X108642857Y-99774819D01*
X108642857Y-99774819D02*
X108547619Y-99774819D01*
X108547619Y-99774819D02*
X108404762Y-99727200D01*
X108404762Y-99727200D02*
X108309524Y-99631961D01*
X108309524Y-99631961D02*
X108261905Y-99536723D01*
X108261905Y-99536723D02*
X108214286Y-99346247D01*
X108214286Y-99346247D02*
X108214286Y-99203390D01*
X108214286Y-99203390D02*
X108261905Y-99012914D01*
X108261905Y-99012914D02*
X108309524Y-98917676D01*
X108309524Y-98917676D02*
X108404762Y-98822438D01*
X108404762Y-98822438D02*
X108547619Y-98774819D01*
X108547619Y-98774819D02*
X108642857Y-98774819D01*
X108642857Y-98774819D02*
X108785714Y-98822438D01*
X108785714Y-98822438D02*
X108833333Y-98870057D01*
X109404762Y-99203390D02*
X109309524Y-99155771D01*
X109309524Y-99155771D02*
X109261905Y-99108152D01*
X109261905Y-99108152D02*
X109214286Y-99012914D01*
X109214286Y-99012914D02*
X109214286Y-98965295D01*
X109214286Y-98965295D02*
X109261905Y-98870057D01*
X109261905Y-98870057D02*
X109309524Y-98822438D01*
X109309524Y-98822438D02*
X109404762Y-98774819D01*
X109404762Y-98774819D02*
X109595238Y-98774819D01*
X109595238Y-98774819D02*
X109690476Y-98822438D01*
X109690476Y-98822438D02*
X109738095Y-98870057D01*
X109738095Y-98870057D02*
X109785714Y-98965295D01*
X109785714Y-98965295D02*
X109785714Y-99012914D01*
X109785714Y-99012914D02*
X109738095Y-99108152D01*
X109738095Y-99108152D02*
X109690476Y-99155771D01*
X109690476Y-99155771D02*
X109595238Y-99203390D01*
X109595238Y-99203390D02*
X109404762Y-99203390D01*
X109404762Y-99203390D02*
X109309524Y-99251009D01*
X109309524Y-99251009D02*
X109261905Y-99298628D01*
X109261905Y-99298628D02*
X109214286Y-99393866D01*
X109214286Y-99393866D02*
X109214286Y-99584342D01*
X109214286Y-99584342D02*
X109261905Y-99679580D01*
X109261905Y-99679580D02*
X109309524Y-99727200D01*
X109309524Y-99727200D02*
X109404762Y-99774819D01*
X109404762Y-99774819D02*
X109595238Y-99774819D01*
X109595238Y-99774819D02*
X109690476Y-99727200D01*
X109690476Y-99727200D02*
X109738095Y-99679580D01*
X109738095Y-99679580D02*
X109785714Y-99584342D01*
X109785714Y-99584342D02*
X109785714Y-99393866D01*
X109785714Y-99393866D02*
X109738095Y-99298628D01*
X109738095Y-99298628D02*
X109690476Y-99251009D01*
X109690476Y-99251009D02*
X109595238Y-99203390D01*
X108833333Y-95189580D02*
X108785714Y-95237200D01*
X108785714Y-95237200D02*
X108642857Y-95284819D01*
X108642857Y-95284819D02*
X108547619Y-95284819D01*
X108547619Y-95284819D02*
X108404762Y-95237200D01*
X108404762Y-95237200D02*
X108309524Y-95141961D01*
X108309524Y-95141961D02*
X108261905Y-95046723D01*
X108261905Y-95046723D02*
X108214286Y-94856247D01*
X108214286Y-94856247D02*
X108214286Y-94713390D01*
X108214286Y-94713390D02*
X108261905Y-94522914D01*
X108261905Y-94522914D02*
X108309524Y-94427676D01*
X108309524Y-94427676D02*
X108404762Y-94332438D01*
X108404762Y-94332438D02*
X108547619Y-94284819D01*
X108547619Y-94284819D02*
X108642857Y-94284819D01*
X108642857Y-94284819D02*
X108785714Y-94332438D01*
X108785714Y-94332438D02*
X108833333Y-94380057D01*
X109166667Y-94284819D02*
X109833333Y-94284819D01*
X109833333Y-94284819D02*
X109404762Y-95284819D01*
X108833333Y-90679580D02*
X108785714Y-90727200D01*
X108785714Y-90727200D02*
X108642857Y-90774819D01*
X108642857Y-90774819D02*
X108547619Y-90774819D01*
X108547619Y-90774819D02*
X108404762Y-90727200D01*
X108404762Y-90727200D02*
X108309524Y-90631961D01*
X108309524Y-90631961D02*
X108261905Y-90536723D01*
X108261905Y-90536723D02*
X108214286Y-90346247D01*
X108214286Y-90346247D02*
X108214286Y-90203390D01*
X108214286Y-90203390D02*
X108261905Y-90012914D01*
X108261905Y-90012914D02*
X108309524Y-89917676D01*
X108309524Y-89917676D02*
X108404762Y-89822438D01*
X108404762Y-89822438D02*
X108547619Y-89774819D01*
X108547619Y-89774819D02*
X108642857Y-89774819D01*
X108642857Y-89774819D02*
X108785714Y-89822438D01*
X108785714Y-89822438D02*
X108833333Y-89870057D01*
X109785714Y-90774819D02*
X109214286Y-90774819D01*
X109500000Y-90774819D02*
X109500000Y-89774819D01*
X109500000Y-89774819D02*
X109404762Y-89917676D01*
X109404762Y-89917676D02*
X109309524Y-90012914D01*
X109309524Y-90012914D02*
X109214286Y-90060533D01*
%TO.C,U4*%
D11*
X179740000Y-115215000D02*
X185260000Y-115215000D01*
X179740000Y-115390000D02*
X179740000Y-115215000D01*
X179740000Y-123635000D02*
X179740000Y-123460000D01*
X185260000Y-115215000D02*
X185260000Y-115390000D01*
X185260000Y-123460000D02*
X185260000Y-123635000D01*
X185260000Y-123635000D02*
X179740000Y-123635000D01*
X179000000Y-115385000D02*
X178660000Y-114915000D01*
X179340000Y-114915000D01*
X179000000Y-115385000D01*
G36*
X179000000Y-115385000D02*
G01*
X178660000Y-114915000D01*
X179340000Y-114915000D01*
X179000000Y-115385000D01*
G37*
%TO.C,U3*%
X143240000Y-115015000D02*
X148760000Y-115015000D01*
X143240000Y-115190000D02*
X143240000Y-115015000D01*
X143240000Y-123435000D02*
X143240000Y-123260000D01*
X148760000Y-115015000D02*
X148760000Y-115190000D01*
X148760000Y-123260000D02*
X148760000Y-123435000D01*
X148760000Y-123435000D02*
X143240000Y-123435000D01*
X142500000Y-115185000D02*
X142160000Y-114715000D01*
X142840000Y-114715000D01*
X142500000Y-115185000D01*
G36*
X142500000Y-115185000D02*
G01*
X142160000Y-114715000D01*
X142840000Y-114715000D01*
X142500000Y-115185000D01*
G37*
%TO.C,U2*%
X162800000Y-127790000D02*
X166560000Y-127790000D01*
X162800000Y-134610000D02*
X166560000Y-134610000D01*
X166560000Y-127790000D02*
X166560000Y-129050000D01*
X166560000Y-134610000D02*
X166560000Y-133350000D01*
X161520000Y-127890000D02*
X161280000Y-127560000D01*
X161760000Y-127560000D01*
X161520000Y-127890000D01*
G36*
X161520000Y-127890000D02*
G01*
X161280000Y-127560000D01*
X161760000Y-127560000D01*
X161520000Y-127890000D01*
G37*
%TO.C,U1*%
X153010000Y-81460000D02*
X153010000Y-87620000D01*
X153010000Y-81460000D02*
X171250000Y-81460000D01*
X153010000Y-106420000D02*
X153010000Y-107200000D01*
X153010000Y-107200000D02*
X154010000Y-107200000D01*
X171250000Y-81460000D02*
X171250000Y-87875000D01*
X171250000Y-106420000D02*
X171250000Y-107200000D01*
X171250000Y-107200000D02*
X170250000Y-107200000D01*
X153005000Y-88345000D02*
X152505000Y-88345000D01*
X153005000Y-87845000D01*
X153005000Y-88345000D01*
G36*
X153005000Y-88345000D02*
G01*
X152505000Y-88345000D01*
X153005000Y-87845000D01*
X153005000Y-88345000D01*
G37*
%TO.C,SW3*%
X121400000Y-128100000D02*
X121400000Y-130100000D01*
X122450000Y-126800000D02*
X122900000Y-126350000D01*
X122450000Y-131400000D02*
X122900000Y-131850000D01*
X122900000Y-126350000D02*
X125400000Y-126350000D01*
X122900000Y-131850000D02*
X125400000Y-131850000D01*
X125850000Y-126800000D02*
X125400000Y-126350000D01*
X125850000Y-131400000D02*
X125400000Y-131850000D01*
X126900000Y-128100000D02*
X126900000Y-130100000D01*
%TO.C,SW2*%
X121400000Y-118600000D02*
X121400000Y-120600000D01*
X122450000Y-117300000D02*
X122900000Y-116850000D01*
X122450000Y-121900000D02*
X122900000Y-122350000D01*
X122900000Y-116850000D02*
X125400000Y-116850000D01*
X122900000Y-122350000D02*
X125400000Y-122350000D01*
X125850000Y-117300000D02*
X125400000Y-116850000D01*
X125850000Y-121900000D02*
X125400000Y-122350000D01*
X126900000Y-118600000D02*
X126900000Y-120600000D01*
%TO.C,SW1*%
X109050000Y-124100000D02*
X109050000Y-124890000D01*
X109650000Y-125900000D02*
X115350000Y-125900000D01*
X110900000Y-123050000D02*
X112600000Y-123050000D01*
X111100000Y-125900000D02*
X111100000Y-127190000D01*
X111100000Y-127190000D02*
X111300000Y-127400000D01*
X111300000Y-127400000D02*
X112200000Y-127400000D01*
X112400000Y-127190000D02*
X112200000Y-127400000D01*
X112400000Y-127190000D02*
X112400000Y-125900000D01*
X113900000Y-123050000D02*
X114100000Y-123050000D01*
X115950000Y-124890000D02*
X115950000Y-124100000D01*
%TO.C,R2*%
X146185436Y-102215000D02*
X146639564Y-102215000D01*
X146185436Y-103685000D02*
X146639564Y-103685000D01*
%TO.C,R1*%
X146185436Y-97265000D02*
X146639564Y-97265000D01*
X146185436Y-98735000D02*
X146639564Y-98735000D01*
%TO.C,J9*%
X206090000Y-135790000D02*
X207110000Y-135790000D01*
X206090000Y-140040000D02*
X206090000Y-135790000D01*
X207110000Y-135790000D02*
X207110000Y-137390000D01*
X207110000Y-137390000D02*
X208390000Y-137390000D01*
X207810000Y-143610000D02*
X212490000Y-143610000D01*
X208390000Y-137390000D02*
X208390000Y-134500000D01*
X213190000Y-135790000D02*
X213190000Y-137390000D01*
X213190000Y-137390000D02*
X211910000Y-137390000D01*
X214210000Y-135790000D02*
X213190000Y-135790000D01*
X214210000Y-140040000D02*
X214210000Y-135790000D01*
%TO.C,J8*%
X108290000Y-136290000D02*
X109310000Y-136290000D01*
X108290000Y-140540000D02*
X108290000Y-136290000D01*
X109310000Y-136290000D02*
X109310000Y-137890000D01*
X109310000Y-137890000D02*
X110590000Y-137890000D01*
X110010000Y-144110000D02*
X114690000Y-144110000D01*
X110590000Y-137890000D02*
X110590000Y-135000000D01*
X115390000Y-136290000D02*
X115390000Y-137890000D01*
X115390000Y-137890000D02*
X114110000Y-137890000D01*
X116410000Y-136290000D02*
X115390000Y-136290000D01*
X116410000Y-140540000D02*
X116410000Y-136290000D01*
%TO.C,J7*%
X207465000Y-98920000D02*
X207465000Y-99490000D01*
X207465000Y-98920000D02*
X210225000Y-98920000D01*
X207465000Y-99490000D02*
X205995000Y-99490000D01*
X207465000Y-101110000D02*
X207465000Y-104570000D01*
X207465000Y-106190000D02*
X207465000Y-109650000D01*
X207465000Y-111270000D02*
X207465000Y-114380000D01*
X207465000Y-114380000D02*
X210225000Y-114380000D01*
X210225000Y-99490000D02*
X210225000Y-102030000D01*
X210225000Y-103650000D02*
X210225000Y-107110000D01*
X210225000Y-108730000D02*
X210225000Y-112190000D01*
X210225000Y-113810000D02*
X210225000Y-114380000D01*
%TO.C,J6*%
X200940000Y-62040000D02*
X201960000Y-62040000D01*
X200940000Y-66290000D02*
X200940000Y-62040000D01*
X201960000Y-62040000D02*
X201960000Y-63640000D01*
X201960000Y-63640000D02*
X203240000Y-63640000D01*
X202660000Y-69860000D02*
X207340000Y-69860000D01*
X203240000Y-63640000D02*
X203240000Y-60750000D01*
X208040000Y-62040000D02*
X208040000Y-63640000D01*
X208040000Y-63640000D02*
X206760000Y-63640000D01*
X209060000Y-62040000D02*
X208040000Y-62040000D01*
X209060000Y-66290000D02*
X209060000Y-62040000D01*
%TO.C,J5*%
X111940000Y-61540000D02*
X112960000Y-61540000D01*
X111940000Y-65790000D02*
X111940000Y-61540000D01*
X112960000Y-61540000D02*
X112960000Y-63140000D01*
X112960000Y-63140000D02*
X114240000Y-63140000D01*
X113660000Y-69360000D02*
X118340000Y-69360000D01*
X114240000Y-63140000D02*
X114240000Y-60250000D01*
X119040000Y-61540000D02*
X119040000Y-63140000D01*
X119040000Y-63140000D02*
X117760000Y-63140000D01*
X120060000Y-61540000D02*
X119040000Y-61540000D01*
X120060000Y-65790000D02*
X120060000Y-61540000D01*
%TO.C,J4*%
X198440000Y-76540000D02*
X199460000Y-76540000D01*
X198440000Y-80790000D02*
X198440000Y-76540000D01*
X199460000Y-76540000D02*
X199460000Y-78140000D01*
X199460000Y-78140000D02*
X200740000Y-78140000D01*
X200160000Y-84360000D02*
X208840000Y-84360000D01*
X200740000Y-78140000D02*
X200740000Y-75250000D01*
X209540000Y-76540000D02*
X209540000Y-78140000D01*
X209540000Y-78140000D02*
X208260000Y-78140000D01*
X210560000Y-76540000D02*
X209540000Y-76540000D01*
X210560000Y-80790000D02*
X210560000Y-76540000D01*
%TO.C,J3*%
X108090000Y-78790000D02*
X109110000Y-78790000D01*
X108090000Y-83040000D02*
X108090000Y-78790000D01*
X109110000Y-78790000D02*
X109110000Y-80390000D01*
X109110000Y-80390000D02*
X110390000Y-80390000D01*
X109810000Y-86610000D02*
X118490000Y-86610000D01*
X110390000Y-80390000D02*
X110390000Y-77500000D01*
X119190000Y-78790000D02*
X119190000Y-80390000D01*
X119190000Y-80390000D02*
X117910000Y-80390000D01*
X120210000Y-78790000D02*
X119190000Y-78790000D01*
X120210000Y-83040000D02*
X120210000Y-78790000D01*
%TO.C,J2*%
X153880000Y-59225000D02*
X154450000Y-59225000D01*
X153880000Y-59225000D02*
X153880000Y-56465000D01*
X154450000Y-59225000D02*
X154450000Y-60695000D01*
X156070000Y-59225000D02*
X159530000Y-59225000D01*
X161150000Y-59225000D02*
X164610000Y-59225000D01*
X166230000Y-59225000D02*
X169690000Y-59225000D01*
X171880000Y-59225000D02*
X171880000Y-56465000D01*
X154450000Y-56465000D02*
X156990000Y-56465000D01*
X158610000Y-56465000D02*
X162070000Y-56465000D01*
X163690000Y-56465000D02*
X167150000Y-56465000D01*
X168770000Y-56465000D02*
X171880000Y-56465000D01*
X171310000Y-56465000D02*
X171880000Y-56465000D01*
%TO.C,J1*%
X108440000Y-107290000D02*
X109460000Y-107290000D01*
X108440000Y-111540000D02*
X108440000Y-107290000D01*
X109460000Y-107290000D02*
X109460000Y-108890000D01*
X109460000Y-108890000D02*
X110740000Y-108890000D01*
X110160000Y-115110000D02*
X114840000Y-115110000D01*
X110740000Y-108890000D02*
X110740000Y-106000000D01*
X115540000Y-107290000D02*
X115540000Y-108890000D01*
X115540000Y-108890000D02*
X114260000Y-108890000D01*
X116560000Y-107290000D02*
X115540000Y-107290000D01*
X116560000Y-111540000D02*
X116560000Y-107290000D01*
%TO.C,C14*%
X117638748Y-100265000D02*
X118161252Y-100265000D01*
X117638748Y-101735000D02*
X118161252Y-101735000D01*
%TO.C,C13*%
X117638748Y-95775000D02*
X118161252Y-95775000D01*
X117638748Y-97245000D02*
X118161252Y-97245000D01*
%TO.C,C12*%
X117638748Y-91265000D02*
X118161252Y-91265000D01*
X117638748Y-92735000D02*
X118161252Y-92735000D01*
%TO.C,C11*%
X113188748Y-100265000D02*
X113711252Y-100265000D01*
X113188748Y-101735000D02*
X113711252Y-101735000D01*
%TO.C,C10*%
X113188748Y-95775000D02*
X113711252Y-95775000D01*
X113188748Y-97245000D02*
X113711252Y-97245000D01*
%TO.C,C9*%
X113188748Y-91265000D02*
X113711252Y-91265000D01*
X113188748Y-92735000D02*
X113711252Y-92735000D01*
%TO.C,C8*%
X108738748Y-100265000D02*
X109261252Y-100265000D01*
X108738748Y-101735000D02*
X109261252Y-101735000D01*
%TO.C,C7*%
X108738748Y-95775000D02*
X109261252Y-95775000D01*
X108738748Y-97245000D02*
X109261252Y-97245000D01*
%TO.C,C1*%
X108738748Y-91265000D02*
X109261252Y-91265000D01*
X108738748Y-92735000D02*
X109261252Y-92735000D01*
%TD*%
M02*
