M48
; DRILL file KiCad 10.0.1 date 2026-05-05T02:12:04
; FORMAT={-:-/ absolute / metric / decimal}
; #@! TF.CreationDate,2026-05-05T02:12:04+03:00
; #@! TF.GenerationSoftware,Kicad,Pcbnew,10.0.1
; #@! TF.FileFunction,Plated,1,2,PTH
FMAT,2
METRIC
; #@! TA.AperFunction,Plated,PTH,ComponentDrill
T1C0.200
; #@! TA.AperFunction,Plated,PTH,ViaDrill
T2C0.300
; #@! TA.AperFunction,Plated,PTH,ComponentDrill
T3C3.200
%
G90
G05
T1
X159.925Y-95.647
X159.925Y-97.172
X160.688Y-94.885
X160.688Y-96.41
X160.688Y-97.935
X161.45Y-95.647
X161.45Y-97.172
X162.213Y-94.885
X162.213Y-96.41
X162.213Y-97.935
X162.975Y-95.647
X162.975Y-97.172
T2
X113.093Y-97.706
X118.358Y-90.283
X118.552Y-93.415
X124.51Y-71.692
X124.82Y-104.42
X128.684Y-127.112
X138.453Y-121.129
X141.543Y-113.346
X143.531Y-113.003
X144.889Y-101.124
X147.017Y-95.973
X147.325Y-100.441
X147.419Y-118.001
X147.82Y-121.237
X148.203Y-107.295
X148.622Y-96.366
X150.27Y-94.836
X150.46Y-107.726
X151.185Y-95.58
X151.268Y-94.693
X152.954Y-107.683
X155.169Y-106.477
X157.268Y-108.472
X157.618Y-62.096
X159.417Y-61.058
X161.171Y-62.017
X162.051Y-57.853
X162.595Y-108.209
X164.059Y-108.209
X168.397Y-108.834
X168.797Y-61.796
X169.152Y-115.853
X169.758Y-114.22
X171.727Y-114.521
X177.088Y-115.842
X177.088Y-118.45
X194.477Y-106.062
X200.088Y-70.785
X200.461Y-76.02
X207.31Y-113.676
T3
X132.0Y-139.0
X133.0Y-59.0
X188.5Y-58.0
X192.0Y-138.5
M30
