%TF.GenerationSoftware,KiCad,Pcbnew,10.0.1*%
%TF.CreationDate,2026-05-05T02:11:59+03:00*%
%TF.ProjectId,maze_solver_4wd,6d617a65-5f73-46f6-9c76-65725f347764,rev?*%
%TF.SameCoordinates,Original*%
%TF.FileFunction,Copper,L1,Top*%
%TF.FilePolarity,Positive*%
%FSLAX46Y46*%
G04 Gerber Fmt 4.6, Leading zero omitted, Abs format (unit mm)*
G04 Created by KiCad (PCBNEW 10.0.1) date 2026-05-05 02:11:59*
%MOMM*%
%LPD*%
G01*
G04 APERTURE LIST*
G04 Aperture macros list*
%AMRoundRect*
0 Rectangle with rounded corners*
0 $1 Rounding radius*
0 $2 $3 $4 $5 $6 $7 $8 $9 X,Y pos of 4 corners*
0 Add a 4 corners polygon primitive as box body*
4,1,4,$2,$3,$4,$5,$6,$7,$8,$9,$2,$3,0*
0 Add four circle primitives for the rounded corners*
1,1,$1+$1,$2,$3*
1,1,$1+$1,$4,$5*
1,1,$1+$1,$6,$7*
1,1,$1+$1,$8,$9*
0 Add four rect primitives between the rounded corners*
20,1,$1+$1,$2,$3,$4,$5,0*
20,1,$1+$1,$4,$5,$6,$7,0*
20,1,$1+$1,$6,$7,$8,$9,0*
20,1,$1+$1,$8,$9,$2,$3,0*%
G04 Aperture macros list end*
%TA.AperFunction,ComponentPad*%
%ADD10C,6.400000*%
%TD*%
%TA.AperFunction,SMDPad,CuDef*%
%ADD11RoundRect,0.100000X-0.850000X-0.100000X0.850000X-0.100000X0.850000X0.100000X-0.850000X0.100000X0*%
%TD*%
%TA.AperFunction,SMDPad,CuDef*%
%ADD12RoundRect,0.375000X-0.625000X-0.375000X0.625000X-0.375000X0.625000X0.375000X-0.625000X0.375000X0*%
%TD*%
%TA.AperFunction,SMDPad,CuDef*%
%ADD13RoundRect,0.500000X-0.500000X-1.400000X0.500000X-1.400000X0.500000X1.400000X-0.500000X1.400000X0*%
%TD*%
%TA.AperFunction,SMDPad,CuDef*%
%ADD14R,1.500000X0.900000*%
%TD*%
%TA.AperFunction,SMDPad,CuDef*%
%ADD15R,0.900000X1.500000*%
%TD*%
%TA.AperFunction,SMDPad,CuDef*%
%ADD16R,1.050000X1.050000*%
%TD*%
%TA.AperFunction,HeatsinkPad*%
%ADD17C,0.600000*%
%TD*%
%TA.AperFunction,HeatsinkPad*%
%ADD18R,4.200000X4.200000*%
%TD*%
%TA.AperFunction,SMDPad,CuDef*%
%ADD19R,1.700000X1.000000*%
%TD*%
%TA.AperFunction,SMDPad,CuDef*%
%ADD20R,1.000000X0.800000*%
%TD*%
%TA.AperFunction,SMDPad,CuDef*%
%ADD21R,0.700000X1.500000*%
%TD*%
%TA.AperFunction,SMDPad,CuDef*%
%ADD22RoundRect,0.250000X-0.262500X-0.450000X0.262500X-0.450000X0.262500X0.450000X-0.262500X0.450000X0*%
%TD*%
%TA.AperFunction,SMDPad,CuDef*%
%ADD23RoundRect,0.250000X-0.250000X-1.500000X0.250000X-1.500000X0.250000X1.500000X-0.250000X1.500000X0*%
%TD*%
%TA.AperFunction,SMDPad,CuDef*%
%ADD24RoundRect,0.250001X-0.499999X-1.449999X0.499999X-1.449999X0.499999X1.449999X-0.499999X1.449999X0*%
%TD*%
%TA.AperFunction,SMDPad,CuDef*%
%ADD25R,2.510000X1.000000*%
%TD*%
%TA.AperFunction,SMDPad,CuDef*%
%ADD26R,1.000000X2.510000*%
%TD*%
%TA.AperFunction,SMDPad,CuDef*%
%ADD27RoundRect,0.250000X-0.250000X-0.475000X0.250000X-0.475000X0.250000X0.475000X-0.250000X0.475000X0*%
%TD*%
%TA.AperFunction,ViaPad*%
%ADD28C,0.600000*%
%TD*%
%TA.AperFunction,Conductor*%
%ADD29C,0.200000*%
%TD*%
G04 APERTURE END LIST*
D10*
%TO.P,MH4,1*%
%TO.N,N/C*%
X192000000Y-138500000D03*
%TD*%
%TO.P,MH3,1*%
%TO.N,N/C*%
X132000000Y-139000000D03*
%TD*%
%TO.P,MH2,1*%
%TO.N,N/C*%
X188500000Y-58000000D03*
%TD*%
%TO.P,MH1,1*%
%TO.N,N/C*%
X133000000Y-59000000D03*
%TD*%
D11*
%TO.P,U4,1,PWMA_1*%
%TO.N,LEFT_PWM*%
X179000000Y-115850000D03*
%TO.P,U4,2,AIN1_2*%
%TO.N,LEFT_IN1*%
X179000000Y-116500000D03*
%TO.P,U4,3,AIN2_3*%
%TO.N,LEFT_IN2*%
X179000000Y-117150000D03*
%TO.P,U4,4,STBY_4*%
%TO.N,STBY*%
X179000000Y-117800000D03*
%TO.P,U4,5,BIN1_5*%
%TO.N,RIGHT_IN1*%
X179000000Y-118450000D03*
%TO.P,U4,6,BIN2_6*%
%TO.N,RIGHT_IN2*%
X179000000Y-119100000D03*
%TO.P,U4,7,PWMB_7*%
%TO.N,RIGHT_PWM*%
X179000000Y-119750000D03*
%TO.P,U4,8,VCC_8*%
%TO.N,3V3*%
X179000000Y-120400000D03*
%TO.P,U4,9,VM_9*%
%TO.N,VMOTOR*%
X179000000Y-121050000D03*
%TO.P,U4,10,AO1_10*%
%TO.N,MTR_RR_POS*%
X179000000Y-121700000D03*
%TO.P,U4,11,AO2_11*%
%TO.N,MTR_RR_NEG*%
X179000000Y-122350000D03*
%TO.P,U4,12,BO1_12*%
%TO.N,MTR_FR_POS*%
X179000000Y-123000000D03*
%TO.P,U4,13,BO2_13*%
%TO.N,MTR_FR_NEG*%
X186000000Y-123000000D03*
%TO.P,U4,14,GND_14*%
%TO.N,GND*%
X186000000Y-122350000D03*
%TO.P,U4,15*%
%TO.N,N/C*%
X186000000Y-121700000D03*
%TO.P,U4,16*%
X186000000Y-121050000D03*
%TO.P,U4,17*%
X186000000Y-120400000D03*
%TO.P,U4,18*%
X186000000Y-119750000D03*
%TO.P,U4,19*%
X186000000Y-119100000D03*
%TO.P,U4,20*%
X186000000Y-118450000D03*
%TO.P,U4,21*%
X186000000Y-117800000D03*
%TO.P,U4,22*%
X186000000Y-117150000D03*
%TO.P,U4,23*%
X186000000Y-116500000D03*
%TO.P,U4,24*%
X186000000Y-115850000D03*
%TD*%
%TO.P,U3,1,PWMA_1*%
%TO.N,LEFT_PWM*%
X142500000Y-115650000D03*
%TO.P,U3,2,AIN1_2*%
%TO.N,LEFT_IN1*%
X142500000Y-116300000D03*
%TO.P,U3,3,AIN2_3*%
%TO.N,LEFT_IN2*%
X142500000Y-116950000D03*
%TO.P,U3,4,STBY_4*%
%TO.N,STBY*%
X142500000Y-117600000D03*
%TO.P,U3,5,BIN1_5*%
%TO.N,RIGHT_IN1*%
X142500000Y-118250000D03*
%TO.P,U3,6,BIN2_6*%
%TO.N,RIGHT_IN2*%
X142500000Y-118900000D03*
%TO.P,U3,7,PWMB_7*%
%TO.N,RIGHT_PWM*%
X142500000Y-119550000D03*
%TO.P,U3,8,VCC_8*%
%TO.N,3V3*%
X142500000Y-120200000D03*
%TO.P,U3,9,VM_9*%
%TO.N,VMOTOR*%
X142500000Y-120850000D03*
%TO.P,U3,10,AO1_10*%
%TO.N,MTR_RL_POS*%
X142500000Y-121500000D03*
%TO.P,U3,11,AO2_11*%
%TO.N,MTR_RL_NEG*%
X142500000Y-122150000D03*
%TO.P,U3,12,BO1_12*%
%TO.N,MTR_FL_POS*%
X142500000Y-122800000D03*
%TO.P,U3,13,BO2_13*%
%TO.N,MTR_FL_NEG*%
X149500000Y-122800000D03*
%TO.P,U3,14,GND_14*%
%TO.N,GND*%
X149500000Y-122150000D03*
%TO.P,U3,15*%
%TO.N,N/C*%
X149500000Y-121500000D03*
%TO.P,U3,16*%
X149500000Y-120850000D03*
%TO.P,U3,17*%
X149500000Y-120200000D03*
%TO.P,U3,18*%
X149500000Y-119550000D03*
%TO.P,U3,19*%
X149500000Y-118900000D03*
%TO.P,U3,20*%
X149500000Y-118250000D03*
%TO.P,U3,21*%
X149500000Y-117600000D03*
%TO.P,U3,22*%
X149500000Y-116950000D03*
%TO.P,U3,23*%
X149500000Y-116300000D03*
%TO.P,U3,24*%
X149500000Y-115650000D03*
%TD*%
D12*
%TO.P,U2,1,VIN_1*%
%TO.N,VMOTOR*%
X161500000Y-128900000D03*
%TO.P,U2,2,VOUT_2*%
%TO.N,3V3*%
X161500000Y-131200000D03*
D13*
X167800000Y-131200000D03*
D12*
%TO.P,U2,3,GND_3*%
%TO.N,GND*%
X161500000Y-133500000D03*
%TD*%
D14*
%TO.P,U1,1,3V3_1*%
%TO.N,3V3*%
X153380000Y-89070000D03*
%TO.P,U1,2,EN_2*%
%TO.N,EN*%
X153380000Y-90340000D03*
%TO.P,U1,3,GPIO14_3*%
%TO.N,S1_OUT*%
X153380000Y-91610000D03*
%TO.P,U1,4,GPIO32_4*%
%TO.N,S2_OUT*%
X153380000Y-92880000D03*
%TO.P,U1,5,GPIO5_5*%
%TO.N,S3_OUT*%
X153380000Y-94150000D03*
%TO.P,U1,6,GPIO13_6*%
%TO.N,S4_OUT*%
X153380000Y-95420000D03*
%TO.P,U1,7,GPIO4_7*%
%TO.N,S5_OUT*%
X153380000Y-96690000D03*
%TO.P,U1,8,GPIO16_8*%
%TO.N,ENC_LEFT_A*%
X153380000Y-97960000D03*
%TO.P,U1,9,GPIO17_9*%
%TO.N,ENC_LEFT_B*%
X153380000Y-99230000D03*
%TO.P,U1,10,GPIO22_10*%
%TO.N,ENC_RIGHT_A*%
X153380000Y-100500000D03*
%TO.P,U1,11,GPIO23_11*%
%TO.N,ENC_RIGHT_B*%
X153380000Y-101770000D03*
%TO.P,U1,12,GPIO25_12*%
%TO.N,LEFT_PWM*%
X153380000Y-103040000D03*
%TO.P,U1,13,GPIO26_13*%
%TO.N,LEFT_IN1*%
X153380000Y-104310000D03*
%TO.P,U1,14,GPIO27_14*%
%TO.N,LEFT_IN2*%
X153380000Y-105580000D03*
D15*
%TO.P,U1,15,GPIO18_15*%
%TO.N,RIGHT_PWM*%
X156420000Y-106830000D03*
%TO.P,U1,16,GPIO19_16*%
%TO.N,RIGHT_IN1*%
X157690000Y-106830000D03*
%TO.P,U1,17,GPIO21_17*%
%TO.N,RIGHT_IN2*%
X158960000Y-106830000D03*
%TO.P,U1,18,GPIO33_18*%
%TO.N,STBY*%
X160230000Y-106830000D03*
%TO.P,U1,19,GND_19*%
%TO.N,GND*%
X161500000Y-106830000D03*
%TO.P,U1,20,IO0_20*%
%TO.N,IO0*%
X162770000Y-106830000D03*
%TO.P,U1,21,IO1/TX0_21*%
%TO.N,TX0*%
X164040000Y-106830000D03*
%TO.P,U1,22,IO3/RX0_22*%
%TO.N,RX0*%
X165310000Y-106830000D03*
%TO.P,U1,23,GND_23*%
%TO.N,GND*%
X166580000Y-106830000D03*
%TO.P,U1,24*%
%TO.N,N/C*%
X167850000Y-106830000D03*
D14*
%TO.P,U1,25*%
X170880000Y-105580000D03*
%TO.P,U1,26*%
X170880000Y-104310000D03*
%TO.P,U1,27*%
X170880000Y-103040000D03*
%TO.P,U1,28*%
X170880000Y-101770000D03*
%TO.P,U1,29*%
X170880000Y-100500000D03*
%TO.P,U1,30*%
X170880000Y-99230000D03*
%TO.P,U1,31*%
X170880000Y-97960000D03*
%TO.P,U1,32*%
X170880000Y-96690000D03*
%TO.P,U1,33*%
X170880000Y-95420000D03*
%TO.P,U1,34*%
X170880000Y-94150000D03*
%TO.P,U1,35*%
X170880000Y-92880000D03*
%TO.P,U1,36*%
X170880000Y-91610000D03*
%TO.P,U1,37*%
X170880000Y-90340000D03*
%TO.P,U1,38*%
X170880000Y-89070000D03*
D16*
%TO.P,U1,39*%
X159925000Y-94885000D03*
D17*
X159925000Y-95647500D03*
D16*
X159925000Y-96410000D03*
D17*
X159925000Y-97172500D03*
D16*
X159925000Y-97935000D03*
D17*
X160687500Y-94885000D03*
X160687500Y-96410000D03*
X160687500Y-97935000D03*
D16*
X161450000Y-94885000D03*
D17*
X161450000Y-95647500D03*
D16*
X161450000Y-96410000D03*
D18*
X161450000Y-96410000D03*
D17*
X161450000Y-97172500D03*
D16*
X161450000Y-97935000D03*
D17*
X162212500Y-94885000D03*
X162212500Y-96410000D03*
X162212500Y-97935000D03*
D16*
X162975000Y-94885000D03*
D17*
X162975000Y-95647500D03*
D16*
X162975000Y-96410000D03*
D17*
X162975000Y-97172500D03*
D16*
X162975000Y-97935000D03*
%TD*%
D19*
%TO.P,SW3,1,A_1*%
%TO.N,IO0*%
X121000000Y-127200000D03*
X127300000Y-127200000D03*
%TO.P,SW3,2,B_2*%
%TO.N,GND*%
X121000000Y-131000000D03*
X127300000Y-131000000D03*
%TD*%
%TO.P,SW2,1,A_1*%
%TO.N,EN*%
X121000000Y-117700000D03*
X127300000Y-117700000D03*
%TO.P,SW2,2,B_2*%
%TO.N,GND*%
X121000000Y-121500000D03*
X127300000Y-121500000D03*
%TD*%
D20*
%TO.P,SW1,*%
%TO.N,*%
X108850000Y-123390000D03*
X108850000Y-125600000D03*
X116150000Y-123390000D03*
X116150000Y-125600000D03*
D21*
%TO.P,SW1,1,A_1*%
%TO.N,BAT_POS*%
X110250000Y-122740000D03*
%TO.P,SW1,2,B_2*%
%TO.N,VMOTOR*%
X113250000Y-122740000D03*
%TO.P,SW1,3*%
%TO.N,N/C*%
X114750000Y-122740000D03*
%TD*%
D22*
%TO.P,R2,1*%
%TO.N,3V3*%
X145500000Y-102950000D03*
%TO.P,R2,2*%
%TO.N,IO0*%
X147325000Y-102950000D03*
%TD*%
%TO.P,R1,1*%
%TO.N,3V3*%
X145500000Y-98000000D03*
%TO.P,R1,2*%
%TO.N,EN*%
X147325000Y-98000000D03*
%TD*%
D23*
%TO.P,J9,1,M+_1*%
%TO.N,MTR_RR_POS*%
X209150000Y-136250000D03*
%TO.P,J9,2,M-_2*%
%TO.N,MTR_RR_NEG*%
X211150000Y-136250000D03*
D24*
%TO.P,J9,MP*%
%TO.N,N/C*%
X206800000Y-142000000D03*
X213500000Y-142000000D03*
%TD*%
D23*
%TO.P,J8,1,M+_1*%
%TO.N,MTR_RL_POS*%
X111350000Y-136750000D03*
%TO.P,J8,2,M-_2*%
%TO.N,MTR_RL_NEG*%
X113350000Y-136750000D03*
D24*
%TO.P,J8,MP*%
%TO.N,N/C*%
X109000000Y-142500000D03*
X115700000Y-142500000D03*
%TD*%
D25*
%TO.P,J7,1,GND_1*%
%TO.N,GND*%
X207190000Y-100300000D03*
%TO.P,J7,2,3V3_2*%
%TO.N,3V3*%
X210500000Y-102840000D03*
%TO.P,J7,3,EN_3*%
%TO.N,EN*%
X207190000Y-105380000D03*
%TO.P,J7,4,IO0_4*%
%TO.N,IO0*%
X210500000Y-107920000D03*
%TO.P,J7,5,RX_5*%
%TO.N,RX0*%
X207190000Y-110460000D03*
%TO.P,J7,6,TX_6*%
%TO.N,TX0*%
X210500000Y-113000000D03*
%TD*%
D23*
%TO.P,J6,1,M+_1*%
%TO.N,MTR_FR_POS*%
X204000000Y-62500000D03*
%TO.P,J6,2,M-_2*%
%TO.N,MTR_FR_NEG*%
X206000000Y-62500000D03*
D24*
%TO.P,J6,MP*%
%TO.N,N/C*%
X201650000Y-68250000D03*
X208350000Y-68250000D03*
%TD*%
D23*
%TO.P,J5,1,M+_1*%
%TO.N,MTR_FL_POS*%
X115000000Y-62000000D03*
%TO.P,J5,2,M-_2*%
%TO.N,MTR_FL_NEG*%
X117000000Y-62000000D03*
D24*
%TO.P,J5,MP*%
%TO.N,N/C*%
X112650000Y-67750000D03*
X119350000Y-67750000D03*
%TD*%
D23*
%TO.P,J4,1,VCC_1*%
%TO.N,3V3*%
X201500000Y-77000000D03*
%TO.P,J4,2,GND_2*%
%TO.N,GND*%
X203500000Y-77000000D03*
%TO.P,J4,3,ENC_A_3*%
%TO.N,ENC_RIGHT_A*%
X205500000Y-77000000D03*
%TO.P,J4,4,ENC_B_4*%
%TO.N,ENC_RIGHT_B*%
X207500000Y-77000000D03*
D24*
%TO.P,J4,MP*%
%TO.N,N/C*%
X199150000Y-82750000D03*
X209850000Y-82750000D03*
%TD*%
D23*
%TO.P,J3,1,VCC_1*%
%TO.N,3V3*%
X111150000Y-79250000D03*
%TO.P,J3,2,GND_2*%
%TO.N,GND*%
X113150000Y-79250000D03*
%TO.P,J3,3,ENC_A_3*%
%TO.N,ENC_LEFT_A*%
X115150000Y-79250000D03*
%TO.P,J3,4,ENC_B_4*%
%TO.N,ENC_LEFT_B*%
X117150000Y-79250000D03*
D24*
%TO.P,J3,MP*%
%TO.N,N/C*%
X108800000Y-85000000D03*
X119500000Y-85000000D03*
%TD*%
D26*
%TO.P,J2,1,VCC_1*%
%TO.N,3V3*%
X155260000Y-59500000D03*
%TO.P,J2,2,GND_2*%
%TO.N,GND*%
X157800000Y-56190000D03*
%TO.P,J2,3,OUT1_3*%
%TO.N,S1_OUT*%
X160340000Y-59500000D03*
%TO.P,J2,4,OUT2_4*%
%TO.N,S2_OUT*%
X162880000Y-56190000D03*
%TO.P,J2,5,OUT3_5*%
%TO.N,S3_OUT*%
X165420000Y-59500000D03*
%TO.P,J2,6,OUT4_6*%
%TO.N,S4_OUT*%
X167960000Y-56190000D03*
%TO.P,J2,7,OUT5_7*%
%TO.N,S5_OUT*%
X170500000Y-59500000D03*
%TD*%
D23*
%TO.P,J1,1,BAT+_1*%
%TO.N,BAT_POS*%
X111500000Y-107750000D03*
%TO.P,J1,2,BAT-_2*%
%TO.N,GND*%
X113500000Y-107750000D03*
D24*
%TO.P,J1,MP*%
%TO.N,N/C*%
X109150000Y-113500000D03*
X115850000Y-113500000D03*
%TD*%
D27*
%TO.P,C14,1*%
%TO.N,GND*%
X116950000Y-101000000D03*
%TO.P,C14,2*%
%TO.N,VMOTOR*%
X118850000Y-101000000D03*
%TD*%
%TO.P,C13,1*%
%TO.N,GND*%
X116950000Y-96510000D03*
%TO.P,C13,2*%
%TO.N,3V3*%
X118850000Y-96510000D03*
%TD*%
%TO.P,C12,1*%
%TO.N,GND*%
X116950000Y-92000000D03*
%TO.P,C12,2*%
%TO.N,VMOTOR*%
X118850000Y-92000000D03*
%TD*%
%TO.P,C11,1*%
%TO.N,GND*%
X112500000Y-101000000D03*
%TO.P,C11,2*%
%TO.N,3V3*%
X114400000Y-101000000D03*
%TD*%
%TO.P,C10,1*%
%TO.N,GND*%
X112500000Y-96510000D03*
%TO.P,C10,2*%
%TO.N,EN*%
X114400000Y-96510000D03*
%TD*%
%TO.P,C9,1*%
%TO.N,GND*%
X112500000Y-92000000D03*
%TO.P,C9,2*%
%TO.N,3V3*%
X114400000Y-92000000D03*
%TD*%
%TO.P,C8,1*%
%TO.N,GND*%
X108050000Y-101000000D03*
%TO.P,C8,2*%
%TO.N,3V3*%
X109950000Y-101000000D03*
%TD*%
%TO.P,C7,1*%
%TO.N,GND*%
X108050000Y-96510000D03*
%TO.P,C7,2*%
%TO.N,3V3*%
X109950000Y-96510000D03*
%TD*%
%TO.P,C1,1*%
%TO.N,GND*%
X108050000Y-92000000D03*
%TO.P,C1,2*%
%TO.N,VMOTOR*%
X109950000Y-92000000D03*
%TD*%
D28*
%TO.N,RIGHT_IN2*%
X143531500Y-113002900D03*
X157267900Y-108472000D03*
%TO.N,RIGHT_IN1*%
X155169200Y-106476800D03*
X177088200Y-118450000D03*
%TO.N,LEFT_IN1*%
X168396700Y-108834100D03*
X177088200Y-115842200D03*
%TO.N,LEFT_IN2*%
X152954000Y-107683500D03*
X171727500Y-114520700D03*
%TO.N,LEFT_PWM*%
X150459700Y-107726200D03*
X169757800Y-114219800D03*
%TO.N,IO0*%
X148203100Y-107295500D03*
X162595000Y-108208700D03*
X141543500Y-113346300D03*
X128684000Y-127111600D03*
%TO.N,TX0*%
X207310500Y-113676300D03*
X164058700Y-108208700D03*
%TO.N,MTR_FL_NEG*%
X147419400Y-118000900D03*
X124510400Y-71691900D03*
%TO.N,S5_OUT*%
X151185300Y-95580200D03*
X168797300Y-61795600D03*
%TO.N,S4_OUT*%
X151268200Y-94693400D03*
X157618200Y-62096500D03*
%TO.N,S1_OUT*%
X159417300Y-61058300D03*
X147016900Y-95973100D03*
%TO.N,S2_OUT*%
X162050800Y-57853400D03*
X148622100Y-96366100D03*
%TO.N,S3_OUT*%
X150269800Y-94835700D03*
X161170900Y-62016700D03*
%TO.N,EN*%
X194477100Y-106061800D03*
X147325000Y-100441000D03*
X144888900Y-101124100D03*
%TO.N,3V3*%
X113093100Y-97706300D03*
X118357800Y-90283300D03*
X200088200Y-70784900D03*
X200460600Y-76020100D03*
%TO.N,GND*%
X138452900Y-121129000D03*
X147819800Y-121236900D03*
X169152300Y-115853300D03*
%TO.N,VMOTOR*%
X118551800Y-93415500D03*
X124820300Y-104419900D03*
%TD*%
%TO.N,GND*%
D29*
X161500000Y-133500000D02*
X160196900Y-132196900D01*
X160196900Y-132196900D02*
X160196900Y-130050000D01*
X160196900Y-130050000D02*
X162376600Y-130050000D01*
X162376600Y-130050000D02*
X162835400Y-129591200D01*
X162835400Y-129591200D02*
X162835400Y-128258800D01*
X162835400Y-128258800D02*
X156726600Y-122150000D01*
X156726600Y-122150000D02*
X149500000Y-122150000D01*
%TO.N,VMOTOR*%
X159000000Y-128900000D02*
X159780200Y-129680200D01*
X159780200Y-129680200D02*
X159780200Y-133804200D01*
X159780200Y-133804200D02*
X160535400Y-134559400D01*
X160535400Y-134559400D02*
X167482400Y-134559400D01*
X167482400Y-134559400D02*
X175474800Y-126567000D01*
X175474800Y-126567000D02*
X175474800Y-123665600D01*
X175474800Y-123665600D02*
X178090400Y-121050000D01*
X178090400Y-121050000D02*
X179000000Y-121050000D01*
%TO.N,RIGHT_IN2*%
X170178300Y-119100000D02*
X179000000Y-119100000D01*
X158960000Y-107881700D02*
X170178300Y-119100000D01*
X158960000Y-106830000D02*
X158960000Y-107881700D01*
X141240000Y-115294400D02*
X143531500Y-113002900D01*
X141240000Y-118545800D02*
X141240000Y-115294400D01*
X141594200Y-118900000D02*
X141240000Y-118545800D01*
X142500000Y-118900000D02*
X141594200Y-118900000D01*
X157858200Y-107881700D02*
X157267900Y-108472000D01*
X158960000Y-107881700D02*
X157858200Y-107881700D01*
%TO.N,RIGHT_PWM*%
X156420000Y-106830000D02*
X156420000Y-107881700D01*
X143374100Y-119550000D02*
X142500000Y-119550000D01*
X155042400Y-107881700D02*
X143374100Y-119550000D01*
X156420000Y-107881700D02*
X155042400Y-107881700D01*
X167695100Y-119750000D02*
X179000000Y-119750000D01*
X156420000Y-108474900D02*
X167695100Y-119750000D01*
X156420000Y-107881700D02*
X156420000Y-108474900D01*
%TO.N,RIGHT_IN1*%
X157690000Y-106830000D02*
X157690000Y-105778300D01*
X177088200Y-118450000D02*
X179000000Y-118450000D01*
X155773000Y-105778300D02*
X157690000Y-105778300D01*
X155169200Y-106382100D02*
X155773000Y-105778300D01*
X155169200Y-106476800D02*
X155169200Y-106382100D01*
X155169200Y-106888800D02*
X155169200Y-106476800D01*
X143808000Y-118250000D02*
X155169200Y-106888800D01*
X142500000Y-118250000D02*
X143808000Y-118250000D01*
%TO.N,LEFT_IN1*%
X153380000Y-104310000D02*
X152328300Y-104310000D01*
X151447100Y-105191200D02*
X152328300Y-104310000D01*
X151447100Y-108221600D02*
X151447100Y-105191200D01*
X143368700Y-116300000D02*
X151447100Y-108221600D01*
X142500000Y-116300000D02*
X143368700Y-116300000D01*
X177746000Y-116500000D02*
X179000000Y-116500000D01*
X177088200Y-115842200D02*
X177746000Y-116500000D01*
X168648900Y-108581900D02*
X168396700Y-108834100D01*
X168648900Y-105995800D02*
X168648900Y-108581900D01*
X166963100Y-104310000D02*
X168648900Y-105995800D01*
X153380000Y-104310000D02*
X166963100Y-104310000D01*
%TO.N,LEFT_IN2*%
X153380000Y-105580000D02*
X152328300Y-105580000D01*
X174356800Y-117150000D02*
X171727500Y-114520700D01*
X179000000Y-117150000D02*
X174356800Y-117150000D01*
X152328300Y-105580000D02*
X152328300Y-107683500D01*
X143377300Y-116950000D02*
X142500000Y-116950000D01*
X152328300Y-107999000D02*
X143377300Y-116950000D01*
X152328300Y-107683500D02*
X152328300Y-107999000D01*
X152328300Y-107683500D02*
X152954000Y-107683500D01*
%TO.N,LEFT_PWM*%
X153380000Y-103040000D02*
X152328300Y-103040000D01*
X177069000Y-113919000D02*
X179000000Y-115850000D01*
X170058600Y-113919000D02*
X177069000Y-113919000D01*
X169757800Y-114219800D02*
X170058600Y-113919000D01*
X150459700Y-104908600D02*
X150459700Y-107726200D01*
X152328300Y-103040000D02*
X150459700Y-104908600D01*
X150423800Y-107726200D02*
X142500000Y-115650000D01*
X150459700Y-107726200D02*
X150423800Y-107726200D01*
%TO.N,STBY*%
X160230000Y-106830000D02*
X160230000Y-107881700D01*
X170148300Y-117800000D02*
X179000000Y-117800000D01*
X160230000Y-107881700D02*
X170148300Y-117800000D01*
X160230000Y-106830000D02*
X160230000Y-105778300D01*
X143368700Y-117600000D02*
X142500000Y-117600000D01*
X152683500Y-108285200D02*
X143368700Y-117600000D01*
X153204800Y-108285200D02*
X152683500Y-108285200D01*
X153557300Y-107932700D02*
X153204800Y-108285200D01*
X153557300Y-107237900D02*
X153557300Y-107932700D01*
X155472900Y-105322300D02*
X153557300Y-107237900D01*
X159774000Y-105322300D02*
X155472900Y-105322300D01*
X160230000Y-105778300D02*
X159774000Y-105322300D01*
%TO.N,MTR_RR_NEG*%
X178095800Y-122350000D02*
X179000000Y-122350000D01*
X177726700Y-122719100D02*
X178095800Y-122350000D01*
X177726700Y-123260600D02*
X177726700Y-122719100D01*
X187989700Y-133523600D02*
X177726700Y-123260600D01*
X208957700Y-133523600D02*
X187989700Y-133523600D01*
X211150000Y-135715900D02*
X208957700Y-133523600D01*
X211150000Y-136250000D02*
X211150000Y-135715900D01*
%TO.N,MTR_RR_POS*%
X178035300Y-121700000D02*
X179000000Y-121700000D01*
X177272400Y-122462900D02*
X178035300Y-121700000D01*
X177272400Y-123374300D02*
X177272400Y-122462900D01*
X188107000Y-134208900D02*
X177272400Y-123374300D01*
X207108900Y-134208900D02*
X188107000Y-134208900D01*
X209150000Y-136250000D02*
X207108900Y-134208900D01*
%TO.N,MTR_RL_POS*%
X143448800Y-121500000D02*
X142500000Y-121500000D01*
X144200600Y-122251800D02*
X143448800Y-121500000D01*
X144200600Y-123277100D02*
X144200600Y-122251800D01*
X131979400Y-135498300D02*
X144200600Y-123277100D01*
X124603300Y-135498300D02*
X131979400Y-135498300D01*
X121239400Y-138862200D02*
X124603300Y-135498300D01*
X112925700Y-138862200D02*
X121239400Y-138862200D01*
X111350000Y-137286500D02*
X112925700Y-138862200D01*
X111350000Y-136750000D02*
X111350000Y-137286500D01*
%TO.N,MTR_RL_NEG*%
X117452600Y-132647400D02*
X113350000Y-136750000D01*
X134246800Y-132647400D02*
X117452600Y-132647400D01*
X143794900Y-123099300D02*
X134246800Y-132647400D01*
X143794900Y-122563600D02*
X143794900Y-123099300D01*
X143381300Y-122150000D02*
X143794900Y-122563600D01*
X142500000Y-122150000D02*
X143381300Y-122150000D01*
%TO.N,IO0*%
X127300000Y-127200000D02*
X121000000Y-127200000D01*
X210500000Y-107920000D02*
X208943300Y-107920000D01*
X147325000Y-106417400D02*
X148203100Y-107295500D01*
X147325000Y-102950000D02*
X147325000Y-106417400D01*
X162770000Y-108035300D02*
X162770000Y-106830000D01*
X166021100Y-111286400D02*
X162770000Y-108035300D01*
X208583600Y-111286400D02*
X166021100Y-111286400D01*
X208943300Y-110926700D02*
X208583600Y-111286400D01*
X208943300Y-107920000D02*
X208943300Y-110926700D01*
X162596600Y-108208700D02*
X162595000Y-108208700D01*
X162770000Y-108035300D02*
X162596600Y-108208700D01*
X142152300Y-113346300D02*
X141543500Y-113346300D01*
X148203100Y-107295500D02*
X142152300Y-113346300D01*
X128540100Y-127111600D02*
X128451700Y-127200000D01*
X128684000Y-127111600D02*
X128540100Y-127111600D01*
X127300000Y-127200000D02*
X128451700Y-127200000D01*
%TO.N,RX0*%
X165310000Y-106830000D02*
X165310000Y-107881700D01*
X167789000Y-110460000D02*
X207190000Y-110460000D01*
X165310000Y-107981000D02*
X167789000Y-110460000D01*
X165310000Y-107881700D02*
X165310000Y-107981000D01*
%TO.N,TX0*%
X210500000Y-113000000D02*
X208943300Y-113000000D01*
X208267000Y-113676300D02*
X207310500Y-113676300D01*
X208943300Y-113000000D02*
X208267000Y-113676300D01*
X164040000Y-108190000D02*
X164058700Y-108208700D01*
X164040000Y-106830000D02*
X164040000Y-108190000D01*
%TO.N,MTR_FR_POS*%
X204000000Y-61945600D02*
X204000000Y-62500000D01*
X205507000Y-60438600D02*
X204000000Y-61945600D01*
X206478600Y-60438600D02*
X205507000Y-60438600D01*
X212895500Y-66855500D02*
X206478600Y-60438600D01*
X212895500Y-112812900D02*
X212895500Y-66855500D01*
X202157000Y-123551400D02*
X212895500Y-112812900D01*
X179551400Y-123551400D02*
X202157000Y-123551400D01*
X179000000Y-123000000D02*
X179551400Y-123551400D01*
%TO.N,MTR_FR_NEG*%
X188682100Y-123000000D02*
X186000000Y-123000000D01*
X199375700Y-112306400D02*
X188682100Y-123000000D01*
X208882500Y-112306400D02*
X199375700Y-112306400D01*
X212479000Y-108709900D02*
X208882500Y-112306400D01*
X212479000Y-68979000D02*
X212479000Y-108709900D01*
X206000000Y-62500000D02*
X212479000Y-68979000D01*
%TO.N,MTR_FL_NEG*%
X124510400Y-69510400D02*
X117000000Y-62000000D01*
X124510400Y-71691900D02*
X124510400Y-69510400D01*
X147218000Y-118202300D02*
X147419400Y-118000900D01*
X147218000Y-121492600D02*
X147218000Y-118202300D01*
X148525400Y-122800000D02*
X147218000Y-121492600D01*
X149500000Y-122800000D02*
X148525400Y-122800000D01*
%TO.N,MTR_FL_POS*%
X133054300Y-132245700D02*
X142500000Y-122800000D01*
X119660200Y-132245700D02*
X133054300Y-132245700D01*
X112355200Y-124940700D02*
X119660200Y-132245700D01*
X112355200Y-106015600D02*
X112355200Y-124940700D01*
X111103000Y-104763400D02*
X112355200Y-106015600D01*
X110264700Y-104763400D02*
X111103000Y-104763400D01*
X107238700Y-101737400D02*
X110264700Y-104763400D01*
X107238700Y-69761300D02*
X107238700Y-101737400D01*
X115000000Y-62000000D02*
X107238700Y-69761300D01*
%TO.N,ENC_RIGHT_B*%
X153380000Y-101770000D02*
X154431700Y-101770000D01*
X158719000Y-97482700D02*
X154431700Y-101770000D01*
X158719000Y-94455300D02*
X158719000Y-97482700D01*
X160238100Y-92936200D02*
X158719000Y-94455300D01*
X165387100Y-92936200D02*
X160238100Y-92936200D01*
X170005000Y-88318300D02*
X165387100Y-92936200D01*
X187328200Y-88318300D02*
X170005000Y-88318300D01*
X199799300Y-75847200D02*
X187328200Y-88318300D01*
X199799300Y-75771000D02*
X199799300Y-75847200D01*
X200151900Y-75418400D02*
X199799300Y-75771000D01*
X200304300Y-75418400D02*
X200151900Y-75418400D01*
X200816700Y-74906000D02*
X200304300Y-75418400D01*
X203951500Y-74906000D02*
X200816700Y-74906000D01*
X204697300Y-75651800D02*
X203951500Y-74906000D01*
X204697300Y-78743600D02*
X204697300Y-75651800D01*
X205015700Y-79062000D02*
X204697300Y-78743600D01*
X206018000Y-79062000D02*
X205015700Y-79062000D01*
X207500000Y-77580000D02*
X206018000Y-79062000D01*
X207500000Y-77000000D02*
X207500000Y-77580000D01*
%TO.N,ENC_RIGHT_A*%
X153380000Y-100500000D02*
X154431700Y-100500000D01*
X157586200Y-97345500D02*
X154431700Y-100500000D01*
X157586200Y-95020100D02*
X157586200Y-97345500D01*
X164689700Y-87916600D02*
X157586200Y-95020100D01*
X187085700Y-87916600D02*
X164689700Y-87916600D01*
X200509600Y-74492700D02*
X187085700Y-87916600D01*
X204118000Y-74492700D02*
X200509600Y-74492700D01*
X205500000Y-75874700D02*
X204118000Y-74492700D01*
X205500000Y-77000000D02*
X205500000Y-75874700D01*
%TO.N,ENC_LEFT_A*%
X115150000Y-79826000D02*
X115150000Y-79250000D01*
X117616000Y-82292000D02*
X115150000Y-79826000D01*
X119557100Y-82292000D02*
X117616000Y-82292000D01*
X125583400Y-88318300D02*
X119557100Y-82292000D01*
X154260600Y-88318300D02*
X125583400Y-88318300D01*
X154431700Y-88489400D02*
X154260600Y-88318300D01*
X154431700Y-97960000D02*
X154431700Y-88489400D01*
X153380000Y-97960000D02*
X154431700Y-97960000D01*
%TO.N,ENC_LEFT_B*%
X153380000Y-99230000D02*
X154431700Y-99230000D01*
X125816600Y-87916600D02*
X117150000Y-79250000D01*
X154426900Y-87916600D02*
X125816600Y-87916600D01*
X154833400Y-88323100D02*
X154426900Y-87916600D01*
X154833400Y-98828300D02*
X154833400Y-88323100D01*
X154431700Y-99230000D02*
X154833400Y-98828300D01*
%TO.N,S5_OUT*%
X169536200Y-61056700D02*
X170500000Y-61056700D01*
X168797300Y-61795600D02*
X169536200Y-61056700D01*
X170500000Y-59500000D02*
X170500000Y-61056700D01*
X152295100Y-96690000D02*
X151185300Y-95580200D01*
X153380000Y-96690000D02*
X152295100Y-96690000D01*
%TO.N,S4_OUT*%
X167960000Y-56190000D02*
X167960000Y-57746700D01*
X151994800Y-95420000D02*
X151268200Y-94693400D01*
X153380000Y-95420000D02*
X151994800Y-95420000D01*
X160240300Y-62096500D02*
X157618200Y-62096500D01*
X164590100Y-57746700D02*
X160240300Y-62096500D01*
X167960000Y-57746700D02*
X164590100Y-57746700D01*
%TO.N,S1_OUT*%
X160340000Y-59500000D02*
X160340000Y-61056700D01*
X159418900Y-61056700D02*
X159417300Y-61058300D01*
X160340000Y-61056700D02*
X159418900Y-61056700D01*
X152034800Y-91610000D02*
X153380000Y-91610000D01*
X148020300Y-95624500D02*
X152034800Y-91610000D01*
X148020300Y-97201300D02*
X148020300Y-95624500D01*
X148140200Y-97321200D02*
X148020300Y-97201300D01*
X148140200Y-100509900D02*
X148140200Y-97321200D01*
X147586900Y-101063200D02*
X148140200Y-100509900D01*
X147083900Y-101063200D02*
X147586900Y-101063200D01*
X146502900Y-100482200D02*
X147083900Y-101063200D01*
X146502900Y-96487100D02*
X146502900Y-100482200D01*
X147016900Y-95973100D02*
X146502900Y-96487100D01*
%TO.N,S2_OUT*%
X162157500Y-57746700D02*
X162050800Y-57853400D01*
X162880000Y-57746700D02*
X162157500Y-57746700D01*
X162880000Y-56190000D02*
X162880000Y-57746700D01*
X148582800Y-96326800D02*
X148622100Y-96366100D01*
X148582800Y-95630000D02*
X148582800Y-96326800D01*
X151332800Y-92880000D02*
X148582800Y-95630000D01*
X153380000Y-92880000D02*
X151332800Y-92880000D01*
%TO.N,S3_OUT*%
X151013900Y-94091600D02*
X150269800Y-94835700D01*
X152269900Y-94091600D02*
X151013900Y-94091600D01*
X152328300Y-94150000D02*
X152269900Y-94091600D01*
X162130900Y-61056700D02*
X165420000Y-61056700D01*
X161170900Y-62016700D02*
X162130900Y-61056700D01*
X165420000Y-59500000D02*
X165420000Y-61056700D01*
X153380000Y-94150000D02*
X152328300Y-94150000D01*
%TO.N,BAT_POS*%
X111500000Y-120438300D02*
X110250000Y-121688300D01*
X111500000Y-107750000D02*
X111500000Y-120438300D01*
X110250000Y-122740000D02*
X110250000Y-121688300D01*
%TO.N,EN*%
X121000000Y-117700000D02*
X119848300Y-117700000D01*
X153380000Y-90340000D02*
X152328300Y-90340000D01*
X127300000Y-117700000D02*
X121000000Y-117700000D01*
X204951500Y-106061800D02*
X194477100Y-106061800D01*
X205633300Y-105380000D02*
X204951500Y-106061800D01*
X207190000Y-105380000D02*
X205633300Y-105380000D01*
X147618600Y-95049700D02*
X152328300Y-90340000D01*
X147618600Y-97706400D02*
X147618600Y-95049700D01*
X147325000Y-98000000D02*
X147618600Y-97706400D01*
X147325000Y-98000000D02*
X147325000Y-100441000D01*
X117900000Y-101621800D02*
X116955400Y-102566400D01*
X117900000Y-100408600D02*
X117900000Y-101621800D01*
X118337200Y-99971400D02*
X117900000Y-100408600D01*
X143736200Y-99971400D02*
X118337200Y-99971400D01*
X144888900Y-101124100D02*
X143736200Y-99971400D01*
X119848300Y-105459400D02*
X116955400Y-102566400D01*
X119848300Y-117700000D02*
X119848300Y-105459400D01*
X115540300Y-97650300D02*
X114400000Y-96510000D01*
X115540300Y-101151400D02*
X115540300Y-97650300D01*
X116955400Y-102566400D02*
X115540300Y-101151400D01*
%TO.N,3V3*%
X109950000Y-96510000D02*
X109950000Y-99947700D01*
X109950000Y-99947700D02*
X109950000Y-101000000D01*
X210500000Y-102840000D02*
X208943300Y-102840000D01*
X153380000Y-89070000D02*
X152328300Y-89070000D01*
X145500000Y-98000000D02*
X145500000Y-95898300D01*
X145500000Y-95898300D02*
X152328300Y-89070000D01*
X119963900Y-95898300D02*
X119712800Y-95647200D01*
X145500000Y-95898300D02*
X119963900Y-95898300D01*
X115876400Y-90523600D02*
X114400000Y-92000000D01*
X143382900Y-120200000D02*
X142500000Y-120200000D01*
X148444800Y-115138100D02*
X143382900Y-120200000D01*
X150539100Y-115138100D02*
X148444800Y-115138100D01*
X163275200Y-127874200D02*
X150539100Y-115138100D01*
X163275200Y-131200000D02*
X163275200Y-127874200D01*
X167800000Y-131200000D02*
X163275200Y-131200000D01*
X163275200Y-131200000D02*
X161500000Y-131200000D01*
X167800000Y-130729200D02*
X167800000Y-131200000D01*
X178129200Y-120400000D02*
X167800000Y-130729200D01*
X179000000Y-120400000D02*
X178129200Y-120400000D01*
X145500000Y-98000000D02*
X145500000Y-102950000D01*
X155260000Y-59500000D02*
X155260000Y-61056700D01*
X111150000Y-79783600D02*
X111150000Y-79250000D01*
X113174000Y-81807500D02*
X111150000Y-79783600D01*
X114150000Y-80831500D02*
X113174000Y-81807500D01*
X114150000Y-77690000D02*
X114150000Y-80831500D01*
X115234500Y-76605500D02*
X114150000Y-77690000D01*
X120959700Y-76605500D02*
X115234500Y-76605500D01*
X122753300Y-74811900D02*
X120959700Y-76605500D01*
X127696900Y-74811900D02*
X122753300Y-74811900D01*
X141452100Y-61056700D02*
X127696900Y-74811900D01*
X155260000Y-61056700D02*
X141452100Y-61056700D01*
X113173900Y-87821100D02*
X115876400Y-90523600D01*
X113173900Y-81807600D02*
X113173900Y-87821100D01*
X113174000Y-81807500D02*
X113173900Y-81807600D01*
X119712800Y-95647200D02*
X118850000Y-96510000D01*
X141609800Y-120200000D02*
X142500000Y-120200000D01*
X140834400Y-119424600D02*
X141609800Y-120200000D01*
X140834400Y-107615600D02*
X140834400Y-119424600D01*
X145500000Y-102950000D02*
X140834400Y-107615600D01*
X118357800Y-90523600D02*
X118357800Y-90283300D01*
X118937800Y-90523600D02*
X118357800Y-90523600D01*
X119712800Y-91298600D02*
X118937800Y-90523600D01*
X119712800Y-95647200D02*
X119712800Y-91298600D01*
X118357800Y-90523600D02*
X115876400Y-90523600D01*
X113093100Y-97706300D02*
X113093100Y-99947700D01*
X109950000Y-99947700D02*
X113093100Y-99947700D01*
X113347700Y-99947700D02*
X114400000Y-101000000D01*
X113093100Y-99947700D02*
X113347700Y-99947700D01*
X192001500Y-62698200D02*
X200088200Y-70784900D01*
X156901500Y-62698200D02*
X192001500Y-62698200D01*
X155260000Y-61056700D02*
X156901500Y-62698200D01*
X208943300Y-93074800D02*
X208943300Y-102840000D01*
X208316900Y-92448400D02*
X208943300Y-93074800D01*
X208316900Y-75260500D02*
X208316900Y-92448400D01*
X203841300Y-70784900D02*
X208316900Y-75260500D01*
X200088200Y-70784900D02*
X203841300Y-70784900D01*
X200520100Y-76020100D02*
X201500000Y-77000000D01*
X200460600Y-76020100D02*
X200520100Y-76020100D01*
%TO.N,GND*%
X108050000Y-96510000D02*
X108050000Y-101000000D01*
X108050000Y-92000000D02*
X108050000Y-95446700D01*
X108050000Y-95446700D02*
X108050000Y-96510000D01*
X116950000Y-96510000D02*
X116950000Y-101000000D01*
X207190000Y-100300000D02*
X205633300Y-100300000D01*
X113500000Y-104140800D02*
X111429600Y-102070400D01*
X113500000Y-107750000D02*
X113500000Y-104140800D01*
X112500000Y-101000000D02*
X111429600Y-102070400D01*
X109120400Y-102070400D02*
X108050000Y-101000000D01*
X111429600Y-102070400D02*
X109120400Y-102070400D01*
X157800000Y-56190000D02*
X157800000Y-57746700D01*
X121000000Y-121500000D02*
X119848300Y-121500000D01*
X127300000Y-121500000D02*
X121000000Y-121500000D01*
X127300000Y-131000000D02*
X121000000Y-131000000D01*
X161500000Y-106830000D02*
X161500000Y-105778300D01*
X166580000Y-106830000D02*
X166580000Y-105778300D01*
X115873300Y-93076700D02*
X116950000Y-92000000D01*
X113576700Y-93076700D02*
X115873300Y-93076700D01*
X112500000Y-92000000D02*
X113576700Y-93076700D01*
X111418900Y-90918900D02*
X110300500Y-90918900D01*
X112500000Y-92000000D02*
X111418900Y-90918900D01*
X109131100Y-90918900D02*
X108050000Y-92000000D01*
X110300500Y-90918900D02*
X109131100Y-90918900D01*
X121000000Y-131000000D02*
X119848300Y-131000000D01*
X119848300Y-121500000D02*
X119848300Y-131000000D01*
X113500000Y-115151700D02*
X113500000Y-107750000D01*
X119848300Y-121500000D02*
X113500000Y-115151700D01*
X138322700Y-121129000D02*
X138452900Y-121129000D01*
X128451700Y-131000000D02*
X138322700Y-121129000D01*
X127300000Y-131000000D02*
X128451700Y-131000000D01*
X161500000Y-105778300D02*
X166580000Y-105778300D01*
X147819800Y-121338500D02*
X147819800Y-121236900D01*
X148631300Y-122150000D02*
X147819800Y-121338500D01*
X149500000Y-122150000D02*
X148631300Y-122150000D01*
X169152300Y-115853300D02*
X169152300Y-113919000D01*
X161500000Y-108009200D02*
X161500000Y-106830000D01*
X167409800Y-113919000D02*
X161500000Y-108009200D01*
X169152300Y-113919000D02*
X167409800Y-113919000D01*
X203500000Y-98166700D02*
X203500000Y-77000000D01*
X205633300Y-100300000D02*
X203500000Y-98166700D01*
X207190000Y-101964500D02*
X207190000Y-100300000D01*
X212056700Y-106831200D02*
X207190000Y-101964500D01*
X212056700Y-108564200D02*
X212056700Y-106831200D01*
X208716200Y-111904700D02*
X212056700Y-108564200D01*
X198787900Y-111904700D02*
X208716200Y-111904700D01*
X188342600Y-122350000D02*
X198787900Y-111904700D01*
X186000000Y-122350000D02*
X188342600Y-122350000D01*
X169554000Y-113517300D02*
X169152300Y-113919000D01*
X178236700Y-113517300D02*
X169554000Y-113517300D01*
X182537800Y-117818400D02*
X178236700Y-113517300D01*
X182537800Y-119819500D02*
X182537800Y-117818400D01*
X185068300Y-122350000D02*
X182537800Y-119819500D01*
X186000000Y-122350000D02*
X185068300Y-122350000D01*
X112225300Y-77197300D02*
X113150000Y-78122000D01*
X110626000Y-77197300D02*
X112225300Y-77197300D01*
X110300500Y-77522800D02*
X110626000Y-77197300D01*
X110300500Y-90918900D02*
X110300500Y-77522800D01*
X116903100Y-74368900D02*
X113150000Y-78122000D01*
X123054900Y-74368900D02*
X116903100Y-74368900D01*
X139677100Y-57746700D02*
X123054900Y-74368900D01*
X157800000Y-57746700D02*
X139677100Y-57746700D01*
X113150000Y-78122000D02*
X113150000Y-79250000D01*
X111436700Y-95446700D02*
X108050000Y-95446700D01*
X112500000Y-96510000D02*
X111436700Y-95446700D01*
X115907200Y-95467200D02*
X116950000Y-96510000D01*
X113542800Y-95467200D02*
X115907200Y-95467200D01*
X112500000Y-96510000D02*
X113542800Y-95467200D01*
%TO.N,VMOTOR*%
X113250000Y-122740000D02*
X113250000Y-123791700D01*
X161500000Y-128900000D02*
X159780200Y-128900000D01*
X128609400Y-131844000D02*
X139336800Y-121116600D01*
X119898000Y-131844000D02*
X128609400Y-131844000D01*
X112967600Y-124913600D02*
X119898000Y-131844000D01*
X112967600Y-124074100D02*
X112967600Y-124913600D01*
X113250000Y-123791700D02*
X112967600Y-124074100D01*
X139884400Y-120850000D02*
X142500000Y-120850000D01*
X139617700Y-121116700D02*
X139884400Y-120850000D01*
X139336800Y-121116700D02*
X139617700Y-121116700D01*
X139336800Y-121116600D02*
X139336800Y-121116700D01*
X144618300Y-120850000D02*
X142500000Y-120850000D01*
X152668300Y-128900000D02*
X144618300Y-120850000D01*
X159780200Y-128900000D02*
X152668300Y-128900000D01*
X122269900Y-104419900D02*
X118850000Y-101000000D01*
X124820300Y-104419900D02*
X122269900Y-104419900D01*
X124820300Y-106600200D02*
X139336800Y-121116600D01*
X124820300Y-104419900D02*
X124820300Y-106600200D01*
X117993200Y-92856800D02*
X118551800Y-93415500D01*
X117357200Y-93492800D02*
X117993200Y-92856800D01*
X111442800Y-93492800D02*
X117357200Y-93492800D01*
X109950000Y-92000000D02*
X111442800Y-93492800D01*
X117993200Y-92856800D02*
X118850000Y-92000000D01*
%TD*%
%TA.AperFunction,Conductor*%
%TO.N,GND*%
G36*
X166242540Y-131820185D02*
G01*
X166288295Y-131872989D01*
X166299501Y-131924500D01*
X166299501Y-132658034D01*
X166310113Y-132777415D01*
X166366089Y-132973045D01*
X166366090Y-132973047D01*
X166366091Y-132973049D01*
X166460302Y-133153407D01*
X166461508Y-133154886D01*
X166588890Y-133311109D01*
X166666021Y-133374000D01*
X166746593Y-133439698D01*
X166926951Y-133533909D01*
X167122582Y-133589886D01*
X167241963Y-133600500D01*
X167292702Y-133600499D01*
X167313948Y-133606737D01*
X167336035Y-133608317D01*
X167346815Y-133616387D01*
X167359740Y-133620182D01*
X167374243Y-133636919D01*
X167391968Y-133650188D01*
X167396674Y-133662805D01*
X167405495Y-133672985D01*
X167408646Y-133694903D01*
X167416386Y-133715652D01*
X167413523Y-133728813D01*
X167415440Y-133742144D01*
X167406242Y-133762285D01*
X167401535Y-133783925D01*
X167388264Y-133801651D01*
X167386416Y-133805700D01*
X167380384Y-133812179D01*
X167269985Y-133922580D01*
X167208662Y-133956066D01*
X167182303Y-133958900D01*
X163124000Y-133958900D01*
X163056961Y-133939215D01*
X163011206Y-133886411D01*
X163000000Y-133834900D01*
X163000000Y-133750000D01*
X161624000Y-133750000D01*
X161556961Y-133730315D01*
X161511206Y-133677511D01*
X161500000Y-133626000D01*
X161500000Y-133374000D01*
X161519685Y-133306961D01*
X161572489Y-133261206D01*
X161624000Y-133250000D01*
X163000000Y-133250000D01*
X163000000Y-133048903D01*
X162997102Y-133006175D01*
X162951168Y-132821476D01*
X162866609Y-132650977D01*
X162866607Y-132650974D01*
X162747367Y-132502633D01*
X162747366Y-132502632D01*
X162678115Y-132446967D01*
X162638196Y-132389624D01*
X162635616Y-132319802D01*
X162671194Y-132259669D01*
X162678089Y-132253694D01*
X162747722Y-132197722D01*
X162867030Y-132049296D01*
X162951641Y-131878693D01*
X162954628Y-131872671D01*
X162956535Y-131873617D01*
X162992131Y-131825590D01*
X163057478Y-131800860D01*
X163066916Y-131800500D01*
X163196143Y-131800500D01*
X166175501Y-131800500D01*
X166242540Y-131820185D01*
G37*
%TD.AperFunction*%
%TA.AperFunction,Conductor*%
G36*
X111443039Y-100567885D02*
G01*
X111488794Y-100620689D01*
X111500000Y-100672200D01*
X111500000Y-100750000D01*
X112376000Y-100750000D01*
X112443039Y-100769685D01*
X112488794Y-100822489D01*
X112500000Y-100874000D01*
X112500000Y-101000000D01*
X112626000Y-101000000D01*
X112693039Y-101019685D01*
X112738794Y-101072489D01*
X112750000Y-101124000D01*
X112750000Y-102224999D01*
X112799972Y-102224999D01*
X112799986Y-102224998D01*
X112902697Y-102214505D01*
X113069119Y-102159358D01*
X113069124Y-102159356D01*
X113218345Y-102067315D01*
X113342318Y-101943342D01*
X113344165Y-101940348D01*
X113345969Y-101938724D01*
X113346798Y-101937677D01*
X113346976Y-101937818D01*
X113396110Y-101893621D01*
X113465073Y-101882396D01*
X113529156Y-101910236D01*
X113555243Y-101940341D01*
X113557288Y-101943656D01*
X113681344Y-102067712D01*
X113830666Y-102159814D01*
X113997203Y-102214999D01*
X114099991Y-102225500D01*
X114700008Y-102225499D01*
X114700016Y-102225498D01*
X114700019Y-102225498D01*
X114756302Y-102219748D01*
X114802797Y-102214999D01*
X114969334Y-102159814D01*
X115118656Y-102067712D01*
X115242712Y-101943656D01*
X115252182Y-101928301D01*
X115304127Y-101881577D01*
X115373089Y-101870352D01*
X115437172Y-101898193D01*
X115445398Y-101905710D01*
X116193829Y-102654088D01*
X116521622Y-102981858D01*
X116521625Y-102981864D01*
X116521627Y-102981863D01*
X119211483Y-105671811D01*
X119244967Y-105733134D01*
X119247800Y-105759490D01*
X119247800Y-117779057D01*
X119286906Y-117925000D01*
X119288723Y-117931783D01*
X119288726Y-117931790D01*
X119367775Y-118068709D01*
X119367779Y-118068714D01*
X119367780Y-118068716D01*
X119479584Y-118180520D01*
X119605343Y-118253126D01*
X119653558Y-118303692D01*
X119659525Y-118317180D01*
X119706202Y-118442328D01*
X119706206Y-118442335D01*
X119792452Y-118557544D01*
X119792455Y-118557547D01*
X119907664Y-118643793D01*
X119907671Y-118643797D01*
X120042517Y-118694091D01*
X120042516Y-118694091D01*
X120049444Y-118694835D01*
X120102127Y-118700500D01*
X121897872Y-118700499D01*
X121957483Y-118694091D01*
X122092331Y-118643796D01*
X122207546Y-118557546D01*
X122293796Y-118442331D01*
X122316609Y-118381167D01*
X122358480Y-118325233D01*
X122423944Y-118300816D01*
X122432791Y-118300500D01*
X125867209Y-118300500D01*
X125934248Y-118320185D01*
X125980003Y-118372989D01*
X125983391Y-118381167D01*
X126006202Y-118442328D01*
X126006206Y-118442335D01*
X126092452Y-118557544D01*
X126092455Y-118557547D01*
X126207664Y-118643793D01*
X126207671Y-118643797D01*
X126342517Y-118694091D01*
X126342516Y-118694091D01*
X126349444Y-118694835D01*
X126402127Y-118700500D01*
X128197872Y-118700499D01*
X128257483Y-118694091D01*
X128392331Y-118643796D01*
X128507546Y-118557546D01*
X128593796Y-118442331D01*
X128644091Y-118307483D01*
X128650500Y-118247873D01*
X128650499Y-117152128D01*
X128644091Y-117092517D01*
X128639353Y-117079815D01*
X128593797Y-116957671D01*
X128593793Y-116957664D01*
X128507547Y-116842455D01*
X128507544Y-116842452D01*
X128392335Y-116756206D01*
X128392328Y-116756202D01*
X128257482Y-116705908D01*
X128257483Y-116705908D01*
X128197883Y-116699501D01*
X128197881Y-116699500D01*
X128197873Y-116699500D01*
X128197864Y-116699500D01*
X126402129Y-116699500D01*
X126402123Y-116699501D01*
X126342516Y-116705908D01*
X126207671Y-116756202D01*
X126207664Y-116756206D01*
X126092455Y-116842452D01*
X126092452Y-116842455D01*
X126006206Y-116957664D01*
X126006202Y-116957671D01*
X125983391Y-117018833D01*
X125941520Y-117074767D01*
X125876056Y-117099184D01*
X125867209Y-117099500D01*
X122432791Y-117099500D01*
X122365752Y-117079815D01*
X122319997Y-117027011D01*
X122316609Y-117018833D01*
X122293797Y-116957671D01*
X122293793Y-116957664D01*
X122207547Y-116842455D01*
X122207544Y-116842452D01*
X122092335Y-116756206D01*
X122092328Y-116756202D01*
X121957482Y-116705908D01*
X121957483Y-116705908D01*
X121897883Y-116699501D01*
X121897881Y-116699500D01*
X121897873Y-116699500D01*
X121897865Y-116699500D01*
X120572800Y-116699500D01*
X120505761Y-116679815D01*
X120460006Y-116627011D01*
X120448800Y-116575500D01*
X120448800Y-105441615D01*
X120448802Y-105380353D01*
X120448800Y-105380345D01*
X120448800Y-105380343D01*
X120426678Y-105297781D01*
X120407881Y-105227625D01*
X120407878Y-105227619D01*
X120407877Y-105227616D01*
X120407225Y-105226486D01*
X120407224Y-105226483D01*
X120362042Y-105148225D01*
X120362038Y-105148220D01*
X120362036Y-105148216D01*
X120330652Y-105093855D01*
X120329187Y-105091132D01*
X120328953Y-105090817D01*
X120258536Y-105020400D01*
X120188677Y-104950539D01*
X117892302Y-102654085D01*
X117858820Y-102592764D01*
X117863806Y-102523072D01*
X117892304Y-102478729D01*
X118174423Y-102196610D01*
X118235744Y-102163127D01*
X118301105Y-102166586D01*
X118447203Y-102214999D01*
X118549991Y-102225500D01*
X119150008Y-102225499D01*
X119160576Y-102224419D01*
X119229268Y-102237187D01*
X119260861Y-102260096D01*
X121785039Y-104784274D01*
X121785049Y-104784285D01*
X121789379Y-104788615D01*
X121789380Y-104788616D01*
X121901184Y-104900420D01*
X121952740Y-104930185D01*
X121987995Y-104950539D01*
X121987997Y-104950541D01*
X122024058Y-104971361D01*
X122038115Y-104979477D01*
X122190843Y-105020401D01*
X122190846Y-105020401D01*
X122356553Y-105020401D01*
X122356569Y-105020400D01*
X124095800Y-105020400D01*
X124162839Y-105040085D01*
X124208594Y-105092889D01*
X124219800Y-105144400D01*
X124219800Y-106513533D01*
X124219799Y-106513551D01*
X124219799Y-106679257D01*
X124240732Y-106757378D01*
X124260603Y-106831537D01*
X124260724Y-106831986D01*
X124260724Y-106831987D01*
X124290174Y-106882996D01*
X124290176Y-106882999D01*
X124290177Y-106883000D01*
X124339780Y-106968916D01*
X124451584Y-107080720D01*
X124451585Y-107080721D01*
X138399880Y-121028920D01*
X138433365Y-121090242D01*
X138428381Y-121159934D01*
X138399880Y-121204282D01*
X128861681Y-130742482D01*
X128800358Y-130775967D01*
X128730666Y-130770983D01*
X128674733Y-130729111D01*
X128650316Y-130663647D01*
X128650000Y-130654801D01*
X128650000Y-130452172D01*
X128649999Y-130452155D01*
X128643598Y-130392627D01*
X128643596Y-130392620D01*
X128593354Y-130257913D01*
X128593350Y-130257906D01*
X128507190Y-130142812D01*
X128507187Y-130142809D01*
X128392093Y-130056649D01*
X128392086Y-130056645D01*
X128257379Y-130006403D01*
X128257372Y-130006401D01*
X128197844Y-130000000D01*
X127550000Y-130000000D01*
X127550000Y-130876000D01*
X127530315Y-130943039D01*
X127477511Y-130988794D01*
X127426000Y-131000000D01*
X127300000Y-131000000D01*
X127300000Y-131119500D01*
X127280315Y-131186539D01*
X127227511Y-131232294D01*
X127176000Y-131243500D01*
X121124000Y-131243500D01*
X121056961Y-131223815D01*
X121011206Y-131171011D01*
X121000000Y-131119500D01*
X121000000Y-131000000D01*
X120874000Y-131000000D01*
X120806961Y-130980315D01*
X120761206Y-130927511D01*
X120750000Y-130876000D01*
X120750000Y-130750000D01*
X121250000Y-130750000D01*
X122350000Y-130750000D01*
X122350000Y-130452172D01*
X122349999Y-130452155D01*
X125950000Y-130452155D01*
X125950000Y-130750000D01*
X127050000Y-130750000D01*
X127050000Y-130000000D01*
X126402155Y-130000000D01*
X126342627Y-130006401D01*
X126342620Y-130006403D01*
X126207913Y-130056645D01*
X126207906Y-130056649D01*
X126092812Y-130142809D01*
X126092809Y-130142812D01*
X126006649Y-130257906D01*
X126006645Y-130257913D01*
X125956403Y-130392620D01*
X125956401Y-130392627D01*
X125950000Y-130452155D01*
X122349999Y-130452155D01*
X122343598Y-130392627D01*
X122343596Y-130392620D01*
X122293354Y-130257913D01*
X122293350Y-130257906D01*
X122207190Y-130142812D01*
X122207187Y-130142809D01*
X122092093Y-130056649D01*
X122092086Y-130056645D01*
X121957379Y-130006403D01*
X121957372Y-130006401D01*
X121897844Y-130000000D01*
X121250000Y-130000000D01*
X121250000Y-130750000D01*
X120750000Y-130750000D01*
X120750000Y-130000000D01*
X120102155Y-130000000D01*
X120042627Y-130006401D01*
X120042620Y-130006403D01*
X119907913Y-130056645D01*
X119907906Y-130056649D01*
X119792812Y-130142809D01*
X119792809Y-130142812D01*
X119706649Y-130257906D01*
X119706645Y-130257913D01*
X119656403Y-130392620D01*
X119656401Y-130392627D01*
X119649999Y-130452167D01*
X119649895Y-130454118D01*
X119649743Y-130454546D01*
X119649644Y-130455475D01*
X119649424Y-130455451D01*
X119626647Y-130520007D01*
X119571467Y-130562867D01*
X119501876Y-130569091D01*
X119439966Y-130536703D01*
X119438392Y-130535156D01*
X115615416Y-126712180D01*
X115582629Y-126652135D01*
X119649500Y-126652135D01*
X119649500Y-127747870D01*
X119649501Y-127747876D01*
X119655908Y-127807483D01*
X119706202Y-127942328D01*
X119706206Y-127942335D01*
X119792452Y-128057544D01*
X119792455Y-128057547D01*
X119907664Y-128143793D01*
X119907671Y-128143797D01*
X120042517Y-128194091D01*
X120042516Y-128194091D01*
X120049444Y-128194835D01*
X120102127Y-128200500D01*
X121897872Y-128200499D01*
X121957483Y-128194091D01*
X122092331Y-128143796D01*
X122207546Y-128057546D01*
X122293796Y-127942331D01*
X122299886Y-127926002D01*
X122316609Y-127881167D01*
X122358480Y-127825233D01*
X122423944Y-127800816D01*
X122432791Y-127800500D01*
X125867209Y-127800500D01*
X125934248Y-127820185D01*
X125980003Y-127872989D01*
X125983391Y-127881167D01*
X126006202Y-127942328D01*
X126006206Y-127942335D01*
X126092452Y-128057544D01*
X126092455Y-128057547D01*
X126207664Y-128143793D01*
X126207671Y-128143797D01*
X126342517Y-128194091D01*
X126342516Y-128194091D01*
X126349444Y-128194835D01*
X126402127Y-128200500D01*
X128197872Y-128200499D01*
X128257483Y-128194091D01*
X128392331Y-128143796D01*
X128507546Y-128057546D01*
X128558221Y-127989852D01*
X128579231Y-127961788D01*
X128635165Y-127919918D01*
X128678497Y-127912100D01*
X128762844Y-127912100D01*
X128762845Y-127912099D01*
X128917497Y-127881337D01*
X129063179Y-127820994D01*
X129194289Y-127733389D01*
X129305789Y-127621889D01*
X129393394Y-127490779D01*
X129453737Y-127345097D01*
X129484500Y-127190442D01*
X129484500Y-127032758D01*
X129484500Y-127032755D01*
X129484499Y-127032753D01*
X129465197Y-126935716D01*
X129453737Y-126878103D01*
X129420885Y-126798790D01*
X129393397Y-126732427D01*
X129393390Y-126732414D01*
X129305789Y-126601311D01*
X129305786Y-126601307D01*
X129194292Y-126489813D01*
X129194288Y-126489810D01*
X129063185Y-126402209D01*
X129063172Y-126402202D01*
X128917501Y-126341864D01*
X128917489Y-126341861D01*
X128762845Y-126311100D01*
X128762842Y-126311100D01*
X128605158Y-126311100D01*
X128584856Y-126315138D01*
X128549181Y-126322234D01*
X128479589Y-126316005D01*
X128450681Y-126299883D01*
X128392335Y-126256206D01*
X128392328Y-126256202D01*
X128257482Y-126205908D01*
X128257483Y-126205908D01*
X128197883Y-126199501D01*
X128197881Y-126199500D01*
X128197873Y-126199500D01*
X128197864Y-126199500D01*
X126402129Y-126199500D01*
X126402123Y-126199501D01*
X126342516Y-126205908D01*
X126207671Y-126256202D01*
X126207664Y-126256206D01*
X126092455Y-126342452D01*
X126092452Y-126342455D01*
X126006206Y-126457664D01*
X126006202Y-126457671D01*
X125983391Y-126518833D01*
X125941520Y-126574767D01*
X125876056Y-126599184D01*
X125867209Y-126599500D01*
X122432791Y-126599500D01*
X122365752Y-126579815D01*
X122319997Y-126527011D01*
X122316609Y-126518833D01*
X122293797Y-126457671D01*
X122293793Y-126457664D01*
X122207547Y-126342455D01*
X122207544Y-126342452D01*
X122092335Y-126256206D01*
X122092328Y-126256202D01*
X121957482Y-126205908D01*
X121957483Y-126205908D01*
X121897883Y-126199501D01*
X121897881Y-126199500D01*
X121897873Y-126199500D01*
X121897864Y-126199500D01*
X120102129Y-126199500D01*
X120102123Y-126199501D01*
X120042516Y-126205908D01*
X119907671Y-126256202D01*
X119907664Y-126256206D01*
X119792455Y-126342452D01*
X119792452Y-126342455D01*
X119706206Y-126457664D01*
X119706202Y-126457671D01*
X119655908Y-126592517D01*
X119649501Y-126652116D01*
X119649500Y-126652135D01*
X115582629Y-126652135D01*
X115581931Y-126650857D01*
X115586915Y-126581165D01*
X115628787Y-126525232D01*
X115694251Y-126500815D01*
X115703071Y-126500499D01*
X116697872Y-126500499D01*
X116757483Y-126494091D01*
X116892331Y-126443796D01*
X117007546Y-126357546D01*
X117093796Y-126242331D01*
X117144091Y-126107483D01*
X117150500Y-126047873D01*
X117150499Y-125152128D01*
X117144091Y-125092517D01*
X117126038Y-125044115D01*
X117093797Y-124957671D01*
X117093793Y-124957664D01*
X117007547Y-124842455D01*
X117007544Y-124842452D01*
X116892335Y-124756206D01*
X116892328Y-124756202D01*
X116757482Y-124705908D01*
X116757483Y-124705908D01*
X116697883Y-124699501D01*
X116697881Y-124699500D01*
X116697873Y-124699500D01*
X116697864Y-124699500D01*
X115602129Y-124699500D01*
X115602123Y-124699501D01*
X115542516Y-124705908D01*
X115407671Y-124756202D01*
X115407664Y-124756206D01*
X115292455Y-124842452D01*
X115292452Y-124842455D01*
X115206206Y-124957664D01*
X115206202Y-124957671D01*
X115155908Y-125092517D01*
X115149501Y-125152116D01*
X115149501Y-125152123D01*
X115149500Y-125152135D01*
X115149500Y-125946903D01*
X115129815Y-126013942D01*
X115077011Y-126059697D01*
X115007853Y-126069641D01*
X114944297Y-126040616D01*
X114937819Y-126034584D01*
X114245386Y-125342151D01*
X114211901Y-125280828D01*
X114216885Y-125211136D01*
X114258757Y-125155203D01*
X114285609Y-125139912D01*
X114331811Y-125120775D01*
X114446542Y-125044114D01*
X114544114Y-124946542D01*
X114620775Y-124831811D01*
X114673580Y-124704328D01*
X114700500Y-124568993D01*
X114700500Y-124431007D01*
X114700500Y-124431004D01*
X114673581Y-124295677D01*
X114673580Y-124295676D01*
X114673580Y-124295672D01*
X114647951Y-124233797D01*
X114618444Y-124162560D01*
X114620927Y-124161531D01*
X114609086Y-124104468D01*
X114634130Y-124039240D01*
X114690462Y-123997907D01*
X114732680Y-123990499D01*
X115112819Y-123990499D01*
X115179858Y-124010184D01*
X115212085Y-124040188D01*
X115292452Y-124147544D01*
X115292455Y-124147547D01*
X115407664Y-124233793D01*
X115407671Y-124233797D01*
X115542517Y-124284091D01*
X115542516Y-124284091D01*
X115549444Y-124284835D01*
X115602127Y-124290500D01*
X116697872Y-124290499D01*
X116757483Y-124284091D01*
X116892331Y-124233796D01*
X117007546Y-124147546D01*
X117093796Y-124032331D01*
X117144091Y-123897483D01*
X117150500Y-123837873D01*
X117150499Y-122942128D01*
X117144091Y-122882517D01*
X117142637Y-122878619D01*
X117093797Y-122747671D01*
X117093793Y-122747664D01*
X117007547Y-122632455D01*
X117007544Y-122632452D01*
X116892335Y-122546206D01*
X116892328Y-122546202D01*
X116757482Y-122495908D01*
X116757483Y-122495908D01*
X116697883Y-122489501D01*
X116697881Y-122489500D01*
X116697873Y-122489500D01*
X116697865Y-122489500D01*
X115724499Y-122489500D01*
X115657460Y-122469815D01*
X115611705Y-122417011D01*
X115600499Y-122365500D01*
X115600499Y-122047844D01*
X119650000Y-122047844D01*
X119656401Y-122107372D01*
X119656403Y-122107379D01*
X119706645Y-122242086D01*
X119706649Y-122242093D01*
X119792809Y-122357187D01*
X119792812Y-122357190D01*
X119907906Y-122443350D01*
X119907913Y-122443354D01*
X120042620Y-122493596D01*
X120042627Y-122493598D01*
X120102155Y-122499999D01*
X120102172Y-122500000D01*
X120750000Y-122500000D01*
X121250000Y-122500000D01*
X121897828Y-122500000D01*
X121897844Y-122499999D01*
X121957372Y-122493598D01*
X121957379Y-122493596D01*
X122092086Y-122443354D01*
X122092093Y-122443350D01*
X122207187Y-122357190D01*
X122207190Y-122357187D01*
X122293350Y-122242093D01*
X122293354Y-122242086D01*
X122343596Y-122107379D01*
X122343598Y-122107372D01*
X122349999Y-122047844D01*
X125950000Y-122047844D01*
X125956401Y-122107372D01*
X125956403Y-122107379D01*
X126006645Y-122242086D01*
X126006649Y-122242093D01*
X126092809Y-122357187D01*
X126092812Y-122357190D01*
X126207906Y-122443350D01*
X126207913Y-122443354D01*
X126342620Y-122493596D01*
X126342627Y-122493598D01*
X126402155Y-122499999D01*
X126402172Y-122500000D01*
X127050000Y-122500000D01*
X127550000Y-122500000D01*
X128197828Y-122500000D01*
X128197844Y-122499999D01*
X128257372Y-122493598D01*
X128257379Y-122493596D01*
X128392086Y-122443354D01*
X128392093Y-122443350D01*
X128507187Y-122357190D01*
X128507190Y-122357187D01*
X128593350Y-122242093D01*
X128593354Y-122242086D01*
X128643596Y-122107379D01*
X128643598Y-122107372D01*
X128649999Y-122047844D01*
X128650000Y-122047827D01*
X128650000Y-121750000D01*
X127550000Y-121750000D01*
X127550000Y-122500000D01*
X127050000Y-122500000D01*
X127050000Y-121750000D01*
X125950000Y-121750000D01*
X125950000Y-122047844D01*
X122349999Y-122047844D01*
X122350000Y-122047827D01*
X122350000Y-121750000D01*
X121250000Y-121750000D01*
X121250000Y-122500000D01*
X120750000Y-122500000D01*
X120750000Y-121750000D01*
X119650000Y-121750000D01*
X119650000Y-122047844D01*
X115600499Y-122047844D01*
X115600499Y-121942129D01*
X115600498Y-121942123D01*
X115600497Y-121942116D01*
X115594091Y-121882517D01*
X115590336Y-121872450D01*
X115554941Y-121777550D01*
X115543796Y-121747669D01*
X115543794Y-121747666D01*
X115543793Y-121747664D01*
X115457547Y-121632455D01*
X115457544Y-121632452D01*
X115342335Y-121546206D01*
X115342328Y-121546202D01*
X115207482Y-121495908D01*
X115207483Y-121495908D01*
X115147883Y-121489501D01*
X115147881Y-121489500D01*
X115147873Y-121489500D01*
X115147864Y-121489500D01*
X114352129Y-121489500D01*
X114352123Y-121489501D01*
X114292516Y-121495908D01*
X114157671Y-121546202D01*
X114157669Y-121546203D01*
X114074311Y-121608606D01*
X114008847Y-121633023D01*
X113940574Y-121618172D01*
X113925689Y-121608606D01*
X113910479Y-121597220D01*
X113876332Y-121571657D01*
X113842330Y-121546203D01*
X113842328Y-121546202D01*
X113707482Y-121495908D01*
X113707483Y-121495908D01*
X113647883Y-121489501D01*
X113647881Y-121489500D01*
X113647873Y-121489500D01*
X113647865Y-121489500D01*
X113079700Y-121489500D01*
X113012661Y-121469815D01*
X112966906Y-121417011D01*
X112955700Y-121365500D01*
X112955700Y-120952155D01*
X119650000Y-120952155D01*
X119650000Y-121250000D01*
X120750000Y-121250000D01*
X121250000Y-121250000D01*
X122350000Y-121250000D01*
X122350000Y-120952172D01*
X122349999Y-120952155D01*
X125950000Y-120952155D01*
X125950000Y-121250000D01*
X127050000Y-121250000D01*
X127550000Y-121250000D01*
X128650000Y-121250000D01*
X128650000Y-120952172D01*
X128649999Y-120952155D01*
X128643598Y-120892627D01*
X128643596Y-120892620D01*
X128593354Y-120757913D01*
X128593350Y-120757906D01*
X128507190Y-120642812D01*
X128507187Y-120642809D01*
X128392093Y-120556649D01*
X128392086Y-120556645D01*
X128257379Y-120506403D01*
X128257372Y-120506401D01*
X128197844Y-120500000D01*
X127550000Y-120500000D01*
X127550000Y-121250000D01*
X127050000Y-121250000D01*
X127050000Y-120500000D01*
X126402155Y-120500000D01*
X126342627Y-120506401D01*
X126342620Y-120506403D01*
X126207913Y-120556645D01*
X126207906Y-120556649D01*
X126092812Y-120642809D01*
X126092809Y-120642812D01*
X126006649Y-120757906D01*
X126006645Y-120757913D01*
X125956403Y-120892620D01*
X125956401Y-120892627D01*
X125950000Y-120952155D01*
X122349999Y-120952155D01*
X122343598Y-120892627D01*
X122343596Y-120892620D01*
X122293354Y-120757913D01*
X122293350Y-120757906D01*
X122207190Y-120642812D01*
X122207187Y-120642809D01*
X122092093Y-120556649D01*
X122092086Y-120556645D01*
X121957379Y-120506403D01*
X121957372Y-120506401D01*
X121897844Y-120500000D01*
X121250000Y-120500000D01*
X121250000Y-121250000D01*
X120750000Y-121250000D01*
X120750000Y-120500000D01*
X120102155Y-120500000D01*
X120042627Y-120506401D01*
X120042620Y-120506403D01*
X119907913Y-120556645D01*
X119907906Y-120556649D01*
X119792812Y-120642809D01*
X119792809Y-120642812D01*
X119706649Y-120757906D01*
X119706645Y-120757913D01*
X119656403Y-120892620D01*
X119656401Y-120892627D01*
X119650000Y-120952155D01*
X112955700Y-120952155D01*
X112955700Y-111999984D01*
X114599500Y-111999984D01*
X114599500Y-115000015D01*
X114610000Y-115102795D01*
X114610001Y-115102797D01*
X114637593Y-115186065D01*
X114665186Y-115269335D01*
X114665187Y-115269337D01*
X114757286Y-115418651D01*
X114757289Y-115418655D01*
X114881344Y-115542710D01*
X114881348Y-115542713D01*
X115030662Y-115634812D01*
X115030664Y-115634813D01*
X115030666Y-115634814D01*
X115197203Y-115689999D01*
X115299992Y-115700500D01*
X115299997Y-115700500D01*
X116400003Y-115700500D01*
X116400008Y-115700500D01*
X116502797Y-115689999D01*
X116669334Y-115634814D01*
X116818655Y-115542711D01*
X116942711Y-115418655D01*
X117034814Y-115269334D01*
X117089999Y-115102797D01*
X117100500Y-115000008D01*
X117100500Y-111999992D01*
X117089999Y-111897203D01*
X117034814Y-111730666D01*
X116942711Y-111581345D01*
X116818655Y-111457289D01*
X116818651Y-111457286D01*
X116669337Y-111365187D01*
X116669335Y-111365186D01*
X116586065Y-111337593D01*
X116502797Y-111310001D01*
X116502795Y-111310000D01*
X116400015Y-111299500D01*
X116400008Y-111299500D01*
X115299992Y-111299500D01*
X115299984Y-111299500D01*
X115197204Y-111310000D01*
X115197203Y-111310001D01*
X115030664Y-111365186D01*
X115030662Y-111365187D01*
X114881348Y-111457286D01*
X114881344Y-111457289D01*
X114757289Y-111581344D01*
X114757286Y-111581348D01*
X114665187Y-111730662D01*
X114665186Y-111730664D01*
X114610001Y-111897203D01*
X114610000Y-111897204D01*
X114599500Y-111999984D01*
X112955700Y-111999984D01*
X112955700Y-110112353D01*
X112975385Y-110045314D01*
X113028189Y-109999559D01*
X113092303Y-109988995D01*
X113200019Y-109999999D01*
X113750000Y-109999999D01*
X113799972Y-109999999D01*
X113799986Y-109999998D01*
X113902697Y-109989505D01*
X114069119Y-109934358D01*
X114069124Y-109934356D01*
X114218345Y-109842315D01*
X114342315Y-109718345D01*
X114434356Y-109569124D01*
X114434358Y-109569119D01*
X114489505Y-109402697D01*
X114489506Y-109402690D01*
X114499999Y-109299986D01*
X114500000Y-109299973D01*
X114500000Y-108000000D01*
X113750000Y-108000000D01*
X113750000Y-109999999D01*
X113200019Y-109999999D01*
X113249999Y-109999998D01*
X113250000Y-109999998D01*
X113250000Y-107500000D01*
X113750000Y-107500000D01*
X114499999Y-107500000D01*
X114499999Y-106200028D01*
X114499998Y-106200013D01*
X114489505Y-106097302D01*
X114434358Y-105930880D01*
X114434356Y-105930875D01*
X114342315Y-105781654D01*
X114218345Y-105657684D01*
X114069124Y-105565643D01*
X114069119Y-105565641D01*
X113902697Y-105510494D01*
X113902690Y-105510493D01*
X113799986Y-105500000D01*
X113750000Y-105500000D01*
X113750000Y-107500000D01*
X113250000Y-107500000D01*
X113250000Y-105500000D01*
X113249999Y-105499999D01*
X113200029Y-105500000D01*
X113200011Y-105500001D01*
X113097302Y-105510494D01*
X112930880Y-105565641D01*
X112905220Y-105581468D01*
X112876686Y-105589274D01*
X112848976Y-105599611D01*
X112843365Y-105598390D01*
X112837827Y-105599906D01*
X112809607Y-105591048D01*
X112780702Y-105584761D01*
X112774292Y-105579963D01*
X112771164Y-105578981D01*
X112752447Y-105563611D01*
X112744292Y-105555456D01*
X112723916Y-105535080D01*
X112723913Y-105535078D01*
X111590590Y-104401755D01*
X111590588Y-104401752D01*
X111471717Y-104282881D01*
X111471712Y-104282877D01*
X111380395Y-104230156D01*
X111334785Y-104203823D01*
X111182057Y-104162899D01*
X111023943Y-104162899D01*
X111016347Y-104162899D01*
X111016331Y-104162900D01*
X110564797Y-104162900D01*
X110497758Y-104143215D01*
X110477116Y-104126581D01*
X108662454Y-102311919D01*
X108628969Y-102250596D01*
X108633953Y-102180904D01*
X108675825Y-102124971D01*
X108685039Y-102118699D01*
X108768343Y-102067317D01*
X108892318Y-101943342D01*
X108894165Y-101940348D01*
X108895969Y-101938724D01*
X108896798Y-101937677D01*
X108896976Y-101937818D01*
X108946110Y-101893621D01*
X109015073Y-101882396D01*
X109079156Y-101910236D01*
X109105243Y-101940341D01*
X109107288Y-101943656D01*
X109231344Y-102067712D01*
X109380666Y-102159814D01*
X109547203Y-102214999D01*
X109649991Y-102225500D01*
X110250008Y-102225499D01*
X110250016Y-102225498D01*
X110250019Y-102225498D01*
X110306302Y-102219748D01*
X110352797Y-102214999D01*
X110519334Y-102159814D01*
X110668656Y-102067712D01*
X110792712Y-101943656D01*
X110884814Y-101794334D01*
X110939999Y-101627797D01*
X110950500Y-101525009D01*
X110950500Y-101524986D01*
X111500001Y-101524986D01*
X111510494Y-101627697D01*
X111565641Y-101794119D01*
X111565643Y-101794124D01*
X111657684Y-101943345D01*
X111781654Y-102067315D01*
X111930875Y-102159356D01*
X111930880Y-102159358D01*
X112097302Y-102214505D01*
X112097309Y-102214506D01*
X112200019Y-102224999D01*
X112249999Y-102224998D01*
X112250000Y-102224998D01*
X112250000Y-101250000D01*
X111500001Y-101250000D01*
X111500001Y-101524986D01*
X110950500Y-101524986D01*
X110950499Y-101019685D01*
X110950499Y-100672200D01*
X110970183Y-100605161D01*
X111022987Y-100559406D01*
X111074499Y-100548200D01*
X111376000Y-100548200D01*
X111443039Y-100567885D01*
G37*
%TD.AperFunction*%
%TA.AperFunction,Conductor*%
G36*
X151126944Y-116578755D02*
G01*
X151146349Y-116594584D01*
X161989584Y-127437819D01*
X162023069Y-127499142D01*
X162018085Y-127568834D01*
X161976213Y-127624767D01*
X161910749Y-127649184D01*
X161901903Y-127649500D01*
X160798877Y-127649500D01*
X160798874Y-127649501D01*
X160756113Y-127652399D01*
X160756112Y-127652399D01*
X160571303Y-127698360D01*
X160400707Y-127782967D01*
X160400704Y-127782969D01*
X160252278Y-127902277D01*
X160252277Y-127902278D01*
X160132969Y-128050704D01*
X160132967Y-128050707D01*
X160045372Y-128227329D01*
X160043464Y-128226382D01*
X160007869Y-128274410D01*
X159942522Y-128299140D01*
X159933084Y-128299500D01*
X159079061Y-128299500D01*
X159079057Y-128299499D01*
X158920943Y-128299499D01*
X158920939Y-128299500D01*
X152968397Y-128299500D01*
X152901358Y-128279815D01*
X152880716Y-128263181D01*
X148267143Y-123649608D01*
X148233658Y-123588285D01*
X148238642Y-123518593D01*
X148280514Y-123462660D01*
X148345978Y-123438243D01*
X148402274Y-123447365D01*
X148493238Y-123485044D01*
X148610639Y-123500500D01*
X150389360Y-123500499D01*
X150389363Y-123500499D01*
X150506753Y-123485046D01*
X150506757Y-123485044D01*
X150506762Y-123485044D01*
X150652841Y-123424536D01*
X150778282Y-123328282D01*
X150874536Y-123202841D01*
X150935044Y-123056762D01*
X150950500Y-122939361D01*
X150950499Y-122660640D01*
X150950499Y-122660638D01*
X150950499Y-122660636D01*
X150935046Y-122543246D01*
X150935044Y-122543239D01*
X150935044Y-122543238D01*
X150926162Y-122521797D01*
X150918694Y-122452328D01*
X150926164Y-122426890D01*
X150934555Y-122406632D01*
X150934555Y-122406630D01*
X150942012Y-122350000D01*
X150899500Y-122350000D01*
X150870118Y-122341372D01*
X150840183Y-122334892D01*
X150836070Y-122331374D01*
X150832461Y-122330315D01*
X150811907Y-122313769D01*
X150806108Y-122307981D01*
X150778282Y-122271718D01*
X150741460Y-122243463D01*
X150735754Y-122237769D01*
X150722696Y-122213913D01*
X150706658Y-122191949D01*
X150706167Y-122183715D01*
X150702207Y-122176480D01*
X150704120Y-122149349D01*
X150702503Y-122122203D01*
X150706541Y-122115010D01*
X150707122Y-122106783D01*
X150723395Y-122084998D01*
X150736714Y-122061282D01*
X150747851Y-122051631D01*
X150778282Y-122028282D01*
X150797193Y-122003637D01*
X150801125Y-121998513D01*
X150857553Y-121957310D01*
X150899500Y-121950000D01*
X150942010Y-121950000D01*
X150942011Y-121949998D01*
X150934558Y-121893377D01*
X150934554Y-121893365D01*
X150926163Y-121873106D01*
X150918694Y-121803637D01*
X150926164Y-121778199D01*
X150926433Y-121777550D01*
X150935044Y-121756762D01*
X150950500Y-121639361D01*
X150950499Y-121360640D01*
X150949491Y-121352986D01*
X150945094Y-121319582D01*
X150935044Y-121243238D01*
X150926434Y-121222454D01*
X150918965Y-121152986D01*
X150926435Y-121127545D01*
X150930968Y-121116601D01*
X150935044Y-121106762D01*
X150950500Y-120989361D01*
X150950499Y-120710640D01*
X150949491Y-120702986D01*
X150946142Y-120677545D01*
X150935044Y-120593238D01*
X150926434Y-120572454D01*
X150918965Y-120502986D01*
X150926435Y-120477545D01*
X150935044Y-120456762D01*
X150950500Y-120339361D01*
X150950499Y-120060640D01*
X150949491Y-120052986D01*
X150946142Y-120027545D01*
X150935044Y-119943238D01*
X150926434Y-119922454D01*
X150918965Y-119852986D01*
X150926435Y-119827545D01*
X150935044Y-119806762D01*
X150950500Y-119689361D01*
X150950499Y-119410640D01*
X150949491Y-119402986D01*
X150946142Y-119377545D01*
X150935044Y-119293238D01*
X150926434Y-119272454D01*
X150918965Y-119202986D01*
X150926435Y-119177545D01*
X150935044Y-119156762D01*
X150950500Y-119039361D01*
X150950499Y-118760640D01*
X150949491Y-118752986D01*
X150946142Y-118727545D01*
X150935044Y-118643238D01*
X150926434Y-118622454D01*
X150918965Y-118552986D01*
X150926435Y-118527545D01*
X150935044Y-118506762D01*
X150950500Y-118389361D01*
X150950499Y-118110640D01*
X150950490Y-118110575D01*
X150947277Y-118086170D01*
X150935044Y-117993238D01*
X150934805Y-117992662D01*
X150926435Y-117972455D01*
X150918965Y-117902986D01*
X150926435Y-117877545D01*
X150935044Y-117856762D01*
X150950500Y-117739361D01*
X150950499Y-117460640D01*
X150949491Y-117452986D01*
X150946142Y-117427545D01*
X150935044Y-117343238D01*
X150926434Y-117322454D01*
X150918965Y-117252986D01*
X150926435Y-117227545D01*
X150926486Y-117227421D01*
X150935044Y-117206762D01*
X150950500Y-117089361D01*
X150950499Y-116810640D01*
X150935729Y-116698446D01*
X150946495Y-116629415D01*
X150992875Y-116577159D01*
X151060144Y-116558274D01*
X151126944Y-116578755D01*
G37*
%TD.AperFunction*%
%TA.AperFunction,Conductor*%
G36*
X162862612Y-108991720D02*
G01*
X162904893Y-109019428D01*
X165652384Y-111766920D01*
X165652386Y-111766921D01*
X165652390Y-111766924D01*
X165789309Y-111845973D01*
X165789316Y-111845977D01*
X165942043Y-111886901D01*
X165942045Y-111886901D01*
X166107754Y-111886901D01*
X166107770Y-111886900D01*
X198646602Y-111886900D01*
X198713641Y-111906585D01*
X198759396Y-111959389D01*
X198769340Y-112028547D01*
X198740315Y-112092103D01*
X198734283Y-112098581D01*
X188469684Y-122363181D01*
X188408361Y-122396666D01*
X188382003Y-122399500D01*
X187398349Y-122399500D01*
X187384725Y-122395499D01*
X187370550Y-122396344D01*
X187351865Y-122385850D01*
X187331310Y-122379815D01*
X187322012Y-122369085D01*
X187309630Y-122362131D01*
X187299584Y-122343202D01*
X187285555Y-122327011D01*
X187283534Y-122312956D01*
X187276878Y-122300414D01*
X187278660Y-122279062D01*
X187275611Y-122257853D01*
X187281622Y-122243579D01*
X187282691Y-122230787D01*
X187299971Y-122200015D01*
X187301125Y-122198512D01*
X187357553Y-122157311D01*
X187399500Y-122150000D01*
X187442010Y-122150000D01*
X187442011Y-122149998D01*
X187434558Y-122093377D01*
X187434554Y-122093365D01*
X187426163Y-122073106D01*
X187418694Y-122003637D01*
X187426164Y-121978199D01*
X187426435Y-121977545D01*
X187435044Y-121956762D01*
X187450500Y-121839361D01*
X187450499Y-121560640D01*
X187449920Y-121556244D01*
X187447202Y-121535592D01*
X187435044Y-121443238D01*
X187435042Y-121443234D01*
X187426435Y-121422455D01*
X187418965Y-121352986D01*
X187426435Y-121327545D01*
X187428173Y-121323350D01*
X187435044Y-121306762D01*
X187450500Y-121189361D01*
X187450499Y-120910640D01*
X187435044Y-120793238D01*
X187435042Y-120793234D01*
X187426435Y-120772455D01*
X187418965Y-120702986D01*
X187426435Y-120677545D01*
X187435044Y-120656762D01*
X187450500Y-120539361D01*
X187450499Y-120260640D01*
X187449032Y-120249499D01*
X187446441Y-120229815D01*
X187435044Y-120143238D01*
X187435042Y-120143234D01*
X187426435Y-120122455D01*
X187418965Y-120052986D01*
X187426435Y-120027545D01*
X187435044Y-120006762D01*
X187450500Y-119889361D01*
X187450499Y-119610640D01*
X187435044Y-119493238D01*
X187435042Y-119493234D01*
X187426435Y-119472455D01*
X187418965Y-119402986D01*
X187426435Y-119377545D01*
X187435044Y-119356762D01*
X187450500Y-119239361D01*
X187450499Y-118960640D01*
X187435044Y-118843238D01*
X187435042Y-118843234D01*
X187426435Y-118822455D01*
X187418965Y-118752986D01*
X187426435Y-118727545D01*
X187435044Y-118706762D01*
X187450500Y-118589361D01*
X187450499Y-118310640D01*
X187450083Y-118307483D01*
X187447277Y-118286170D01*
X187435044Y-118193238D01*
X187435042Y-118193234D01*
X187426435Y-118172455D01*
X187418965Y-118102986D01*
X187426435Y-118077545D01*
X187435044Y-118056762D01*
X187450500Y-117939361D01*
X187450499Y-117660640D01*
X187435044Y-117543238D01*
X187435042Y-117543234D01*
X187426435Y-117522455D01*
X187418965Y-117452986D01*
X187426435Y-117427545D01*
X187435044Y-117406762D01*
X187450500Y-117289361D01*
X187450499Y-117010640D01*
X187435044Y-116893238D01*
X187435042Y-116893234D01*
X187426435Y-116872455D01*
X187418965Y-116802986D01*
X187426435Y-116777545D01*
X187435044Y-116756762D01*
X187450500Y-116639361D01*
X187450499Y-116360640D01*
X187449968Y-116356609D01*
X187447277Y-116336170D01*
X187435044Y-116243238D01*
X187435042Y-116243234D01*
X187426435Y-116222455D01*
X187418965Y-116152986D01*
X187426435Y-116127545D01*
X187435044Y-116106762D01*
X187450500Y-115989361D01*
X187450499Y-115710640D01*
X187450499Y-115710638D01*
X187450499Y-115710636D01*
X187435046Y-115593246D01*
X187435044Y-115593239D01*
X187435044Y-115593238D01*
X187374536Y-115447159D01*
X187278282Y-115321718D01*
X187152841Y-115225464D01*
X187006762Y-115164956D01*
X187006760Y-115164955D01*
X186889370Y-115149501D01*
X186889367Y-115149500D01*
X186889361Y-115149500D01*
X186889354Y-115149500D01*
X185110636Y-115149500D01*
X184993246Y-115164953D01*
X184993237Y-115164956D01*
X184847160Y-115225463D01*
X184721718Y-115321718D01*
X184625463Y-115447160D01*
X184564956Y-115593237D01*
X184564955Y-115593239D01*
X184549500Y-115710638D01*
X184549500Y-115989363D01*
X184564953Y-116106753D01*
X184564957Y-116106765D01*
X184573566Y-116127550D01*
X184581033Y-116197019D01*
X184573566Y-116222450D01*
X184564957Y-116243234D01*
X184564955Y-116243239D01*
X184549500Y-116360638D01*
X184549500Y-116639363D01*
X184564953Y-116756753D01*
X184564957Y-116756765D01*
X184573566Y-116777550D01*
X184581033Y-116847019D01*
X184573566Y-116872450D01*
X184564957Y-116893234D01*
X184564955Y-116893239D01*
X184549500Y-117010638D01*
X184549500Y-117289363D01*
X184564953Y-117406753D01*
X184564957Y-117406765D01*
X184573566Y-117427550D01*
X184581033Y-117497019D01*
X184573566Y-117522450D01*
X184564957Y-117543234D01*
X184564955Y-117543239D01*
X184549500Y-117660638D01*
X184549500Y-117939363D01*
X184564953Y-118056753D01*
X184564957Y-118056765D01*
X184573566Y-118077550D01*
X184581033Y-118147019D01*
X184573566Y-118172450D01*
X184564957Y-118193234D01*
X184564955Y-118193239D01*
X184549500Y-118310638D01*
X184549500Y-118589363D01*
X184564953Y-118706753D01*
X184564957Y-118706765D01*
X184573566Y-118727550D01*
X184581033Y-118797019D01*
X184573566Y-118822450D01*
X184564957Y-118843234D01*
X184564955Y-118843239D01*
X184549500Y-118960638D01*
X184549500Y-119239363D01*
X184564953Y-119356753D01*
X184564957Y-119356765D01*
X184573566Y-119377550D01*
X184581033Y-119447019D01*
X184573566Y-119472450D01*
X184564957Y-119493234D01*
X184564955Y-119493239D01*
X184549500Y-119610638D01*
X184549500Y-119889363D01*
X184564953Y-120006753D01*
X184564957Y-120006765D01*
X184573566Y-120027550D01*
X184581033Y-120097019D01*
X184573566Y-120122450D01*
X184564957Y-120143234D01*
X184564955Y-120143239D01*
X184549500Y-120260638D01*
X184549500Y-120539363D01*
X184564953Y-120656753D01*
X184564957Y-120656765D01*
X184573566Y-120677550D01*
X184581033Y-120747019D01*
X184573566Y-120772450D01*
X184564957Y-120793234D01*
X184564955Y-120793239D01*
X184549500Y-120910638D01*
X184549500Y-121189363D01*
X184564953Y-121306753D01*
X184564957Y-121306765D01*
X184573566Y-121327550D01*
X184581033Y-121397019D01*
X184573566Y-121422450D01*
X184564957Y-121443234D01*
X184564955Y-121443239D01*
X184549500Y-121560638D01*
X184549500Y-121839363D01*
X184564953Y-121956753D01*
X184564956Y-121956762D01*
X184573837Y-121978203D01*
X184581304Y-122047673D01*
X184573838Y-122073103D01*
X184565443Y-122093370D01*
X184557987Y-122150000D01*
X184600500Y-122150000D01*
X184629880Y-122158627D01*
X184659818Y-122165108D01*
X184663930Y-122168625D01*
X184667539Y-122169685D01*
X184688094Y-122186231D01*
X184693888Y-122192014D01*
X184721718Y-122228282D01*
X184758540Y-122256536D01*
X184764246Y-122262231D01*
X184777304Y-122286088D01*
X184793341Y-122308052D01*
X184793831Y-122316284D01*
X184797792Y-122323521D01*
X184795878Y-122350651D01*
X184797496Y-122377798D01*
X184793457Y-122384989D01*
X184792877Y-122393217D01*
X184776599Y-122415006D01*
X184763283Y-122438719D01*
X184752146Y-122448369D01*
X184721718Y-122471718D01*
X184721717Y-122471719D01*
X184721716Y-122471720D01*
X184698875Y-122501487D01*
X184642447Y-122542690D01*
X184600500Y-122550000D01*
X184557990Y-122550000D01*
X184557988Y-122550001D01*
X184565441Y-122606622D01*
X184565445Y-122606634D01*
X184573837Y-122626895D01*
X184581304Y-122696364D01*
X184580884Y-122698581D01*
X184578501Y-122710536D01*
X184564956Y-122743238D01*
X184551276Y-122847143D01*
X184550481Y-122851136D01*
X184536091Y-122878619D01*
X184523545Y-122906982D01*
X184520027Y-122909302D01*
X184518073Y-122913035D01*
X184491110Y-122928375D01*
X184465220Y-122945453D01*
X184459620Y-122946292D01*
X184457345Y-122947587D01*
X184452665Y-122947334D01*
X184428872Y-122950900D01*
X180571127Y-122950900D01*
X180504088Y-122931215D01*
X180458333Y-122878411D01*
X180448188Y-122843084D01*
X180443734Y-122809253D01*
X180435044Y-122743238D01*
X180426434Y-122722454D01*
X180418965Y-122652986D01*
X180426435Y-122627545D01*
X180426704Y-122626895D01*
X180435044Y-122606762D01*
X180450500Y-122489361D01*
X180450499Y-122210640D01*
X180448038Y-122191949D01*
X180445510Y-122172743D01*
X180435044Y-122093238D01*
X180426434Y-122072454D01*
X180418965Y-122002986D01*
X180426435Y-121977545D01*
X180435044Y-121956762D01*
X180450500Y-121839361D01*
X180450499Y-121560640D01*
X180449920Y-121556244D01*
X180447202Y-121535592D01*
X180435044Y-121443238D01*
X180435042Y-121443234D01*
X180426435Y-121422455D01*
X180418965Y-121352986D01*
X180426435Y-121327545D01*
X180428173Y-121323350D01*
X180435044Y-121306762D01*
X180450500Y-121189361D01*
X180450499Y-120910640D01*
X180435044Y-120793238D01*
X180435042Y-120793234D01*
X180426435Y-120772455D01*
X180418965Y-120702986D01*
X180426435Y-120677545D01*
X180435044Y-120656762D01*
X180450500Y-120539361D01*
X180450499Y-120260640D01*
X180449032Y-120249499D01*
X180446441Y-120229815D01*
X180435044Y-120143238D01*
X180435042Y-120143234D01*
X180426435Y-120122455D01*
X180418965Y-120052986D01*
X180426435Y-120027545D01*
X180435044Y-120006762D01*
X180450500Y-119889361D01*
X180450499Y-119610640D01*
X180435044Y-119493238D01*
X180435042Y-119493234D01*
X180426435Y-119472455D01*
X180418965Y-119402986D01*
X180426435Y-119377545D01*
X180435044Y-119356762D01*
X180450500Y-119239361D01*
X180450499Y-118960640D01*
X180435044Y-118843238D01*
X180435042Y-118843234D01*
X180426435Y-118822455D01*
X180418965Y-118752986D01*
X180426435Y-118727545D01*
X180435044Y-118706762D01*
X180450500Y-118589361D01*
X180450499Y-118310640D01*
X180450083Y-118307483D01*
X180447277Y-118286170D01*
X180435044Y-118193238D01*
X180435042Y-118193234D01*
X180426435Y-118172455D01*
X180418965Y-118102986D01*
X180426435Y-118077545D01*
X180435044Y-118056762D01*
X180450500Y-117939361D01*
X180450499Y-117660640D01*
X180435044Y-117543238D01*
X180435042Y-117543234D01*
X180426435Y-117522455D01*
X180418965Y-117452986D01*
X180426435Y-117427545D01*
X180435044Y-117406762D01*
X180450500Y-117289361D01*
X180450499Y-117010640D01*
X180435044Y-116893238D01*
X180435042Y-116893234D01*
X180426435Y-116872455D01*
X180418965Y-116802986D01*
X180426435Y-116777545D01*
X180435044Y-116756762D01*
X180450500Y-116639361D01*
X180450499Y-116360640D01*
X180449968Y-116356609D01*
X180447277Y-116336170D01*
X180435044Y-116243238D01*
X180435042Y-116243234D01*
X180426435Y-116222455D01*
X180418965Y-116152986D01*
X180426435Y-116127545D01*
X180435044Y-116106762D01*
X180450500Y-115989361D01*
X180450499Y-115710640D01*
X180450499Y-115710638D01*
X180450499Y-115710636D01*
X180435046Y-115593246D01*
X180435044Y-115593239D01*
X180435044Y-115593238D01*
X180374536Y-115447159D01*
X180278282Y-115321718D01*
X180152841Y-115225464D01*
X180006762Y-115164956D01*
X180006760Y-115164955D01*
X179889370Y-115149501D01*
X179889367Y-115149500D01*
X179889361Y-115149500D01*
X179889354Y-115149500D01*
X179200097Y-115149500D01*
X179133058Y-115129815D01*
X179112416Y-115113181D01*
X177556590Y-113557355D01*
X177556588Y-113557352D01*
X177437717Y-113438481D01*
X177437709Y-113438475D01*
X177340027Y-113382079D01*
X177340025Y-113382078D01*
X177300790Y-113359425D01*
X177300789Y-113359424D01*
X177288263Y-113356067D01*
X177148057Y-113318499D01*
X176989943Y-113318499D01*
X176982347Y-113318499D01*
X176982331Y-113318500D01*
X169979540Y-113318500D01*
X169938619Y-113329464D01*
X169938619Y-113329465D01*
X169901351Y-113339451D01*
X169826814Y-113359423D01*
X169826813Y-113359424D01*
X169751880Y-113402687D01*
X169689880Y-113419300D01*
X169678955Y-113419300D01*
X169524310Y-113450061D01*
X169524298Y-113450064D01*
X169378627Y-113510402D01*
X169378614Y-113510409D01*
X169247511Y-113598010D01*
X169247507Y-113598013D01*
X169136013Y-113709507D01*
X169136010Y-113709511D01*
X169048409Y-113840614D01*
X169048402Y-113840627D01*
X168988064Y-113986298D01*
X168988061Y-113986310D01*
X168957300Y-114140953D01*
X168957300Y-114298646D01*
X168988061Y-114453289D01*
X168988064Y-114453301D01*
X169048402Y-114598972D01*
X169048409Y-114598985D01*
X169136010Y-114730088D01*
X169136013Y-114730092D01*
X169247507Y-114841586D01*
X169247511Y-114841589D01*
X169378614Y-114929190D01*
X169378627Y-114929197D01*
X169524298Y-114989535D01*
X169524303Y-114989537D01*
X169662202Y-115016967D01*
X169678953Y-115020299D01*
X169678956Y-115020300D01*
X169678958Y-115020300D01*
X169836644Y-115020300D01*
X169836645Y-115020299D01*
X169991297Y-114989537D01*
X170136979Y-114929194D01*
X170268089Y-114841589D01*
X170379589Y-114730089D01*
X170467194Y-114598979D01*
X170467516Y-114598201D01*
X170468411Y-114596043D01*
X170469456Y-114594745D01*
X170470064Y-114593609D01*
X170470279Y-114593724D01*
X170480953Y-114580479D01*
X170489257Y-114562297D01*
X170502427Y-114553832D01*
X170512253Y-114541641D01*
X170531220Y-114535328D01*
X170548035Y-114524523D01*
X170575602Y-114520559D01*
X170578548Y-114519579D01*
X170582970Y-114519500D01*
X170809314Y-114519500D01*
X170876353Y-114539185D01*
X170922108Y-114591989D01*
X170930931Y-114619308D01*
X170957761Y-114754191D01*
X170957764Y-114754201D01*
X171018102Y-114899872D01*
X171018109Y-114899885D01*
X171105710Y-115030988D01*
X171105713Y-115030992D01*
X171217207Y-115142486D01*
X171217211Y-115142489D01*
X171348314Y-115230090D01*
X171348327Y-115230097D01*
X171493998Y-115290435D01*
X171494003Y-115290437D01*
X171558647Y-115303295D01*
X171649349Y-115321338D01*
X171711260Y-115353723D01*
X171712839Y-115355274D01*
X173345383Y-116987819D01*
X173378868Y-117049142D01*
X173373884Y-117118834D01*
X173332012Y-117174767D01*
X173266548Y-117199184D01*
X173257702Y-117199500D01*
X170448397Y-117199500D01*
X170381358Y-117179815D01*
X170360716Y-117163181D01*
X162417982Y-109220447D01*
X162384497Y-109159124D01*
X162389481Y-109089432D01*
X162431353Y-109033499D01*
X162496817Y-109009082D01*
X162510066Y-109009259D01*
X162510066Y-109009200D01*
X162673843Y-109009200D01*
X162701352Y-109003727D01*
X162793023Y-108985493D01*
X162862612Y-108991720D01*
G37*
%TD.AperFunction*%
%TA.AperFunction,Conductor*%
G36*
X199951540Y-76646707D02*
G01*
X199977097Y-76659787D01*
X200081414Y-76729490D01*
X200081427Y-76729497D01*
X200227098Y-76789835D01*
X200227103Y-76789837D01*
X200331648Y-76810632D01*
X200381747Y-76820598D01*
X200381748Y-76820598D01*
X200381758Y-76820600D01*
X200381767Y-76820600D01*
X200387645Y-76821179D01*
X200452434Y-76847335D01*
X200492797Y-76904367D01*
X200499500Y-76944583D01*
X200499500Y-78550001D01*
X200499501Y-78550018D01*
X200510000Y-78652796D01*
X200510001Y-78652799D01*
X200565185Y-78819331D01*
X200565187Y-78819336D01*
X200569503Y-78826333D01*
X200657288Y-78968656D01*
X200781344Y-79092712D01*
X200930666Y-79184814D01*
X201097203Y-79239999D01*
X201199991Y-79250500D01*
X201800008Y-79250499D01*
X201800016Y-79250498D01*
X201800019Y-79250498D01*
X201856302Y-79244748D01*
X201902797Y-79239999D01*
X202069334Y-79184814D01*
X202218656Y-79092712D01*
X202342712Y-78968656D01*
X202394755Y-78884279D01*
X202446701Y-78837556D01*
X202515664Y-78826333D01*
X202579746Y-78854176D01*
X202605831Y-78884280D01*
X202657680Y-78968340D01*
X202657683Y-78968344D01*
X202781654Y-79092315D01*
X202930875Y-79184356D01*
X202930880Y-79184358D01*
X203097302Y-79239505D01*
X203097309Y-79239506D01*
X203200019Y-79249999D01*
X203249999Y-79249998D01*
X203250000Y-79249998D01*
X203250000Y-77124000D01*
X203269685Y-77056961D01*
X203322489Y-77011206D01*
X203374000Y-77000000D01*
X203626000Y-77000000D01*
X203693039Y-77019685D01*
X203738794Y-77072489D01*
X203750000Y-77124000D01*
X203750000Y-79249999D01*
X203799972Y-79249999D01*
X203799986Y-79249998D01*
X203902697Y-79239505D01*
X204069119Y-79184358D01*
X204069126Y-79184355D01*
X204121557Y-79152015D01*
X204188950Y-79133574D01*
X204255613Y-79154496D01*
X204274336Y-79169872D01*
X204328584Y-79224120D01*
X204328585Y-79224121D01*
X204646984Y-79542520D01*
X204646986Y-79542521D01*
X204646990Y-79542524D01*
X204783909Y-79621573D01*
X204783916Y-79621577D01*
X204936643Y-79662501D01*
X204936645Y-79662501D01*
X205102354Y-79662501D01*
X205102370Y-79662500D01*
X205931331Y-79662500D01*
X205931347Y-79662501D01*
X205938943Y-79662501D01*
X206097054Y-79662501D01*
X206097057Y-79662501D01*
X206249785Y-79621577D01*
X206299904Y-79592639D01*
X206386716Y-79542520D01*
X206498520Y-79430716D01*
X206498520Y-79430714D01*
X206508728Y-79420507D01*
X206508730Y-79420504D01*
X206746144Y-79183089D01*
X206807465Y-79149606D01*
X206877157Y-79154590D01*
X206898919Y-79165233D01*
X206906441Y-79169872D01*
X206930666Y-79184814D01*
X207097203Y-79239999D01*
X207199991Y-79250500D01*
X207592400Y-79250499D01*
X207659439Y-79270183D01*
X207705194Y-79322987D01*
X207716400Y-79374499D01*
X207716400Y-92361730D01*
X207716399Y-92361748D01*
X207716399Y-92527454D01*
X207716398Y-92527454D01*
X207757323Y-92680185D01*
X207771313Y-92704416D01*
X207771312Y-92704416D01*
X207771313Y-92704417D01*
X207836375Y-92817109D01*
X207836381Y-92817117D01*
X207955249Y-92935985D01*
X207955255Y-92935990D01*
X208306481Y-93287216D01*
X208339966Y-93348539D01*
X208342800Y-93374897D01*
X208342800Y-99176000D01*
X208323115Y-99243039D01*
X208270311Y-99288794D01*
X208218800Y-99300000D01*
X207440000Y-99300000D01*
X207440000Y-101300000D01*
X208218800Y-101300000D01*
X208285839Y-101319685D01*
X208331594Y-101372489D01*
X208342800Y-101424000D01*
X208342800Y-102919057D01*
X208359628Y-102981858D01*
X208383723Y-103071783D01*
X208383726Y-103071790D01*
X208462775Y-103208709D01*
X208462779Y-103208714D01*
X208462780Y-103208716D01*
X208574584Y-103320520D01*
X208700343Y-103393126D01*
X208748558Y-103443692D01*
X208754525Y-103457180D01*
X208801202Y-103582328D01*
X208801206Y-103582335D01*
X208887452Y-103697544D01*
X208887455Y-103697547D01*
X209002664Y-103783793D01*
X209002671Y-103783797D01*
X209137517Y-103834091D01*
X209137516Y-103834091D01*
X209144444Y-103834835D01*
X209197127Y-103840500D01*
X211754500Y-103840499D01*
X211821539Y-103860184D01*
X211867294Y-103912987D01*
X211878500Y-103964499D01*
X211878500Y-106795500D01*
X211858815Y-106862539D01*
X211806011Y-106908294D01*
X211754500Y-106919500D01*
X209197129Y-106919500D01*
X209197123Y-106919501D01*
X209137516Y-106925908D01*
X209002671Y-106976202D01*
X209002664Y-106976206D01*
X208887455Y-107062452D01*
X208887452Y-107062455D01*
X208801206Y-107177664D01*
X208801203Y-107177669D01*
X208754525Y-107302819D01*
X208712653Y-107358752D01*
X208700343Y-107366872D01*
X208574587Y-107439477D01*
X208574582Y-107439481D01*
X208462781Y-107551282D01*
X208462775Y-107551290D01*
X208383726Y-107688209D01*
X208383723Y-107688216D01*
X208342800Y-107840943D01*
X208342800Y-109335500D01*
X208323115Y-109402539D01*
X208270311Y-109448294D01*
X208218800Y-109459500D01*
X205887129Y-109459500D01*
X205887123Y-109459501D01*
X205827516Y-109465908D01*
X205692671Y-109516202D01*
X205692664Y-109516206D01*
X205577455Y-109602452D01*
X205577452Y-109602455D01*
X205491206Y-109717664D01*
X205491202Y-109717671D01*
X205468391Y-109778833D01*
X205426520Y-109834767D01*
X205361056Y-109859184D01*
X205352209Y-109859500D01*
X168603887Y-109859500D01*
X168536848Y-109839815D01*
X168491093Y-109787011D01*
X168481149Y-109717853D01*
X168510174Y-109654297D01*
X168568952Y-109616523D01*
X168579695Y-109613883D01*
X168615234Y-109606813D01*
X168630197Y-109603837D01*
X168775879Y-109543494D01*
X168906989Y-109455889D01*
X169018489Y-109344389D01*
X169106094Y-109213279D01*
X169166437Y-109067597D01*
X169197200Y-108912942D01*
X169197200Y-108865573D01*
X169206641Y-108818115D01*
X169208472Y-108813692D01*
X169208477Y-108813684D01*
X169249401Y-108660957D01*
X169249401Y-108502842D01*
X169249401Y-108495247D01*
X169249400Y-108495229D01*
X169249400Y-105916745D01*
X169249399Y-105916738D01*
X169246942Y-105907569D01*
X169245004Y-105900335D01*
X169208477Y-105764015D01*
X169194579Y-105739944D01*
X169175595Y-105707062D01*
X169175594Y-105707061D01*
X169129421Y-105627086D01*
X169129420Y-105627084D01*
X169017616Y-105515280D01*
X169017615Y-105515279D01*
X169013285Y-105510949D01*
X169013274Y-105510939D01*
X167450690Y-103948355D01*
X167450688Y-103948352D01*
X167331817Y-103829481D01*
X167331816Y-103829480D01*
X167245004Y-103779360D01*
X167245004Y-103779359D01*
X167245000Y-103779358D01*
X167194885Y-103750423D01*
X167042157Y-103709499D01*
X166884043Y-103709499D01*
X166876447Y-103709499D01*
X166876431Y-103709500D01*
X154750094Y-103709500D01*
X154683055Y-103689815D01*
X154637300Y-103637011D01*
X154626804Y-103572246D01*
X154630500Y-103537873D01*
X154630499Y-102542128D01*
X154624091Y-102482517D01*
X154624091Y-102482515D01*
X154620791Y-102473669D01*
X154618399Y-102440245D01*
X154615212Y-102406864D01*
X154615913Y-102405503D01*
X154615804Y-102403978D01*
X154631865Y-102374561D01*
X154647228Y-102344762D01*
X154648818Y-102343511D01*
X154649287Y-102342653D01*
X154674972Y-102322945D01*
X154728351Y-102292127D01*
X154728351Y-102292126D01*
X154800416Y-102250520D01*
X154912220Y-102138716D01*
X154912220Y-102138714D01*
X154922424Y-102128511D01*
X154922427Y-102128506D01*
X158637821Y-98413113D01*
X158699142Y-98379630D01*
X158768834Y-98384614D01*
X158824767Y-98426486D01*
X158849184Y-98491950D01*
X158849500Y-98500794D01*
X158849500Y-98557869D01*
X158849501Y-98557876D01*
X158855908Y-98617483D01*
X158906202Y-98752328D01*
X158906206Y-98752335D01*
X158992452Y-98867544D01*
X158992455Y-98867547D01*
X159107664Y-98953793D01*
X159107671Y-98953797D01*
X159242517Y-99004091D01*
X159242516Y-99004091D01*
X159249444Y-99004835D01*
X159302127Y-99010500D01*
X163597872Y-99010499D01*
X163657483Y-99004091D01*
X163792331Y-98953796D01*
X163907546Y-98867546D01*
X163993796Y-98752331D01*
X164044091Y-98617483D01*
X164050500Y-98557873D01*
X164050499Y-94262128D01*
X164044091Y-94202517D01*
X164037646Y-94185238D01*
X163993797Y-94067671D01*
X163993793Y-94067664D01*
X163907547Y-93952455D01*
X163907544Y-93952452D01*
X163792335Y-93866206D01*
X163792328Y-93866202D01*
X163657482Y-93815908D01*
X163657483Y-93815908D01*
X163597883Y-93809501D01*
X163597881Y-93809500D01*
X163597873Y-93809500D01*
X163597865Y-93809500D01*
X160513397Y-93809500D01*
X160492151Y-93803261D01*
X160470063Y-93801682D01*
X160459279Y-93793609D01*
X160446358Y-93789815D01*
X160431858Y-93773081D01*
X160414130Y-93759810D01*
X160409422Y-93747189D01*
X160400603Y-93737011D01*
X160397451Y-93715093D01*
X160389713Y-93694346D01*
X160392575Y-93681185D01*
X160390659Y-93667853D01*
X160399858Y-93647709D01*
X160404565Y-93626073D01*
X160417833Y-93608347D01*
X160419684Y-93604297D01*
X160425716Y-93597819D01*
X160450516Y-93573019D01*
X160511839Y-93539534D01*
X160538197Y-93536700D01*
X165300431Y-93536700D01*
X165300447Y-93536701D01*
X165308043Y-93536701D01*
X165466154Y-93536701D01*
X165466157Y-93536701D01*
X165618885Y-93495777D01*
X165669004Y-93466839D01*
X165755816Y-93416720D01*
X165867620Y-93304916D01*
X165867620Y-93304914D01*
X165877828Y-93294707D01*
X165877830Y-93294704D01*
X169417821Y-89754712D01*
X169479142Y-89721229D01*
X169548834Y-89726213D01*
X169604767Y-89768085D01*
X169629184Y-89833549D01*
X169629500Y-89842395D01*
X169629500Y-90837870D01*
X169629501Y-90837876D01*
X169635908Y-90897481D01*
X169648659Y-90931669D01*
X169653642Y-91001361D01*
X169648659Y-91018331D01*
X169635908Y-91052518D01*
X169629501Y-91112116D01*
X169629501Y-91112123D01*
X169629500Y-91112135D01*
X169629500Y-92107870D01*
X169629501Y-92107876D01*
X169635908Y-92167481D01*
X169648659Y-92201669D01*
X169653642Y-92271361D01*
X169648659Y-92288331D01*
X169635908Y-92322518D01*
X169629501Y-92382116D01*
X169629501Y-92382123D01*
X169629500Y-92382135D01*
X169629500Y-93377870D01*
X169629501Y-93377876D01*
X169635908Y-93437481D01*
X169648659Y-93471669D01*
X169653642Y-93541361D01*
X169648659Y-93558331D01*
X169635908Y-93592518D01*
X169632301Y-93626073D01*
X169629501Y-93652123D01*
X169629500Y-93652135D01*
X169629500Y-94647870D01*
X169629501Y-94647876D01*
X169635908Y-94707481D01*
X169648659Y-94741669D01*
X169653642Y-94811361D01*
X169648659Y-94828331D01*
X169635908Y-94862518D01*
X169629501Y-94922116D01*
X169629501Y-94922123D01*
X169629500Y-94922135D01*
X169629500Y-95917870D01*
X169629501Y-95917876D01*
X169635908Y-95977481D01*
X169648659Y-96011669D01*
X169653642Y-96081361D01*
X169648659Y-96098331D01*
X169635908Y-96132518D01*
X169629501Y-96192116D01*
X169629501Y-96192123D01*
X169629500Y-96192135D01*
X169629500Y-97187870D01*
X169629501Y-97187876D01*
X169635908Y-97247481D01*
X169648659Y-97281669D01*
X169653642Y-97351361D01*
X169648659Y-97368331D01*
X169635908Y-97402518D01*
X169629501Y-97462116D01*
X169629501Y-97462123D01*
X169629500Y-97462135D01*
X169629500Y-98457870D01*
X169629501Y-98457876D01*
X169635908Y-98517481D01*
X169648659Y-98551669D01*
X169653642Y-98621361D01*
X169648659Y-98638331D01*
X169635908Y-98672518D01*
X169629501Y-98732116D01*
X169629501Y-98732123D01*
X169629500Y-98732135D01*
X169629500Y-99727870D01*
X169629501Y-99727876D01*
X169635908Y-99787481D01*
X169648659Y-99821669D01*
X169653642Y-99891361D01*
X169648659Y-99908331D01*
X169635908Y-99942518D01*
X169629501Y-100002116D01*
X169629501Y-100002123D01*
X169629500Y-100002135D01*
X169629500Y-100997870D01*
X169629501Y-100997876D01*
X169635908Y-101057481D01*
X169648659Y-101091669D01*
X169653642Y-101161361D01*
X169648659Y-101178331D01*
X169635908Y-101212518D01*
X169631879Y-101250000D01*
X169629501Y-101272123D01*
X169629500Y-101272135D01*
X169629500Y-102267870D01*
X169629501Y-102267876D01*
X169635908Y-102327481D01*
X169648659Y-102361669D01*
X169653642Y-102431361D01*
X169648659Y-102448331D01*
X169635908Y-102482518D01*
X169629501Y-102542116D01*
X169629501Y-102542123D01*
X169629500Y-102542135D01*
X169629500Y-103537870D01*
X169629501Y-103537876D01*
X169635908Y-103597481D01*
X169648659Y-103631669D01*
X169653642Y-103701361D01*
X169648659Y-103718331D01*
X169635908Y-103752518D01*
X169630965Y-103798502D01*
X169629501Y-103812123D01*
X169629500Y-103812135D01*
X169629500Y-104807870D01*
X169629501Y-104807876D01*
X169635908Y-104867481D01*
X169648659Y-104901669D01*
X169653642Y-104971361D01*
X169648659Y-104988331D01*
X169635908Y-105022518D01*
X169629501Y-105082116D01*
X169629501Y-105082123D01*
X169629500Y-105082135D01*
X169629501Y-106077866D01*
X169629501Y-106077876D01*
X169635908Y-106137483D01*
X169686202Y-106272328D01*
X169686206Y-106272335D01*
X169772452Y-106387544D01*
X169772455Y-106387547D01*
X169887664Y-106473793D01*
X169887671Y-106473797D01*
X170022517Y-106524091D01*
X170022516Y-106524091D01*
X170029444Y-106524835D01*
X170082127Y-106530500D01*
X171677872Y-106530499D01*
X171737483Y-106524091D01*
X171872331Y-106473796D01*
X171987546Y-106387546D01*
X172073796Y-106272331D01*
X172124091Y-106137483D01*
X172130500Y-106077873D01*
X172130500Y-105982953D01*
X193676600Y-105982953D01*
X193676600Y-106140646D01*
X193707361Y-106295289D01*
X193707364Y-106295301D01*
X193767702Y-106440972D01*
X193767709Y-106440985D01*
X193855310Y-106572088D01*
X193855313Y-106572092D01*
X193966807Y-106683586D01*
X193966811Y-106683589D01*
X194097914Y-106771190D01*
X194097927Y-106771197D01*
X194156601Y-106795500D01*
X194243603Y-106831537D01*
X194398253Y-106862299D01*
X194398256Y-106862300D01*
X194398258Y-106862300D01*
X194555944Y-106862300D01*
X194555945Y-106862299D01*
X194710597Y-106831537D01*
X194856279Y-106771194D01*
X194981840Y-106687297D01*
X194987975Y-106683198D01*
X195054653Y-106662320D01*
X195056866Y-106662300D01*
X204864831Y-106662300D01*
X204864847Y-106662301D01*
X204872443Y-106662301D01*
X205030554Y-106662301D01*
X205030557Y-106662301D01*
X205183285Y-106621377D01*
X205263305Y-106575177D01*
X205320216Y-106542320D01*
X205432020Y-106430516D01*
X205432020Y-106430514D01*
X205442223Y-106420312D01*
X205442227Y-106420306D01*
X205528663Y-106333870D01*
X205589984Y-106300387D01*
X205659676Y-106305371D01*
X205690655Y-106322288D01*
X205692669Y-106323796D01*
X205692670Y-106323796D01*
X205692671Y-106323797D01*
X205827517Y-106374091D01*
X205827516Y-106374091D01*
X205834444Y-106374835D01*
X205887127Y-106380500D01*
X208492872Y-106380499D01*
X208552483Y-106374091D01*
X208687331Y-106323796D01*
X208802546Y-106237546D01*
X208888796Y-106122331D01*
X208939091Y-105987483D01*
X208945500Y-105927873D01*
X208945499Y-104832128D01*
X208939091Y-104772517D01*
X208903396Y-104676815D01*
X208888797Y-104637671D01*
X208888793Y-104637664D01*
X208802547Y-104522455D01*
X208802544Y-104522452D01*
X208687335Y-104436206D01*
X208687328Y-104436202D01*
X208552482Y-104385908D01*
X208552483Y-104385908D01*
X208492883Y-104379501D01*
X208492881Y-104379500D01*
X208492873Y-104379500D01*
X208492864Y-104379500D01*
X205887129Y-104379500D01*
X205887123Y-104379501D01*
X205827516Y-104385908D01*
X205692671Y-104436202D01*
X205692664Y-104436206D01*
X205577455Y-104522452D01*
X205577452Y-104522455D01*
X205491206Y-104637664D01*
X205491203Y-104637669D01*
X205444525Y-104762819D01*
X205429541Y-104782833D01*
X205418088Y-104805052D01*
X205405493Y-104814957D01*
X205402653Y-104818752D01*
X205390346Y-104826871D01*
X205375103Y-104835671D01*
X205351395Y-104849360D01*
X205320008Y-104867481D01*
X205264585Y-104899479D01*
X205264582Y-104899481D01*
X205192703Y-104971361D01*
X205152780Y-105011284D01*
X205152778Y-105011286D01*
X204936440Y-105227625D01*
X204739084Y-105424981D01*
X204677761Y-105458466D01*
X204651403Y-105461300D01*
X195056866Y-105461300D01*
X194989827Y-105441615D01*
X194987975Y-105440402D01*
X194856285Y-105352409D01*
X194856272Y-105352402D01*
X194710601Y-105292064D01*
X194710589Y-105292061D01*
X194555945Y-105261300D01*
X194555942Y-105261300D01*
X194398258Y-105261300D01*
X194398255Y-105261300D01*
X194243610Y-105292061D01*
X194243598Y-105292064D01*
X194097927Y-105352402D01*
X194097914Y-105352409D01*
X193966811Y-105440010D01*
X193966807Y-105440013D01*
X193855313Y-105551507D01*
X193855310Y-105551511D01*
X193767709Y-105682614D01*
X193767702Y-105682627D01*
X193707364Y-105828298D01*
X193707361Y-105828310D01*
X193676600Y-105982953D01*
X172130500Y-105982953D01*
X172130499Y-105580000D01*
X172130499Y-105082129D01*
X172130498Y-105082123D01*
X172130497Y-105082116D01*
X172124091Y-105022517D01*
X172111340Y-104988332D01*
X172106357Y-104918642D01*
X172111340Y-104901669D01*
X172124091Y-104867483D01*
X172130500Y-104807873D01*
X172130499Y-103812128D01*
X172124091Y-103752517D01*
X172111340Y-103718332D01*
X172106357Y-103648642D01*
X172111340Y-103631669D01*
X172124091Y-103597483D01*
X172130500Y-103537873D01*
X172130499Y-102542128D01*
X172124091Y-102482517D01*
X172111340Y-102448332D01*
X172106357Y-102378642D01*
X172111340Y-102361669D01*
X172124091Y-102327483D01*
X172130500Y-102267873D01*
X172130499Y-101272128D01*
X172124091Y-101212517D01*
X172111340Y-101178332D01*
X172106357Y-101108642D01*
X172111340Y-101091669D01*
X172124091Y-101057483D01*
X172130500Y-100997873D01*
X172130500Y-100847844D01*
X205435000Y-100847844D01*
X205441401Y-100907372D01*
X205441403Y-100907379D01*
X205491645Y-101042086D01*
X205491649Y-101042093D01*
X205577809Y-101157187D01*
X205577812Y-101157190D01*
X205692906Y-101243350D01*
X205692913Y-101243354D01*
X205827620Y-101293596D01*
X205827627Y-101293598D01*
X205887155Y-101299999D01*
X205887172Y-101300000D01*
X206940000Y-101300000D01*
X206940000Y-100550000D01*
X205435000Y-100550000D01*
X205435000Y-100847844D01*
X172130500Y-100847844D01*
X172130499Y-100002128D01*
X172124091Y-99942517D01*
X172111340Y-99908332D01*
X172110063Y-99890464D01*
X172103827Y-99873674D01*
X172107195Y-99850361D01*
X172106357Y-99838642D01*
X172106394Y-99838473D01*
X172108272Y-99829893D01*
X172124091Y-99787483D01*
X172127889Y-99752155D01*
X205435000Y-99752155D01*
X205435000Y-100050000D01*
X206940000Y-100050000D01*
X206940000Y-99300000D01*
X205887155Y-99300000D01*
X205827627Y-99306401D01*
X205827620Y-99306403D01*
X205692913Y-99356645D01*
X205692906Y-99356649D01*
X205577812Y-99442809D01*
X205577809Y-99442812D01*
X205491649Y-99557906D01*
X205491645Y-99557913D01*
X205441403Y-99692620D01*
X205441401Y-99692627D01*
X205435000Y-99752155D01*
X172127889Y-99752155D01*
X172130500Y-99727873D01*
X172130499Y-98732128D01*
X172124091Y-98672517D01*
X172111340Y-98638332D01*
X172106357Y-98568642D01*
X172111340Y-98551669D01*
X172124091Y-98517483D01*
X172130500Y-98457873D01*
X172130499Y-97462128D01*
X172124091Y-97402517D01*
X172111340Y-97368332D01*
X172106357Y-97298642D01*
X172111340Y-97281669D01*
X172124091Y-97247483D01*
X172130500Y-97187873D01*
X172130499Y-96192128D01*
X172124091Y-96132517D01*
X172111340Y-96098332D01*
X172106357Y-96028642D01*
X172111340Y-96011669D01*
X172124091Y-95977483D01*
X172130500Y-95917873D01*
X172130499Y-94922128D01*
X172124091Y-94862517D01*
X172111340Y-94828332D01*
X172106357Y-94758642D01*
X172111340Y-94741669D01*
X172124091Y-94707483D01*
X172130500Y-94647873D01*
X172130499Y-93652128D01*
X172124091Y-93592517D01*
X172111340Y-93558332D01*
X172106357Y-93488642D01*
X172111340Y-93471669D01*
X172124091Y-93437483D01*
X172130500Y-93377873D01*
X172130499Y-92382128D01*
X172124091Y-92322517D01*
X172111340Y-92288332D01*
X172106357Y-92218642D01*
X172111340Y-92201669D01*
X172124091Y-92167483D01*
X172130500Y-92107873D01*
X172130499Y-91112128D01*
X172124091Y-91052517D01*
X172111340Y-91018332D01*
X172106357Y-90948642D01*
X172111340Y-90931669D01*
X172124091Y-90897483D01*
X172130500Y-90837873D01*
X172130499Y-89842128D01*
X172124091Y-89782517D01*
X172111340Y-89748332D01*
X172106357Y-89678642D01*
X172111338Y-89661672D01*
X172124091Y-89627483D01*
X172130500Y-89567873D01*
X172130499Y-89042799D01*
X172150183Y-88975761D01*
X172202987Y-88930006D01*
X172254499Y-88918800D01*
X187241531Y-88918800D01*
X187241547Y-88918801D01*
X187249143Y-88918801D01*
X187407254Y-88918801D01*
X187407257Y-88918801D01*
X187559985Y-88877877D01*
X187628679Y-88838216D01*
X187696916Y-88798820D01*
X187808720Y-88687016D01*
X187808720Y-88687014D01*
X187818924Y-88676811D01*
X187818928Y-88676806D01*
X195245749Y-81249984D01*
X197899500Y-81249984D01*
X197899500Y-84250015D01*
X197910000Y-84352795D01*
X197910001Y-84352796D01*
X197965186Y-84519335D01*
X197965187Y-84519337D01*
X198057286Y-84668651D01*
X198057289Y-84668655D01*
X198181344Y-84792710D01*
X198181348Y-84792713D01*
X198330662Y-84884812D01*
X198330664Y-84884813D01*
X198330666Y-84884814D01*
X198497203Y-84939999D01*
X198599992Y-84950500D01*
X198599997Y-84950500D01*
X199700003Y-84950500D01*
X199700008Y-84950500D01*
X199802797Y-84939999D01*
X199969334Y-84884814D01*
X200118655Y-84792711D01*
X200242711Y-84668655D01*
X200334814Y-84519334D01*
X200389999Y-84352797D01*
X200400500Y-84250008D01*
X200400500Y-81249992D01*
X200389999Y-81147203D01*
X200334814Y-80980666D01*
X200286783Y-80902797D01*
X200242713Y-80831348D01*
X200242710Y-80831344D01*
X200118655Y-80707289D01*
X200118651Y-80707286D01*
X199969337Y-80615187D01*
X199969335Y-80615186D01*
X199871494Y-80582765D01*
X199802797Y-80560001D01*
X199802795Y-80560000D01*
X199700015Y-80549500D01*
X199700008Y-80549500D01*
X198599992Y-80549500D01*
X198599984Y-80549500D01*
X198497204Y-80560000D01*
X198497203Y-80560001D01*
X198330664Y-80615186D01*
X198330662Y-80615187D01*
X198181348Y-80707286D01*
X198181344Y-80707289D01*
X198057289Y-80831344D01*
X198057286Y-80831348D01*
X197965187Y-80980662D01*
X197965186Y-80980664D01*
X197910001Y-81147203D01*
X197910000Y-81147204D01*
X197899500Y-81249984D01*
X195245749Y-81249984D01*
X199820527Y-76675206D01*
X199881848Y-76641723D01*
X199951540Y-76646707D01*
G37*
%TD.AperFunction*%
%TA.AperFunction,Conductor*%
G36*
X166730042Y-104930185D02*
G01*
X166750684Y-104946819D01*
X167172373Y-105368508D01*
X167205858Y-105429831D01*
X167200874Y-105499523D01*
X167159002Y-105555456D01*
X167093538Y-105579873D01*
X167081149Y-105579985D01*
X167081149Y-105580000D01*
X167079522Y-105580000D01*
X167078087Y-105580013D01*
X167077843Y-105580000D01*
X166830000Y-105580000D01*
X166830000Y-108080000D01*
X167077828Y-108080000D01*
X167077844Y-108079999D01*
X167137372Y-108073598D01*
X167137375Y-108073597D01*
X167170949Y-108061075D01*
X167240640Y-108056089D01*
X167257619Y-108061075D01*
X167292511Y-108074089D01*
X167292517Y-108074091D01*
X167352127Y-108080500D01*
X167718860Y-108080499D01*
X167785898Y-108100183D01*
X167831653Y-108152987D01*
X167841597Y-108222146D01*
X167812572Y-108285701D01*
X167806541Y-108292179D01*
X167774914Y-108323806D01*
X167774910Y-108323811D01*
X167687309Y-108454914D01*
X167687302Y-108454927D01*
X167626964Y-108600598D01*
X167626961Y-108600610D01*
X167596200Y-108755253D01*
X167596200Y-108912946D01*
X167626961Y-109067589D01*
X167626964Y-109067601D01*
X167657902Y-109142292D01*
X167665371Y-109211761D01*
X167634096Y-109274240D01*
X167574006Y-109309892D01*
X167504181Y-109307398D01*
X167455660Y-109277425D01*
X166366319Y-108188084D01*
X166332834Y-108126761D01*
X166330000Y-108100403D01*
X166330000Y-105580000D01*
X166082155Y-105580000D01*
X166022627Y-105586401D01*
X166022619Y-105586403D01*
X165989047Y-105598925D01*
X165919355Y-105603909D01*
X165902381Y-105598925D01*
X165867482Y-105585908D01*
X165867483Y-105585908D01*
X165807883Y-105579501D01*
X165807881Y-105579500D01*
X165807873Y-105579500D01*
X165807864Y-105579500D01*
X164812129Y-105579500D01*
X164812123Y-105579501D01*
X164752518Y-105585908D01*
X164718331Y-105598659D01*
X164648639Y-105603642D01*
X164631669Y-105598659D01*
X164598810Y-105586404D01*
X164597483Y-105585909D01*
X164597482Y-105585908D01*
X164537883Y-105579501D01*
X164537881Y-105579500D01*
X164537873Y-105579500D01*
X164537864Y-105579500D01*
X163542129Y-105579500D01*
X163542123Y-105579501D01*
X163482518Y-105585908D01*
X163448331Y-105598659D01*
X163378639Y-105603642D01*
X163361669Y-105598659D01*
X163328810Y-105586404D01*
X163327483Y-105585909D01*
X163327482Y-105585908D01*
X163267883Y-105579501D01*
X163267881Y-105579500D01*
X163267873Y-105579500D01*
X163267864Y-105579500D01*
X162272129Y-105579500D01*
X162272123Y-105579501D01*
X162212520Y-105585908D01*
X162212517Y-105585908D01*
X162212517Y-105585909D01*
X162177620Y-105598925D01*
X162177617Y-105598926D01*
X162107925Y-105603909D01*
X162090952Y-105598925D01*
X162057379Y-105586403D01*
X162057372Y-105586401D01*
X161997844Y-105580000D01*
X161750000Y-105580000D01*
X161750000Y-108080000D01*
X161758181Y-108088181D01*
X161772783Y-108114923D01*
X161789353Y-108140506D01*
X161790298Y-108146999D01*
X161791666Y-108149504D01*
X161794499Y-108175423D01*
X161794500Y-108175705D01*
X161794500Y-108287542D01*
X161794903Y-108289570D01*
X161794932Y-108297597D01*
X161786774Y-108325746D01*
X161781310Y-108354542D01*
X161777162Y-108358916D01*
X161775485Y-108364705D01*
X161753406Y-108383973D01*
X161733239Y-108405246D01*
X161727385Y-108406683D01*
X161722844Y-108410647D01*
X161693848Y-108414921D01*
X161665386Y-108421912D01*
X161659684Y-108419956D01*
X161653721Y-108420836D01*
X161627017Y-108408754D01*
X161599294Y-108399248D01*
X161591531Y-108392700D01*
X161590063Y-108392036D01*
X161589243Y-108390770D01*
X161583252Y-108385717D01*
X161286319Y-108088784D01*
X161252834Y-108027461D01*
X161250000Y-108001103D01*
X161250000Y-105580000D01*
X161002155Y-105580000D01*
X160942627Y-105586401D01*
X160942615Y-105586404D01*
X160933909Y-105589651D01*
X160864217Y-105594630D01*
X160802896Y-105561141D01*
X160783199Y-105535469D01*
X160710520Y-105409584D01*
X160598716Y-105297780D01*
X160598715Y-105297779D01*
X160594385Y-105293449D01*
X160594374Y-105293439D01*
X160423116Y-105122181D01*
X160389631Y-105060858D01*
X160394615Y-104991166D01*
X160436487Y-104935233D01*
X160501951Y-104910816D01*
X160510797Y-104910500D01*
X166663003Y-104910500D01*
X166730042Y-104930185D01*
G37*
%TD.AperFunction*%
%TA.AperFunction,Conductor*%
G36*
X115869334Y-91482413D02*
G01*
X115925267Y-91524285D01*
X115949684Y-91589749D01*
X115950000Y-91598595D01*
X115950000Y-91750000D01*
X116826000Y-91750000D01*
X116893039Y-91769685D01*
X116938794Y-91822489D01*
X116950000Y-91874000D01*
X116950000Y-92126000D01*
X116930315Y-92193039D01*
X116877511Y-92238794D01*
X116826000Y-92250000D01*
X115950001Y-92250000D01*
X115950001Y-92524986D01*
X115960494Y-92627697D01*
X115994161Y-92729296D01*
X115996563Y-92799124D01*
X115960831Y-92859166D01*
X115898311Y-92890359D01*
X115876455Y-92892300D01*
X115474071Y-92892300D01*
X115407032Y-92872615D01*
X115361277Y-92819811D01*
X115351333Y-92750653D01*
X115356365Y-92729296D01*
X115389999Y-92627797D01*
X115400500Y-92525009D01*
X115400499Y-91900095D01*
X115420183Y-91833057D01*
X115436813Y-91812420D01*
X115738322Y-91510912D01*
X115799642Y-91477429D01*
X115869334Y-91482413D01*
G37*
%TD.AperFunction*%
%TA.AperFunction,Conductor*%
G36*
X218443039Y-51019685D02*
G01*
X218488794Y-51072489D01*
X218500000Y-51124000D01*
X218500000Y-147376000D01*
X218480315Y-147443039D01*
X218427511Y-147488794D01*
X218376000Y-147500000D01*
X101624000Y-147500000D01*
X101556961Y-147480315D01*
X101511206Y-147427511D01*
X101500000Y-147376000D01*
X101500000Y-140999984D01*
X107749500Y-140999984D01*
X107749500Y-144000015D01*
X107760000Y-144102795D01*
X107760001Y-144102797D01*
X107787593Y-144186065D01*
X107815186Y-144269335D01*
X107815187Y-144269337D01*
X107907286Y-144418651D01*
X107907289Y-144418655D01*
X108031344Y-144542710D01*
X108031348Y-144542713D01*
X108180662Y-144634812D01*
X108180664Y-144634813D01*
X108180666Y-144634814D01*
X108347203Y-144689999D01*
X108449992Y-144700500D01*
X108449997Y-144700500D01*
X109550003Y-144700500D01*
X109550008Y-144700500D01*
X109652797Y-144689999D01*
X109819334Y-144634814D01*
X109968655Y-144542711D01*
X110092711Y-144418655D01*
X110184814Y-144269334D01*
X110239999Y-144102797D01*
X110250500Y-144000008D01*
X110250500Y-140999992D01*
X110250499Y-140999984D01*
X114449500Y-140999984D01*
X114449500Y-144000015D01*
X114460000Y-144102795D01*
X114460001Y-144102797D01*
X114487593Y-144186065D01*
X114515186Y-144269335D01*
X114515187Y-144269337D01*
X114607286Y-144418651D01*
X114607289Y-144418655D01*
X114731344Y-144542710D01*
X114731348Y-144542713D01*
X114880662Y-144634812D01*
X114880664Y-144634813D01*
X114880666Y-144634814D01*
X115047203Y-144689999D01*
X115149992Y-144700500D01*
X115149997Y-144700500D01*
X116250003Y-144700500D01*
X116250008Y-144700500D01*
X116352797Y-144689999D01*
X116519334Y-144634814D01*
X116668655Y-144542711D01*
X116792711Y-144418655D01*
X116884814Y-144269334D01*
X116939999Y-144102797D01*
X116950500Y-144000008D01*
X116950500Y-140999992D01*
X116939999Y-140897203D01*
X116884814Y-140730666D01*
X116870238Y-140707035D01*
X116792713Y-140581348D01*
X116792710Y-140581344D01*
X116668655Y-140457289D01*
X116668651Y-140457286D01*
X116519337Y-140365187D01*
X116519335Y-140365186D01*
X116436065Y-140337593D01*
X116352797Y-140310001D01*
X116352795Y-140310000D01*
X116250015Y-140299500D01*
X116250008Y-140299500D01*
X115149992Y-140299500D01*
X115149984Y-140299500D01*
X115047204Y-140310000D01*
X115047203Y-140310001D01*
X114880664Y-140365186D01*
X114880662Y-140365187D01*
X114731348Y-140457286D01*
X114731344Y-140457289D01*
X114607289Y-140581344D01*
X114607286Y-140581348D01*
X114515187Y-140730662D01*
X114515186Y-140730664D01*
X114460001Y-140897203D01*
X114460000Y-140897204D01*
X114449500Y-140999984D01*
X110250499Y-140999984D01*
X110239999Y-140897203D01*
X110184814Y-140730666D01*
X110170238Y-140707035D01*
X110092713Y-140581348D01*
X110092710Y-140581344D01*
X109968655Y-140457289D01*
X109968651Y-140457286D01*
X109819337Y-140365187D01*
X109819335Y-140365186D01*
X109736065Y-140337593D01*
X109652797Y-140310001D01*
X109652795Y-140310000D01*
X109550015Y-140299500D01*
X109550008Y-140299500D01*
X108449992Y-140299500D01*
X108449984Y-140299500D01*
X108347204Y-140310000D01*
X108347203Y-140310001D01*
X108180664Y-140365186D01*
X108180662Y-140365187D01*
X108031348Y-140457286D01*
X108031344Y-140457289D01*
X107907289Y-140581344D01*
X107907286Y-140581348D01*
X107815187Y-140730662D01*
X107815186Y-140730664D01*
X107760001Y-140897203D01*
X107760000Y-140897204D01*
X107749500Y-140999984D01*
X101500000Y-140999984D01*
X101500000Y-125152135D01*
X107849500Y-125152135D01*
X107849500Y-126047870D01*
X107849501Y-126047876D01*
X107855908Y-126107483D01*
X107906202Y-126242328D01*
X107906206Y-126242335D01*
X107992452Y-126357544D01*
X107992455Y-126357547D01*
X108107664Y-126443793D01*
X108107671Y-126443797D01*
X108242517Y-126494091D01*
X108242516Y-126494091D01*
X108249444Y-126494835D01*
X108302127Y-126500500D01*
X109397872Y-126500499D01*
X109457483Y-126494091D01*
X109592331Y-126443796D01*
X109707546Y-126357546D01*
X109793796Y-126242331D01*
X109844091Y-126107483D01*
X109850500Y-126047873D01*
X109850499Y-125152128D01*
X109844091Y-125092517D01*
X109826038Y-125044115D01*
X109793797Y-124957671D01*
X109793793Y-124957664D01*
X109707547Y-124842455D01*
X109707544Y-124842452D01*
X109592335Y-124756206D01*
X109592328Y-124756202D01*
X109457482Y-124705908D01*
X109457483Y-124705908D01*
X109397883Y-124699501D01*
X109397881Y-124699500D01*
X109397873Y-124699500D01*
X109397864Y-124699500D01*
X108302129Y-124699500D01*
X108302123Y-124699501D01*
X108242516Y-124705908D01*
X108107671Y-124756202D01*
X108107664Y-124756206D01*
X107992455Y-124842452D01*
X107992452Y-124842455D01*
X107906206Y-124957664D01*
X107906202Y-124957671D01*
X107855908Y-125092517D01*
X107849501Y-125152116D01*
X107849501Y-125152123D01*
X107849500Y-125152135D01*
X101500000Y-125152135D01*
X101500000Y-111999984D01*
X107899500Y-111999984D01*
X107899500Y-115000015D01*
X107910000Y-115102795D01*
X107910001Y-115102797D01*
X107937593Y-115186065D01*
X107965186Y-115269335D01*
X107965187Y-115269337D01*
X108057286Y-115418651D01*
X108057289Y-115418655D01*
X108181344Y-115542710D01*
X108181348Y-115542713D01*
X108330662Y-115634812D01*
X108330664Y-115634813D01*
X108330666Y-115634814D01*
X108497203Y-115689999D01*
X108599992Y-115700500D01*
X108599997Y-115700500D01*
X109700003Y-115700500D01*
X109700008Y-115700500D01*
X109802797Y-115689999D01*
X109969334Y-115634814D01*
X110118655Y-115542711D01*
X110242711Y-115418655D01*
X110334814Y-115269334D01*
X110389999Y-115102797D01*
X110400500Y-115000008D01*
X110400500Y-111999992D01*
X110389999Y-111897203D01*
X110334814Y-111730666D01*
X110242711Y-111581345D01*
X110118655Y-111457289D01*
X110118651Y-111457286D01*
X109969337Y-111365187D01*
X109969335Y-111365186D01*
X109886065Y-111337593D01*
X109802797Y-111310001D01*
X109802795Y-111310000D01*
X109700015Y-111299500D01*
X109700008Y-111299500D01*
X108599992Y-111299500D01*
X108599984Y-111299500D01*
X108497204Y-111310000D01*
X108497203Y-111310001D01*
X108330664Y-111365186D01*
X108330662Y-111365187D01*
X108181348Y-111457286D01*
X108181344Y-111457289D01*
X108057289Y-111581344D01*
X108057286Y-111581348D01*
X107965187Y-111730662D01*
X107965186Y-111730664D01*
X107910001Y-111897203D01*
X107910000Y-111897204D01*
X107899500Y-111999984D01*
X101500000Y-111999984D01*
X101500000Y-101816454D01*
X106638198Y-101816454D01*
X106642763Y-101833490D01*
X106679123Y-101969185D01*
X106682231Y-101974568D01*
X106686782Y-101982452D01*
X106686784Y-101982454D01*
X106758177Y-102106112D01*
X106758181Y-102106117D01*
X106877049Y-102224985D01*
X106877055Y-102224990D01*
X109779839Y-105127774D01*
X109779849Y-105127785D01*
X109784179Y-105132115D01*
X109784180Y-105132116D01*
X109895984Y-105243920D01*
X109979371Y-105292063D01*
X110032915Y-105322977D01*
X110185642Y-105363900D01*
X110185643Y-105363900D01*
X110802903Y-105363900D01*
X110832343Y-105372544D01*
X110862330Y-105379068D01*
X110867345Y-105382822D01*
X110869942Y-105383585D01*
X110890584Y-105400219D01*
X110897016Y-105406651D01*
X110930501Y-105467974D01*
X110925517Y-105537666D01*
X110883645Y-105593599D01*
X110874432Y-105599870D01*
X110781347Y-105657285D01*
X110781343Y-105657288D01*
X110657289Y-105781342D01*
X110565187Y-105930663D01*
X110565185Y-105930668D01*
X110551318Y-105972517D01*
X110510001Y-106097203D01*
X110510001Y-106097204D01*
X110510000Y-106097204D01*
X110499500Y-106199983D01*
X110499500Y-109300001D01*
X110499501Y-109300018D01*
X110510000Y-109402796D01*
X110510001Y-109402799D01*
X110530914Y-109465908D01*
X110565186Y-109569334D01*
X110657288Y-109718656D01*
X110781344Y-109842712D01*
X110840596Y-109879258D01*
X110887321Y-109931204D01*
X110899500Y-109984797D01*
X110899500Y-120138202D01*
X110879815Y-120205241D01*
X110863181Y-120225883D01*
X109769481Y-121319582D01*
X109769477Y-121319587D01*
X109748312Y-121356247D01*
X109748306Y-121356258D01*
X109745777Y-121360640D01*
X109690423Y-121456515D01*
X109676786Y-121507402D01*
X109671996Y-121517527D01*
X109655907Y-121535592D01*
X109643319Y-121556244D01*
X109634223Y-121563755D01*
X109542452Y-121632455D01*
X109456206Y-121747664D01*
X109456202Y-121747671D01*
X109405908Y-121882517D01*
X109399501Y-121942116D01*
X109399501Y-121942123D01*
X109399500Y-121942135D01*
X109399500Y-122365500D01*
X109379815Y-122432539D01*
X109327011Y-122478294D01*
X109275500Y-122489500D01*
X108302129Y-122489500D01*
X108302123Y-122489501D01*
X108242516Y-122495908D01*
X108107671Y-122546202D01*
X108107664Y-122546206D01*
X107992455Y-122632452D01*
X107992452Y-122632455D01*
X107906206Y-122747664D01*
X107906202Y-122747671D01*
X107855908Y-122882517D01*
X107850673Y-122931215D01*
X107849501Y-122942123D01*
X107849500Y-122942135D01*
X107849500Y-123837870D01*
X107849501Y-123837876D01*
X107855908Y-123897483D01*
X107906202Y-124032328D01*
X107906206Y-124032335D01*
X107992452Y-124147544D01*
X107992455Y-124147547D01*
X108107664Y-124233793D01*
X108107671Y-124233797D01*
X108242517Y-124284091D01*
X108242516Y-124284091D01*
X108249444Y-124284835D01*
X108302127Y-124290500D01*
X109397872Y-124290499D01*
X109457483Y-124284091D01*
X109592331Y-124233796D01*
X109707546Y-124147546D01*
X109787915Y-124040185D01*
X109843847Y-123998317D01*
X109887174Y-123990499D01*
X110267321Y-123990499D01*
X110334359Y-124010184D01*
X110380114Y-124062988D01*
X110390058Y-124132146D01*
X110380271Y-124162027D01*
X110381556Y-124162560D01*
X110326421Y-124295667D01*
X110326418Y-124295677D01*
X110299500Y-124431004D01*
X110299500Y-124431007D01*
X110299500Y-124568993D01*
X110299500Y-124568995D01*
X110299499Y-124568995D01*
X110326418Y-124704322D01*
X110326421Y-124704332D01*
X110379221Y-124831804D01*
X110379228Y-124831817D01*
X110455885Y-124946541D01*
X110455888Y-124946545D01*
X110553454Y-125044111D01*
X110553458Y-125044114D01*
X110668182Y-125120771D01*
X110668195Y-125120778D01*
X110793028Y-125172485D01*
X110795672Y-125173580D01*
X110795676Y-125173580D01*
X110795677Y-125173581D01*
X110931004Y-125200500D01*
X110931007Y-125200500D01*
X111068995Y-125200500D01*
X111160041Y-125182389D01*
X111204328Y-125173580D01*
X111331811Y-125120775D01*
X111446542Y-125044114D01*
X111543884Y-124946771D01*
X111605205Y-124913288D01*
X111674897Y-124918272D01*
X111730831Y-124960143D01*
X111749684Y-124996722D01*
X111754699Y-125012421D01*
X111754699Y-125019757D01*
X111795623Y-125172485D01*
X111811798Y-125200500D01*
X111852223Y-125270520D01*
X111874679Y-125309415D01*
X111993549Y-125428285D01*
X111993555Y-125428290D01*
X118400484Y-131835219D01*
X118433969Y-131896542D01*
X118428985Y-131966234D01*
X118387113Y-132022167D01*
X118321649Y-132046584D01*
X118312803Y-132046900D01*
X117539270Y-132046900D01*
X117539254Y-132046899D01*
X117531658Y-132046899D01*
X117373543Y-132046899D01*
X117297179Y-132067361D01*
X117220814Y-132087823D01*
X117220809Y-132087826D01*
X117083890Y-132166875D01*
X117083882Y-132166881D01*
X114409166Y-134841597D01*
X114347843Y-134875082D01*
X114278151Y-134870098D01*
X114222218Y-134828226D01*
X114215946Y-134819013D01*
X114210016Y-134809399D01*
X114192712Y-134781344D01*
X114068656Y-134657288D01*
X113971237Y-134597200D01*
X113919336Y-134565187D01*
X113919331Y-134565185D01*
X113917862Y-134564698D01*
X113752797Y-134510001D01*
X113752795Y-134510000D01*
X113650010Y-134499500D01*
X113049998Y-134499500D01*
X113049980Y-134499501D01*
X112947203Y-134510000D01*
X112947200Y-134510001D01*
X112780668Y-134565185D01*
X112780663Y-134565187D01*
X112631342Y-134657289D01*
X112507289Y-134781342D01*
X112455539Y-134865243D01*
X112403591Y-134911967D01*
X112334628Y-134923190D01*
X112270546Y-134895346D01*
X112244461Y-134865243D01*
X112242141Y-134861481D01*
X112192712Y-134781344D01*
X112068656Y-134657288D01*
X111971237Y-134597200D01*
X111919336Y-134565187D01*
X111919331Y-134565185D01*
X111917862Y-134564698D01*
X111752797Y-134510001D01*
X111752795Y-134510000D01*
X111650010Y-134499500D01*
X111049998Y-134499500D01*
X111049980Y-134499501D01*
X110947203Y-134510000D01*
X110947200Y-134510001D01*
X110780668Y-134565185D01*
X110780663Y-134565187D01*
X110631342Y-134657289D01*
X110507289Y-134781342D01*
X110415187Y-134930663D01*
X110415185Y-134930668D01*
X110408432Y-134951047D01*
X110360001Y-135097203D01*
X110360001Y-135097204D01*
X110360000Y-135097204D01*
X110349500Y-135199983D01*
X110349500Y-138300001D01*
X110349501Y-138300018D01*
X110360000Y-138402796D01*
X110360001Y-138402799D01*
X110415185Y-138569331D01*
X110415186Y-138569334D01*
X110507288Y-138718656D01*
X110631344Y-138842712D01*
X110780666Y-138934814D01*
X110947203Y-138989999D01*
X111049991Y-139000500D01*
X111650008Y-139000499D01*
X111650016Y-139000498D01*
X111650019Y-139000498D01*
X111706302Y-138994748D01*
X111752797Y-138989999D01*
X111919334Y-138934814D01*
X111977983Y-138898639D01*
X112045375Y-138880198D01*
X112112039Y-138901120D01*
X112130761Y-138916496D01*
X112440839Y-139226574D01*
X112440849Y-139226585D01*
X112445179Y-139230915D01*
X112445180Y-139230916D01*
X112556984Y-139342720D01*
X112643795Y-139392839D01*
X112643797Y-139392841D01*
X112693913Y-139421776D01*
X112693915Y-139421777D01*
X112846642Y-139462700D01*
X112846643Y-139462700D01*
X121152731Y-139462700D01*
X121152747Y-139462701D01*
X121160343Y-139462701D01*
X121318454Y-139462701D01*
X121318457Y-139462701D01*
X121471185Y-139421777D01*
X121521304Y-139392839D01*
X121608116Y-139342720D01*
X121719920Y-139230916D01*
X121719920Y-139230914D01*
X121730128Y-139220707D01*
X121730129Y-139220704D01*
X124815716Y-136135119D01*
X124877039Y-136101634D01*
X124903397Y-136098800D01*
X129368539Y-136098800D01*
X129435578Y-136118485D01*
X129481333Y-136171289D01*
X129491277Y-136240447D01*
X129462252Y-136304003D01*
X129456220Y-136310481D01*
X129254807Y-136511893D01*
X129024150Y-136792950D01*
X129024140Y-136792964D01*
X128822151Y-137095261D01*
X128822140Y-137095279D01*
X128650756Y-137415916D01*
X128650754Y-137415921D01*
X128511614Y-137751834D01*
X128406067Y-138099776D01*
X128406064Y-138099787D01*
X128335137Y-138456369D01*
X128312936Y-138681790D01*
X128299500Y-138818206D01*
X128299500Y-139181794D01*
X128303912Y-139226585D01*
X128335137Y-139543630D01*
X128406064Y-139900212D01*
X128406067Y-139900223D01*
X128511614Y-140248165D01*
X128560086Y-140365186D01*
X128649621Y-140581344D01*
X128650754Y-140584078D01*
X128650756Y-140584083D01*
X128822140Y-140904720D01*
X128822151Y-140904738D01*
X129024140Y-141207035D01*
X129024150Y-141207049D01*
X129254807Y-141488106D01*
X129511893Y-141745192D01*
X129511898Y-141745196D01*
X129511899Y-141745197D01*
X129792956Y-141975854D01*
X130095268Y-142177853D01*
X130095277Y-142177858D01*
X130095279Y-142177859D01*
X130415916Y-142349243D01*
X130415918Y-142349243D01*
X130415924Y-142349247D01*
X130751836Y-142488386D01*
X131099767Y-142593930D01*
X131099773Y-142593931D01*
X131099776Y-142593932D01*
X131099787Y-142593935D01*
X131456369Y-142664862D01*
X131818206Y-142700500D01*
X131818209Y-142700500D01*
X132181791Y-142700500D01*
X132181794Y-142700500D01*
X132543631Y-142664862D01*
X132613045Y-142651054D01*
X132900212Y-142593935D01*
X132900223Y-142593932D01*
X132900223Y-142593931D01*
X132900233Y-142593930D01*
X133248164Y-142488386D01*
X133584076Y-142349247D01*
X133904732Y-142177853D01*
X134207044Y-141975854D01*
X134488101Y-141745197D01*
X134745197Y-141488101D01*
X134975854Y-141207044D01*
X135177853Y-140904732D01*
X135349247Y-140584076D01*
X135488386Y-140248164D01*
X135593930Y-139900233D01*
X135593932Y-139900223D01*
X135593935Y-139900212D01*
X135664862Y-139543630D01*
X135672833Y-139462699D01*
X135700500Y-139181794D01*
X135700500Y-138818206D01*
X135664862Y-138456369D01*
X135593935Y-138099787D01*
X135593932Y-138099776D01*
X135593931Y-138099773D01*
X135593930Y-138099767D01*
X135488386Y-137751836D01*
X135349247Y-137415924D01*
X135177853Y-137095268D01*
X134975854Y-136792956D01*
X134745197Y-136511899D01*
X134745196Y-136511898D01*
X134745192Y-136511893D01*
X134488106Y-136254807D01*
X134207049Y-136024150D01*
X134207048Y-136024149D01*
X134207044Y-136024146D01*
X133904732Y-135822147D01*
X133904727Y-135822144D01*
X133904720Y-135822140D01*
X133584083Y-135650756D01*
X133584078Y-135650754D01*
X133278428Y-135524150D01*
X133248164Y-135511614D01*
X133248163Y-135511613D01*
X133248159Y-135511612D01*
X133114035Y-135470925D01*
X133055596Y-135432627D01*
X133027140Y-135368815D01*
X133037701Y-135299748D01*
X133062347Y-135264587D01*
X144681120Y-123645816D01*
X144760177Y-123508885D01*
X144801101Y-123356157D01*
X144801101Y-123198042D01*
X144801101Y-123190447D01*
X144801100Y-123190429D01*
X144801100Y-122340859D01*
X144801100Y-122330860D01*
X144801101Y-122330858D01*
X144801101Y-122181397D01*
X144820786Y-122114358D01*
X144873590Y-122068603D01*
X144934054Y-122059909D01*
X144942748Y-122058660D01*
X144942749Y-122058660D01*
X144962674Y-122067759D01*
X145006304Y-122087685D01*
X145012782Y-122093717D01*
X152183439Y-129264374D01*
X152183449Y-129264385D01*
X152187779Y-129268715D01*
X152187780Y-129268716D01*
X152299584Y-129380520D01*
X152380006Y-129426951D01*
X152436515Y-129459577D01*
X152589243Y-129500500D01*
X158699903Y-129500500D01*
X158766942Y-129520185D01*
X158787584Y-129536819D01*
X159143381Y-129892616D01*
X159176866Y-129953939D01*
X159179700Y-129980297D01*
X159179700Y-133717530D01*
X159179699Y-133717548D01*
X159179699Y-133883254D01*
X159179698Y-133883254D01*
X159220622Y-134035983D01*
X159245389Y-134078881D01*
X159299677Y-134172912D01*
X159299681Y-134172917D01*
X159418549Y-134291785D01*
X159418555Y-134291790D01*
X160050539Y-134923774D01*
X160050549Y-134923785D01*
X160054879Y-134928115D01*
X160054880Y-134928116D01*
X160166684Y-135039920D01*
X160253495Y-135090039D01*
X160253497Y-135090041D01*
X160291551Y-135112011D01*
X160303615Y-135118977D01*
X160456343Y-135159900D01*
X167395731Y-135159900D01*
X167395747Y-135159901D01*
X167403343Y-135159901D01*
X167561454Y-135159901D01*
X167561457Y-135159901D01*
X167714185Y-135118977D01*
X167764304Y-135090039D01*
X167851116Y-135039920D01*
X167962920Y-134928116D01*
X167962920Y-134928114D01*
X167973128Y-134917907D01*
X167973130Y-134917904D01*
X175833306Y-127057728D01*
X175833311Y-127057724D01*
X175843514Y-127047520D01*
X175843516Y-127047520D01*
X175955320Y-126935716D01*
X176034377Y-126798784D01*
X176064334Y-126686981D01*
X176075300Y-126646058D01*
X176075300Y-126487943D01*
X176075300Y-123965697D01*
X176094985Y-123898658D01*
X176111619Y-123878016D01*
X176264116Y-123725519D01*
X176491373Y-123498261D01*
X176520580Y-123482313D01*
X176549365Y-123465550D01*
X176551137Y-123465627D01*
X176552694Y-123464778D01*
X176585897Y-123467152D01*
X176619167Y-123468612D01*
X176620615Y-123469635D01*
X176622385Y-123469762D01*
X176649037Y-123489713D01*
X176676234Y-123508926D01*
X176677158Y-123510764D01*
X176678319Y-123511633D01*
X176693995Y-123539425D01*
X176696854Y-123546490D01*
X176712823Y-123606085D01*
X176735762Y-123645816D01*
X176781778Y-123725519D01*
X176791879Y-123743014D01*
X176791881Y-123743017D01*
X176910749Y-123861885D01*
X176910755Y-123861890D01*
X187622139Y-134573274D01*
X187622149Y-134573285D01*
X187626479Y-134577615D01*
X187626480Y-134577616D01*
X187738284Y-134689420D01*
X187825095Y-134739539D01*
X187825097Y-134739541D01*
X187875213Y-134768476D01*
X187875215Y-134768477D01*
X188027942Y-134809400D01*
X188027943Y-134809400D01*
X190616634Y-134809400D01*
X190683673Y-134829085D01*
X190729428Y-134881889D01*
X190739372Y-134951047D01*
X190710347Y-135014603D01*
X190664087Y-135047960D01*
X190562501Y-135090039D01*
X190415921Y-135150754D01*
X190415916Y-135150756D01*
X190095279Y-135322140D01*
X190095261Y-135322151D01*
X189792964Y-135524140D01*
X189792950Y-135524150D01*
X189511893Y-135754807D01*
X189254807Y-136011893D01*
X189024150Y-136292950D01*
X189024140Y-136292964D01*
X188822151Y-136595261D01*
X188822140Y-136595279D01*
X188650756Y-136915916D01*
X188650754Y-136915921D01*
X188511614Y-137251834D01*
X188406067Y-137599776D01*
X188406064Y-137599787D01*
X188335137Y-137956369D01*
X188307628Y-138235679D01*
X188301292Y-138300018D01*
X188299500Y-138318209D01*
X188299500Y-138681790D01*
X188335137Y-139043630D01*
X188406064Y-139400212D01*
X188406067Y-139400223D01*
X188511614Y-139748165D01*
X188560086Y-139865186D01*
X188649621Y-140081344D01*
X188650754Y-140084078D01*
X188650756Y-140084083D01*
X188822140Y-140404720D01*
X188822151Y-140404738D01*
X189024140Y-140707035D01*
X189024150Y-140707049D01*
X189254807Y-140988106D01*
X189511893Y-141245192D01*
X189511898Y-141245196D01*
X189511899Y-141245197D01*
X189792956Y-141475854D01*
X190095268Y-141677853D01*
X190095277Y-141677858D01*
X190095279Y-141677859D01*
X190415916Y-141849243D01*
X190415918Y-141849243D01*
X190415924Y-141849247D01*
X190751836Y-141988386D01*
X191099767Y-142093930D01*
X191099773Y-142093931D01*
X191099776Y-142093932D01*
X191099787Y-142093935D01*
X191456369Y-142164862D01*
X191818206Y-142200500D01*
X191818209Y-142200500D01*
X192181791Y-142200500D01*
X192181794Y-142200500D01*
X192543631Y-142164862D01*
X192613045Y-142151054D01*
X192900212Y-142093935D01*
X192900223Y-142093932D01*
X192900223Y-142093931D01*
X192900233Y-142093930D01*
X193248164Y-141988386D01*
X193584076Y-141849247D01*
X193904732Y-141677853D01*
X194207044Y-141475854D01*
X194488101Y-141245197D01*
X194745197Y-140988101D01*
X194975854Y-140707044D01*
X195114207Y-140499984D01*
X205549500Y-140499984D01*
X205549500Y-143500015D01*
X205560000Y-143602795D01*
X205560001Y-143602796D01*
X205615186Y-143769335D01*
X205615187Y-143769337D01*
X205707286Y-143918651D01*
X205707289Y-143918655D01*
X205831344Y-144042710D01*
X205831348Y-144042713D01*
X205980662Y-144134812D01*
X205980664Y-144134813D01*
X205980666Y-144134814D01*
X206147203Y-144189999D01*
X206249992Y-144200500D01*
X206249997Y-144200500D01*
X207350003Y-144200500D01*
X207350008Y-144200500D01*
X207452797Y-144189999D01*
X207619334Y-144134814D01*
X207768655Y-144042711D01*
X207892711Y-143918655D01*
X207984814Y-143769334D01*
X208039999Y-143602797D01*
X208050500Y-143500008D01*
X208050500Y-140499992D01*
X208050499Y-140499984D01*
X212249500Y-140499984D01*
X212249500Y-143500015D01*
X212260000Y-143602795D01*
X212260001Y-143602796D01*
X212315186Y-143769335D01*
X212315187Y-143769337D01*
X212407286Y-143918651D01*
X212407289Y-143918655D01*
X212531344Y-144042710D01*
X212531348Y-144042713D01*
X212680662Y-144134812D01*
X212680664Y-144134813D01*
X212680666Y-144134814D01*
X212847203Y-144189999D01*
X212949992Y-144200500D01*
X212949997Y-144200500D01*
X214050003Y-144200500D01*
X214050008Y-144200500D01*
X214152797Y-144189999D01*
X214319334Y-144134814D01*
X214468655Y-144042711D01*
X214592711Y-143918655D01*
X214684814Y-143769334D01*
X214739999Y-143602797D01*
X214750500Y-143500008D01*
X214750500Y-140499992D01*
X214739999Y-140397203D01*
X214684814Y-140230666D01*
X214592711Y-140081345D01*
X214468655Y-139957289D01*
X214468651Y-139957286D01*
X214319337Y-139865187D01*
X214319335Y-139865186D01*
X214236065Y-139837593D01*
X214152797Y-139810001D01*
X214152795Y-139810000D01*
X214050015Y-139799500D01*
X214050008Y-139799500D01*
X212949992Y-139799500D01*
X212949984Y-139799500D01*
X212847204Y-139810000D01*
X212847203Y-139810001D01*
X212680664Y-139865186D01*
X212680662Y-139865187D01*
X212531348Y-139957286D01*
X212531344Y-139957289D01*
X212407289Y-140081344D01*
X212407286Y-140081348D01*
X212315187Y-140230662D01*
X212315186Y-140230664D01*
X212260001Y-140397203D01*
X212260000Y-140397204D01*
X212249500Y-140499984D01*
X208050499Y-140499984D01*
X208039999Y-140397203D01*
X207984814Y-140230666D01*
X207892711Y-140081345D01*
X207768655Y-139957289D01*
X207768651Y-139957286D01*
X207619337Y-139865187D01*
X207619335Y-139865186D01*
X207536065Y-139837593D01*
X207452797Y-139810001D01*
X207452795Y-139810000D01*
X207350015Y-139799500D01*
X207350008Y-139799500D01*
X206249992Y-139799500D01*
X206249984Y-139799500D01*
X206147204Y-139810000D01*
X206147203Y-139810001D01*
X205980664Y-139865186D01*
X205980662Y-139865187D01*
X205831348Y-139957286D01*
X205831344Y-139957289D01*
X205707289Y-140081344D01*
X205707286Y-140081348D01*
X205615187Y-140230662D01*
X205615186Y-140230664D01*
X205560001Y-140397203D01*
X205560000Y-140397204D01*
X205549500Y-140499984D01*
X195114207Y-140499984D01*
X195177853Y-140404732D01*
X195349247Y-140084076D01*
X195488386Y-139748164D01*
X195593930Y-139400233D01*
X195593932Y-139400223D01*
X195593935Y-139400212D01*
X195664862Y-139043630D01*
X195670144Y-138989998D01*
X195700500Y-138681794D01*
X195700500Y-138318206D01*
X195664862Y-137956369D01*
X195593935Y-137599787D01*
X195593932Y-137599776D01*
X195593931Y-137599773D01*
X195593930Y-137599767D01*
X195488386Y-137251836D01*
X195349247Y-136915924D01*
X195283519Y-136792956D01*
X195177859Y-136595279D01*
X195177858Y-136595277D01*
X195177853Y-136595268D01*
X194975854Y-136292956D01*
X194745197Y-136011899D01*
X194745196Y-136011898D01*
X194745192Y-136011893D01*
X194488106Y-135754807D01*
X194207049Y-135524150D01*
X194207048Y-135524149D01*
X194207044Y-135524146D01*
X193904732Y-135322147D01*
X193904727Y-135322144D01*
X193904720Y-135322140D01*
X193584083Y-135150756D01*
X193584078Y-135150754D01*
X193532969Y-135129584D01*
X193335912Y-135047960D01*
X193281510Y-135004120D01*
X193259445Y-134937826D01*
X193276724Y-134870127D01*
X193327861Y-134822516D01*
X193383366Y-134809400D01*
X206808803Y-134809400D01*
X206875842Y-134829085D01*
X206896484Y-134845719D01*
X208113181Y-136062416D01*
X208146666Y-136123739D01*
X208149500Y-136150097D01*
X208149500Y-137800001D01*
X208149501Y-137800018D01*
X208160000Y-137902796D01*
X208160001Y-137902799D01*
X208215185Y-138069331D01*
X208215187Y-138069336D01*
X208226719Y-138088032D01*
X208307288Y-138218656D01*
X208431344Y-138342712D01*
X208580666Y-138434814D01*
X208747203Y-138489999D01*
X208849991Y-138500500D01*
X209450008Y-138500499D01*
X209450016Y-138500498D01*
X209450019Y-138500498D01*
X209506302Y-138494748D01*
X209552797Y-138489999D01*
X209719334Y-138434814D01*
X209868656Y-138342712D01*
X209992712Y-138218656D01*
X210044461Y-138134756D01*
X210096409Y-138088032D01*
X210165371Y-138076809D01*
X210229454Y-138104653D01*
X210255538Y-138134756D01*
X210307288Y-138218656D01*
X210431344Y-138342712D01*
X210580666Y-138434814D01*
X210747203Y-138489999D01*
X210849991Y-138500500D01*
X211450008Y-138500499D01*
X211450016Y-138500498D01*
X211450019Y-138500498D01*
X211506302Y-138494748D01*
X211552797Y-138489999D01*
X211719334Y-138434814D01*
X211868656Y-138342712D01*
X211992712Y-138218656D01*
X212084814Y-138069334D01*
X212139999Y-137902797D01*
X212150500Y-137800009D01*
X212150499Y-134699992D01*
X212139999Y-134597203D01*
X212084814Y-134430666D01*
X211992712Y-134281344D01*
X211868656Y-134157288D01*
X211719334Y-134065186D01*
X211552797Y-134010001D01*
X211552795Y-134010000D01*
X211450010Y-133999500D01*
X210849998Y-133999500D01*
X210849980Y-133999501D01*
X210747203Y-134010000D01*
X210747200Y-134010001D01*
X210580668Y-134065185D01*
X210580659Y-134065189D01*
X210520531Y-134102277D01*
X210453139Y-134120717D01*
X210386475Y-134099794D01*
X210367754Y-134084419D01*
X209445290Y-133161955D01*
X209445288Y-133161952D01*
X209326417Y-133043081D01*
X209326409Y-133043075D01*
X209205119Y-132973049D01*
X209205119Y-132973048D01*
X209205115Y-132973047D01*
X209189485Y-132964023D01*
X209036757Y-132923099D01*
X208878643Y-132923099D01*
X208871047Y-132923099D01*
X208871031Y-132923100D01*
X188289798Y-132923100D01*
X188222759Y-132903415D01*
X188202117Y-132886781D01*
X179678916Y-124363581D01*
X179645431Y-124302258D01*
X179650415Y-124232566D01*
X179692287Y-124176633D01*
X179757751Y-124152216D01*
X179766597Y-124151900D01*
X202070331Y-124151900D01*
X202070347Y-124151901D01*
X202077943Y-124151901D01*
X202236054Y-124151901D01*
X202236057Y-124151901D01*
X202388785Y-124110977D01*
X202438904Y-124082039D01*
X202525716Y-124031920D01*
X202637520Y-123920116D01*
X202637520Y-123920114D01*
X202647728Y-123909907D01*
X202647730Y-123909904D01*
X213254006Y-113303628D01*
X213254011Y-113303624D01*
X213264214Y-113293420D01*
X213264216Y-113293420D01*
X213376020Y-113181616D01*
X213455077Y-113044684D01*
X213491996Y-112906900D01*
X213496000Y-112891958D01*
X213496000Y-112733843D01*
X213496000Y-66944559D01*
X213496001Y-66944546D01*
X213496001Y-66776445D01*
X213496001Y-66776443D01*
X213455077Y-66623715D01*
X213426139Y-66573595D01*
X213376020Y-66486784D01*
X213264216Y-66374980D01*
X213264215Y-66374979D01*
X213259885Y-66370649D01*
X213259874Y-66370639D01*
X206966190Y-60076955D01*
X206966188Y-60076952D01*
X206847317Y-59958081D01*
X206847316Y-59958080D01*
X206747121Y-59900233D01*
X206747120Y-59900232D01*
X206710383Y-59879022D01*
X206654481Y-59864043D01*
X206557657Y-59838099D01*
X206399543Y-59838099D01*
X206391947Y-59838099D01*
X206391931Y-59838100D01*
X205593669Y-59838100D01*
X205593653Y-59838099D01*
X205586057Y-59838099D01*
X205427943Y-59838099D01*
X205359088Y-59856549D01*
X205275216Y-59879022D01*
X205238477Y-59900234D01*
X205238476Y-59900233D01*
X205138287Y-59958077D01*
X205138282Y-59958081D01*
X205026478Y-60069886D01*
X204769689Y-60326674D01*
X204708366Y-60360159D01*
X204638674Y-60355175D01*
X204616912Y-60344532D01*
X204569340Y-60315189D01*
X204569335Y-60315187D01*
X204569334Y-60315186D01*
X204402797Y-60260001D01*
X204402795Y-60260000D01*
X204300010Y-60249500D01*
X203699998Y-60249500D01*
X203699980Y-60249501D01*
X203597203Y-60260000D01*
X203597200Y-60260001D01*
X203430668Y-60315185D01*
X203430663Y-60315187D01*
X203281342Y-60407289D01*
X203157289Y-60531342D01*
X203065187Y-60680663D01*
X203065185Y-60680668D01*
X203037349Y-60764670D01*
X203010001Y-60847203D01*
X203010001Y-60847204D01*
X203010000Y-60847204D01*
X202999500Y-60949983D01*
X202999500Y-64050001D01*
X202999501Y-64050018D01*
X203010000Y-64152796D01*
X203010001Y-64152799D01*
X203065185Y-64319331D01*
X203065187Y-64319336D01*
X203076719Y-64338032D01*
X203157288Y-64468656D01*
X203281344Y-64592712D01*
X203430666Y-64684814D01*
X203597203Y-64739999D01*
X203699991Y-64750500D01*
X204300008Y-64750499D01*
X204300016Y-64750498D01*
X204300019Y-64750498D01*
X204356302Y-64744748D01*
X204402797Y-64739999D01*
X204569334Y-64684814D01*
X204718656Y-64592712D01*
X204842712Y-64468656D01*
X204894461Y-64384756D01*
X204946409Y-64338032D01*
X205015371Y-64326809D01*
X205079454Y-64354653D01*
X205105538Y-64384756D01*
X205157288Y-64468656D01*
X205281344Y-64592712D01*
X205430666Y-64684814D01*
X205597203Y-64739999D01*
X205699991Y-64750500D01*
X206300008Y-64750499D01*
X206300016Y-64750498D01*
X206300019Y-64750498D01*
X206356302Y-64744748D01*
X206402797Y-64739999D01*
X206569334Y-64684814D01*
X206718656Y-64592712D01*
X206842712Y-64468656D01*
X206865947Y-64430984D01*
X206917892Y-64384262D01*
X206986854Y-64373038D01*
X207050937Y-64400880D01*
X207059166Y-64408401D01*
X208488584Y-65837819D01*
X208522069Y-65899142D01*
X208517085Y-65968834D01*
X208475213Y-66024767D01*
X208409749Y-66049184D01*
X208400903Y-66049500D01*
X207799984Y-66049500D01*
X207697204Y-66060000D01*
X207697203Y-66060001D01*
X207530664Y-66115186D01*
X207530662Y-66115187D01*
X207381348Y-66207286D01*
X207381344Y-66207289D01*
X207257289Y-66331344D01*
X207257286Y-66331348D01*
X207165187Y-66480662D01*
X207165186Y-66480664D01*
X207110001Y-66647203D01*
X207110000Y-66647204D01*
X207099500Y-66749984D01*
X207099500Y-69750015D01*
X207110000Y-69852795D01*
X207110001Y-69852797D01*
X207122318Y-69889968D01*
X207165186Y-70019335D01*
X207165187Y-70019337D01*
X207257286Y-70168651D01*
X207257289Y-70168655D01*
X207381344Y-70292710D01*
X207381348Y-70292713D01*
X207530662Y-70384812D01*
X207530664Y-70384813D01*
X207530666Y-70384814D01*
X207697203Y-70439999D01*
X207799992Y-70450500D01*
X207799997Y-70450500D01*
X208900003Y-70450500D01*
X208900008Y-70450500D01*
X209002797Y-70439999D01*
X209169334Y-70384814D01*
X209318655Y-70292711D01*
X209442711Y-70168655D01*
X209534814Y-70019334D01*
X209589999Y-69852797D01*
X209600500Y-69750008D01*
X209600500Y-67249097D01*
X209620185Y-67182058D01*
X209672989Y-67136303D01*
X209742147Y-67126359D01*
X209805703Y-67155384D01*
X209812181Y-67161416D01*
X211842181Y-69191416D01*
X211875666Y-69252739D01*
X211878500Y-69279097D01*
X211878500Y-101715500D01*
X211858815Y-101782539D01*
X211806011Y-101828294D01*
X211754500Y-101839500D01*
X209667800Y-101839500D01*
X209600761Y-101819815D01*
X209555006Y-101767011D01*
X209543800Y-101715500D01*
X209543800Y-92995745D01*
X209543800Y-92995743D01*
X209502877Y-92843016D01*
X209449552Y-92750653D01*
X209423824Y-92706090D01*
X209423821Y-92706086D01*
X209423820Y-92706084D01*
X209312016Y-92594280D01*
X209312015Y-92594279D01*
X209307685Y-92589949D01*
X209307674Y-92589939D01*
X208953719Y-92235984D01*
X208920234Y-92174661D01*
X208917400Y-92148303D01*
X208917400Y-85019001D01*
X208937085Y-84951962D01*
X208989889Y-84906207D01*
X209059047Y-84896263D01*
X209080398Y-84901293D01*
X209197203Y-84939999D01*
X209299992Y-84950500D01*
X209299997Y-84950500D01*
X210400003Y-84950500D01*
X210400008Y-84950500D01*
X210502797Y-84939999D01*
X210669334Y-84884814D01*
X210818655Y-84792711D01*
X210942711Y-84668655D01*
X211034814Y-84519334D01*
X211089999Y-84352797D01*
X211100500Y-84250008D01*
X211100500Y-81249992D01*
X211089999Y-81147203D01*
X211034814Y-80980666D01*
X210986783Y-80902797D01*
X210942713Y-80831348D01*
X210942710Y-80831344D01*
X210818655Y-80707289D01*
X210818651Y-80707286D01*
X210669337Y-80615187D01*
X210669335Y-80615186D01*
X210571494Y-80582765D01*
X210502797Y-80560001D01*
X210502795Y-80560000D01*
X210400015Y-80549500D01*
X210400008Y-80549500D01*
X209299992Y-80549500D01*
X209299984Y-80549500D01*
X209197204Y-80560000D01*
X209197200Y-80560001D01*
X209080403Y-80598704D01*
X209010575Y-80601106D01*
X208950533Y-80565374D01*
X208919341Y-80502853D01*
X208917400Y-80480998D01*
X208917400Y-75181439D01*
X208917399Y-75181438D01*
X208917190Y-75180655D01*
X208917190Y-75180656D01*
X208877181Y-75031344D01*
X208876477Y-75028715D01*
X208824033Y-74937880D01*
X208797420Y-74891784D01*
X208685616Y-74779980D01*
X208685613Y-74779978D01*
X204328890Y-70423255D01*
X204328888Y-70423252D01*
X204210017Y-70304381D01*
X204210016Y-70304380D01*
X204123204Y-70254260D01*
X204123204Y-70254259D01*
X204123200Y-70254258D01*
X204073085Y-70225323D01*
X203920357Y-70184399D01*
X203762243Y-70184399D01*
X203754647Y-70184399D01*
X203754631Y-70184400D01*
X202951837Y-70184400D01*
X202884798Y-70164715D01*
X202839043Y-70111911D01*
X202829099Y-70042753D01*
X202834131Y-70021396D01*
X202857623Y-69950500D01*
X202889999Y-69852797D01*
X202900500Y-69750008D01*
X202900500Y-66749992D01*
X202889999Y-66647203D01*
X202834814Y-66480666D01*
X202815735Y-66449735D01*
X202742713Y-66331348D01*
X202742710Y-66331344D01*
X202618655Y-66207289D01*
X202618651Y-66207286D01*
X202469337Y-66115187D01*
X202469335Y-66115186D01*
X202386065Y-66087593D01*
X202302797Y-66060001D01*
X202302795Y-66060000D01*
X202200015Y-66049500D01*
X202200008Y-66049500D01*
X201099992Y-66049500D01*
X201099984Y-66049500D01*
X200997204Y-66060000D01*
X200997203Y-66060001D01*
X200830664Y-66115186D01*
X200830662Y-66115187D01*
X200681348Y-66207286D01*
X200681344Y-66207289D01*
X200557289Y-66331344D01*
X200557286Y-66331348D01*
X200465187Y-66480662D01*
X200465186Y-66480664D01*
X200410001Y-66647203D01*
X200410000Y-66647204D01*
X200399500Y-66749984D01*
X200399500Y-69750015D01*
X200410000Y-69852793D01*
X200410767Y-69856373D01*
X200410597Y-69858636D01*
X200410689Y-69859531D01*
X200410529Y-69859547D01*
X200408252Y-69889968D01*
X200406451Y-69923584D01*
X200405653Y-69924689D01*
X200405552Y-69926048D01*
X200385283Y-69952938D01*
X200365584Y-69980256D01*
X200364316Y-69980754D01*
X200363496Y-69981843D01*
X200331879Y-69993516D01*
X200300566Y-70005837D01*
X200298772Y-70005740D01*
X200297952Y-70006044D01*
X200265323Y-70003948D01*
X200166350Y-69984261D01*
X200104439Y-69951876D01*
X200102860Y-69950325D01*
X192489090Y-62336555D01*
X192489088Y-62336552D01*
X192370217Y-62217681D01*
X192370216Y-62217680D01*
X192271296Y-62160569D01*
X192233285Y-62138623D01*
X192080557Y-62097699D01*
X191922443Y-62097699D01*
X191914847Y-62097699D01*
X191914831Y-62097700D01*
X169704486Y-62097700D01*
X169684271Y-62091764D01*
X169663234Y-62090637D01*
X169651419Y-62082117D01*
X169637447Y-62078015D01*
X169623652Y-62062095D01*
X169606561Y-62049771D01*
X169601227Y-62036215D01*
X169591692Y-62025211D01*
X169588693Y-62004358D01*
X169580980Y-61984753D01*
X169582309Y-61959955D01*
X169581748Y-61956053D01*
X169582869Y-61949509D01*
X169597938Y-61873750D01*
X169630322Y-61811839D01*
X169631763Y-61810371D01*
X169748618Y-61693516D01*
X169809939Y-61660034D01*
X169836297Y-61657200D01*
X170579055Y-61657200D01*
X170579057Y-61657200D01*
X170731784Y-61616277D01*
X170868716Y-61537220D01*
X170980520Y-61425416D01*
X171053127Y-61299654D01*
X171103692Y-61251441D01*
X171117176Y-61245475D01*
X171242331Y-61198796D01*
X171357546Y-61112546D01*
X171443796Y-60997331D01*
X171494091Y-60862483D01*
X171500500Y-60802873D01*
X171500499Y-58197128D01*
X171494091Y-58137517D01*
X171485847Y-58115415D01*
X171443797Y-58002671D01*
X171443796Y-58002669D01*
X171425691Y-57978484D01*
X171357546Y-57887454D01*
X171357544Y-57887452D01*
X171265044Y-57818206D01*
X184799500Y-57818206D01*
X184799500Y-58181794D01*
X184804286Y-58230389D01*
X184835137Y-58543630D01*
X184906064Y-58900212D01*
X184906067Y-58900223D01*
X185011614Y-59248165D01*
X185150754Y-59584078D01*
X185150756Y-59584083D01*
X185322140Y-59904720D01*
X185322151Y-59904738D01*
X185524140Y-60207035D01*
X185524150Y-60207049D01*
X185754807Y-60488106D01*
X186011893Y-60745192D01*
X186011898Y-60745196D01*
X186011899Y-60745197D01*
X186292956Y-60975854D01*
X186595268Y-61177853D01*
X186595277Y-61177858D01*
X186595279Y-61177859D01*
X186915916Y-61349243D01*
X186915918Y-61349243D01*
X186915924Y-61349247D01*
X187251836Y-61488386D01*
X187599767Y-61593930D01*
X187599773Y-61593931D01*
X187599776Y-61593932D01*
X187599787Y-61593935D01*
X187956369Y-61664862D01*
X188318206Y-61700500D01*
X188318209Y-61700500D01*
X188681791Y-61700500D01*
X188681794Y-61700500D01*
X189043631Y-61664862D01*
X189113045Y-61651054D01*
X189400212Y-61593935D01*
X189400223Y-61593932D01*
X189400223Y-61593931D01*
X189400233Y-61593930D01*
X189748164Y-61488386D01*
X190084076Y-61349247D01*
X190404732Y-61177853D01*
X190707044Y-60975854D01*
X190988101Y-60745197D01*
X191245197Y-60488101D01*
X191475854Y-60207044D01*
X191677853Y-59904732D01*
X191849247Y-59584076D01*
X191988386Y-59248164D01*
X192093930Y-58900233D01*
X192093932Y-58900223D01*
X192093935Y-58900212D01*
X192161051Y-58562790D01*
X192164862Y-58543631D01*
X192200500Y-58181794D01*
X192200500Y-57818206D01*
X192164862Y-57456369D01*
X192156817Y-57415924D01*
X192093935Y-57099787D01*
X192093932Y-57099776D01*
X192093931Y-57099773D01*
X192093930Y-57099767D01*
X191988386Y-56751836D01*
X191849247Y-56415924D01*
X191677853Y-56095268D01*
X191475854Y-55792956D01*
X191245197Y-55511899D01*
X191245196Y-55511898D01*
X191245192Y-55511893D01*
X190988106Y-55254807D01*
X190707049Y-55024150D01*
X190707048Y-55024149D01*
X190707044Y-55024146D01*
X190404732Y-54822147D01*
X190404727Y-54822144D01*
X190404720Y-54822140D01*
X190084083Y-54650756D01*
X190084078Y-54650754D01*
X189748165Y-54511614D01*
X189400223Y-54406067D01*
X189400212Y-54406064D01*
X189043630Y-54335137D01*
X188771111Y-54308296D01*
X188681794Y-54299500D01*
X188318206Y-54299500D01*
X188235679Y-54307628D01*
X187956369Y-54335137D01*
X187599787Y-54406064D01*
X187599776Y-54406067D01*
X187251834Y-54511614D01*
X186915921Y-54650754D01*
X186915916Y-54650756D01*
X186595279Y-54822140D01*
X186595261Y-54822151D01*
X186292964Y-55024140D01*
X186292950Y-55024150D01*
X186011893Y-55254807D01*
X185754807Y-55511893D01*
X185524150Y-55792950D01*
X185524140Y-55792964D01*
X185322151Y-56095261D01*
X185322140Y-56095279D01*
X185150756Y-56415916D01*
X185150754Y-56415921D01*
X185011614Y-56751834D01*
X184906067Y-57099776D01*
X184906064Y-57099787D01*
X184835137Y-57456369D01*
X184812390Y-57687328D01*
X184799500Y-57818206D01*
X171265044Y-57818206D01*
X171242335Y-57801206D01*
X171242328Y-57801202D01*
X171107482Y-57750908D01*
X171107483Y-57750908D01*
X171047883Y-57744501D01*
X171047881Y-57744500D01*
X171047873Y-57744500D01*
X171047864Y-57744500D01*
X169952129Y-57744500D01*
X169952123Y-57744501D01*
X169892516Y-57750908D01*
X169757671Y-57801202D01*
X169757664Y-57801206D01*
X169642455Y-57887452D01*
X169642452Y-57887455D01*
X169556206Y-58002664D01*
X169556202Y-58002671D01*
X169505908Y-58137517D01*
X169499501Y-58197116D01*
X169499501Y-58197123D01*
X169499500Y-58197135D01*
X169499500Y-60349701D01*
X169479815Y-60416740D01*
X169427011Y-60462495D01*
X169407595Y-60469475D01*
X169304420Y-60497121D01*
X169304409Y-60497126D01*
X169167490Y-60576175D01*
X169167482Y-60576181D01*
X168782639Y-60961025D01*
X168721316Y-60994510D01*
X168719150Y-60994961D01*
X168563808Y-61025861D01*
X168563798Y-61025864D01*
X168418127Y-61086202D01*
X168418114Y-61086209D01*
X168287011Y-61173810D01*
X168287007Y-61173813D01*
X168175513Y-61285307D01*
X168175510Y-61285311D01*
X168087909Y-61416414D01*
X168087902Y-61416427D01*
X168027564Y-61562098D01*
X168027561Y-61562110D01*
X167996800Y-61716753D01*
X167996800Y-61874446D01*
X168011731Y-61949509D01*
X168005504Y-62019100D01*
X167962641Y-62074278D01*
X167896751Y-62097522D01*
X167890114Y-62097700D01*
X162238497Y-62097700D01*
X162171458Y-62078015D01*
X162125703Y-62025211D01*
X162115759Y-61956053D01*
X162144784Y-61892497D01*
X162150816Y-61886019D01*
X162343316Y-61693519D01*
X162404639Y-61660034D01*
X162430997Y-61657200D01*
X165499055Y-61657200D01*
X165499057Y-61657200D01*
X165651784Y-61616277D01*
X165788716Y-61537220D01*
X165900520Y-61425416D01*
X165973127Y-61299654D01*
X166023692Y-61251441D01*
X166037176Y-61245475D01*
X166162331Y-61198796D01*
X166277546Y-61112546D01*
X166363796Y-60997331D01*
X166414091Y-60862483D01*
X166420500Y-60802873D01*
X166420499Y-58471199D01*
X166440184Y-58404161D01*
X166492987Y-58358406D01*
X166544499Y-58347200D01*
X168039055Y-58347200D01*
X168039057Y-58347200D01*
X168191784Y-58306277D01*
X168328716Y-58227220D01*
X168440520Y-58115416D01*
X168513127Y-57989654D01*
X168563692Y-57941441D01*
X168577176Y-57935475D01*
X168702331Y-57888796D01*
X168817546Y-57802546D01*
X168903796Y-57687331D01*
X168954091Y-57552483D01*
X168960500Y-57492873D01*
X168960499Y-54887128D01*
X168954091Y-54827517D01*
X168903884Y-54692906D01*
X168903797Y-54692671D01*
X168903793Y-54692664D01*
X168817547Y-54577455D01*
X168817544Y-54577452D01*
X168702335Y-54491206D01*
X168702328Y-54491202D01*
X168567482Y-54440908D01*
X168567483Y-54440908D01*
X168507883Y-54434501D01*
X168507881Y-54434500D01*
X168507873Y-54434500D01*
X168507864Y-54434500D01*
X167412129Y-54434500D01*
X167412123Y-54434501D01*
X167352516Y-54440908D01*
X167217671Y-54491202D01*
X167217664Y-54491206D01*
X167102455Y-54577452D01*
X167102452Y-54577455D01*
X167016206Y-54692664D01*
X167016202Y-54692671D01*
X166965908Y-54827517D01*
X166959501Y-54887116D01*
X166959501Y-54887123D01*
X166959500Y-54887135D01*
X166959501Y-57022200D01*
X166939816Y-57089239D01*
X166887013Y-57134994D01*
X166835501Y-57146200D01*
X164511043Y-57146200D01*
X164358314Y-57187123D01*
X164330989Y-57202900D01*
X164330988Y-57202900D01*
X164221387Y-57266177D01*
X164221382Y-57266181D01*
X164109578Y-57377985D01*
X164109578Y-57377986D01*
X164092178Y-57395386D01*
X164030854Y-57428869D01*
X163961162Y-57423883D01*
X163905230Y-57382010D01*
X163880815Y-57316545D01*
X163880499Y-57307727D01*
X163880499Y-54887128D01*
X163874091Y-54827517D01*
X163823884Y-54692906D01*
X163823797Y-54692671D01*
X163823793Y-54692664D01*
X163737547Y-54577455D01*
X163737544Y-54577452D01*
X163622335Y-54491206D01*
X163622328Y-54491202D01*
X163487482Y-54440908D01*
X163487483Y-54440908D01*
X163427883Y-54434501D01*
X163427881Y-54434500D01*
X163427873Y-54434500D01*
X163427864Y-54434500D01*
X162332129Y-54434500D01*
X162332123Y-54434501D01*
X162272516Y-54440908D01*
X162137671Y-54491202D01*
X162137664Y-54491206D01*
X162022455Y-54577452D01*
X162022452Y-54577455D01*
X161936206Y-54692664D01*
X161936202Y-54692671D01*
X161885908Y-54827517D01*
X161879501Y-54887116D01*
X161879501Y-54887123D01*
X161879500Y-54887135D01*
X161879500Y-56975046D01*
X161859815Y-57042085D01*
X161807011Y-57087840D01*
X161802952Y-57089607D01*
X161671627Y-57144002D01*
X161671614Y-57144009D01*
X161540511Y-57231610D01*
X161540507Y-57231613D01*
X161429013Y-57343107D01*
X161429010Y-57343111D01*
X161341409Y-57474214D01*
X161341402Y-57474227D01*
X161281064Y-57619898D01*
X161281061Y-57619908D01*
X161261986Y-57715805D01*
X161229601Y-57777716D01*
X161168885Y-57812290D01*
X161099115Y-57808549D01*
X161084233Y-57801913D01*
X160947482Y-57750908D01*
X160947483Y-57750908D01*
X160887883Y-57744501D01*
X160887881Y-57744500D01*
X160887873Y-57744500D01*
X160887864Y-57744500D01*
X159792129Y-57744500D01*
X159792123Y-57744501D01*
X159732516Y-57750908D01*
X159597671Y-57801202D01*
X159597664Y-57801206D01*
X159482455Y-57887452D01*
X159482452Y-57887455D01*
X159396206Y-58002664D01*
X159396202Y-58002671D01*
X159345908Y-58137517D01*
X159339501Y-58197116D01*
X159339501Y-58197123D01*
X159339500Y-58197135D01*
X159339500Y-60155828D01*
X159319815Y-60222867D01*
X159267011Y-60268622D01*
X159239692Y-60277445D01*
X159183809Y-60288561D01*
X159183798Y-60288564D01*
X159038127Y-60348902D01*
X159038114Y-60348909D01*
X158907011Y-60436510D01*
X158907007Y-60436513D01*
X158795513Y-60548007D01*
X158795510Y-60548011D01*
X158707909Y-60679114D01*
X158707902Y-60679127D01*
X158647564Y-60824798D01*
X158647561Y-60824810D01*
X158616800Y-60979453D01*
X158616800Y-61137146D01*
X158647561Y-61291789D01*
X158647563Y-61291796D01*
X158661129Y-61324549D01*
X158668596Y-61394018D01*
X158637321Y-61456497D01*
X158577231Y-61492149D01*
X158546567Y-61496000D01*
X158197966Y-61496000D01*
X158130927Y-61476315D01*
X158129075Y-61475102D01*
X157997385Y-61387109D01*
X157997372Y-61387102D01*
X157851701Y-61326764D01*
X157851689Y-61326761D01*
X157697045Y-61296000D01*
X157697042Y-61296000D01*
X157539358Y-61296000D01*
X157539355Y-61296000D01*
X157384710Y-61326761D01*
X157384698Y-61326764D01*
X157239027Y-61387102D01*
X157239014Y-61387109D01*
X157107911Y-61474710D01*
X157107907Y-61474713D01*
X156996413Y-61586207D01*
X156996410Y-61586211D01*
X156937093Y-61674985D01*
X156883480Y-61719790D01*
X156814155Y-61728497D01*
X156751128Y-61698342D01*
X156746310Y-61693775D01*
X156213873Y-61161338D01*
X156180388Y-61100015D01*
X156185372Y-61030323D01*
X156202289Y-60999344D01*
X156203796Y-60997331D01*
X156211807Y-60975854D01*
X156238333Y-60904732D01*
X156254091Y-60862483D01*
X156260500Y-60802873D01*
X156260499Y-58197128D01*
X156254091Y-58137517D01*
X156245847Y-58115415D01*
X156203797Y-58002671D01*
X156203793Y-58002664D01*
X156117547Y-57887455D01*
X156117544Y-57887452D01*
X156002335Y-57801206D01*
X156002328Y-57801202D01*
X155867482Y-57750908D01*
X155867483Y-57750908D01*
X155807883Y-57744501D01*
X155807881Y-57744500D01*
X155807873Y-57744500D01*
X155807864Y-57744500D01*
X154712129Y-57744500D01*
X154712123Y-57744501D01*
X154652516Y-57750908D01*
X154517671Y-57801202D01*
X154517664Y-57801206D01*
X154402455Y-57887452D01*
X154402452Y-57887455D01*
X154316206Y-58002664D01*
X154316202Y-58002671D01*
X154265908Y-58137517D01*
X154259501Y-58197116D01*
X154259501Y-58197123D01*
X154259500Y-58197135D01*
X154259501Y-60332200D01*
X154239816Y-60399239D01*
X154187013Y-60444994D01*
X154135501Y-60456200D01*
X141373040Y-60456200D01*
X141332119Y-60467164D01*
X141332119Y-60467165D01*
X141294851Y-60477151D01*
X141220314Y-60497123D01*
X141220309Y-60497126D01*
X141083390Y-60576175D01*
X141083382Y-60576181D01*
X140971578Y-60687986D01*
X127484484Y-74175081D01*
X127423161Y-74208566D01*
X127396803Y-74211400D01*
X122674240Y-74211400D01*
X122633319Y-74222364D01*
X122633319Y-74222365D01*
X122596051Y-74232351D01*
X122521514Y-74252323D01*
X122521509Y-74252326D01*
X122384590Y-74331375D01*
X122384582Y-74331381D01*
X122272778Y-74443186D01*
X120747284Y-75968681D01*
X120685961Y-76002166D01*
X120659603Y-76005000D01*
X115321170Y-76005000D01*
X115321154Y-76004999D01*
X115313558Y-76004999D01*
X115155443Y-76004999D01*
X115079079Y-76025461D01*
X115002714Y-76045923D01*
X115002709Y-76045926D01*
X114865790Y-76124975D01*
X114865782Y-76124981D01*
X113915862Y-77074900D01*
X113854539Y-77108385D01*
X113784847Y-77103401D01*
X113763085Y-77092758D01*
X113719128Y-77065645D01*
X113719119Y-77065641D01*
X113552697Y-77010494D01*
X113552690Y-77010493D01*
X113449986Y-77000000D01*
X113400000Y-77000000D01*
X113400000Y-79126000D01*
X113380315Y-79193039D01*
X113327511Y-79238794D01*
X113276000Y-79250000D01*
X113024000Y-79250000D01*
X112956961Y-79230315D01*
X112911206Y-79177511D01*
X112900000Y-79126000D01*
X112900000Y-77000000D01*
X112899999Y-76999999D01*
X112850029Y-77000000D01*
X112850011Y-77000001D01*
X112747302Y-77010494D01*
X112580880Y-77065641D01*
X112580875Y-77065643D01*
X112431654Y-77157684D01*
X112307682Y-77281656D01*
X112255831Y-77365720D01*
X112203883Y-77412444D01*
X112134920Y-77423665D01*
X112070838Y-77395822D01*
X112044754Y-77365718D01*
X111992712Y-77281344D01*
X111868657Y-77157289D01*
X111868656Y-77157288D01*
X111764036Y-77092758D01*
X111719336Y-77065187D01*
X111719331Y-77065185D01*
X111717862Y-77064698D01*
X111552797Y-77010001D01*
X111552795Y-77010000D01*
X111450010Y-76999500D01*
X110849998Y-76999500D01*
X110849980Y-76999501D01*
X110747203Y-77010000D01*
X110747200Y-77010001D01*
X110580668Y-77065185D01*
X110580663Y-77065187D01*
X110431342Y-77157289D01*
X110307289Y-77281342D01*
X110215187Y-77430663D01*
X110215186Y-77430666D01*
X110160001Y-77597203D01*
X110160001Y-77597204D01*
X110160000Y-77597204D01*
X110149500Y-77699983D01*
X110149500Y-80800001D01*
X110149501Y-80800018D01*
X110160000Y-80902796D01*
X110160001Y-80902799D01*
X110185804Y-80980666D01*
X110215186Y-81069334D01*
X110307288Y-81218656D01*
X110431344Y-81342712D01*
X110580666Y-81434814D01*
X110747203Y-81489999D01*
X110849991Y-81500500D01*
X111450008Y-81500499D01*
X111450016Y-81500498D01*
X111450019Y-81500498D01*
X111506302Y-81494748D01*
X111552797Y-81489999D01*
X111719334Y-81434814D01*
X111779814Y-81397509D01*
X111847203Y-81379068D01*
X111913867Y-81399989D01*
X111932585Y-81415361D01*
X112537079Y-82019825D01*
X112570566Y-82081146D01*
X112573400Y-82107507D01*
X112573400Y-87734430D01*
X112573399Y-87734448D01*
X112573399Y-87900154D01*
X112573398Y-87900154D01*
X112614323Y-88052885D01*
X112643258Y-88103000D01*
X112643259Y-88103004D01*
X112643260Y-88103004D01*
X112693379Y-88189814D01*
X112693381Y-88189817D01*
X112812249Y-88308685D01*
X112812255Y-88308690D01*
X114939483Y-90435918D01*
X114943821Y-90443863D01*
X114951069Y-90449289D01*
X114960303Y-90474048D01*
X114972968Y-90497241D01*
X114972322Y-90506270D01*
X114975486Y-90514753D01*
X114969869Y-90540573D01*
X114967984Y-90566933D01*
X114962165Y-90575986D01*
X114960634Y-90583026D01*
X114939483Y-90611280D01*
X114810861Y-90739902D01*
X114749538Y-90773387D01*
X114710582Y-90775579D01*
X114700028Y-90774501D01*
X114700012Y-90774500D01*
X114700009Y-90774500D01*
X114700004Y-90774500D01*
X114099998Y-90774500D01*
X114099980Y-90774501D01*
X113997203Y-90785000D01*
X113997200Y-90785001D01*
X113830668Y-90840185D01*
X113830663Y-90840187D01*
X113681342Y-90932289D01*
X113557288Y-91056343D01*
X113557283Y-91056349D01*
X113555241Y-91059661D01*
X113553247Y-91061453D01*
X113552807Y-91062011D01*
X113552711Y-91061935D01*
X113503291Y-91106383D01*
X113434328Y-91117602D01*
X113370247Y-91089755D01*
X113344168Y-91059656D01*
X113342319Y-91056659D01*
X113342316Y-91056655D01*
X113218345Y-90932684D01*
X113069124Y-90840643D01*
X113069119Y-90840641D01*
X112902697Y-90785494D01*
X112902690Y-90785493D01*
X112799986Y-90775000D01*
X112750000Y-90775000D01*
X112750000Y-91876000D01*
X112730315Y-91943039D01*
X112677511Y-91988794D01*
X112626000Y-92000000D01*
X112500000Y-92000000D01*
X112500000Y-92126000D01*
X112480315Y-92193039D01*
X112427511Y-92238794D01*
X112376000Y-92250000D01*
X111500001Y-92250000D01*
X111500001Y-92401404D01*
X111480316Y-92468443D01*
X111427512Y-92514198D01*
X111358354Y-92524142D01*
X111294798Y-92495117D01*
X111288320Y-92489085D01*
X110986818Y-92187583D01*
X110953333Y-92126260D01*
X110950499Y-92099902D01*
X110950499Y-91475013D01*
X111500000Y-91475013D01*
X111500000Y-91750000D01*
X112250000Y-91750000D01*
X112250000Y-90775000D01*
X112249999Y-90774999D01*
X112200029Y-90775000D01*
X112200011Y-90775001D01*
X112097302Y-90785494D01*
X111930880Y-90840641D01*
X111930875Y-90840643D01*
X111781654Y-90932684D01*
X111657684Y-91056654D01*
X111565643Y-91205875D01*
X111565641Y-91205880D01*
X111510494Y-91372302D01*
X111510493Y-91372309D01*
X111500000Y-91475013D01*
X110950499Y-91475013D01*
X110950499Y-91474998D01*
X110950498Y-91474981D01*
X110939999Y-91372203D01*
X110939998Y-91372200D01*
X110884814Y-91205666D01*
X110792712Y-91056344D01*
X110668656Y-90932288D01*
X110519334Y-90840186D01*
X110352797Y-90785001D01*
X110352795Y-90785000D01*
X110250010Y-90774500D01*
X109649998Y-90774500D01*
X109649980Y-90774501D01*
X109547203Y-90785000D01*
X109547200Y-90785001D01*
X109380668Y-90840185D01*
X109380663Y-90840187D01*
X109231342Y-90932289D01*
X109107288Y-91056343D01*
X109107283Y-91056349D01*
X109105241Y-91059661D01*
X109103247Y-91061453D01*
X109102807Y-91062011D01*
X109102711Y-91061935D01*
X109053291Y-91106383D01*
X108984328Y-91117602D01*
X108920247Y-91089755D01*
X108894168Y-91059656D01*
X108892319Y-91056659D01*
X108892316Y-91056655D01*
X108768345Y-90932684D01*
X108619124Y-90840643D01*
X108619119Y-90840641D01*
X108452697Y-90785494D01*
X108452690Y-90785493D01*
X108349986Y-90775000D01*
X108300000Y-90775000D01*
X108300000Y-93224999D01*
X108349972Y-93224999D01*
X108349986Y-93224998D01*
X108452697Y-93214505D01*
X108619119Y-93159358D01*
X108619124Y-93159356D01*
X108768345Y-93067315D01*
X108892318Y-92943342D01*
X108894165Y-92940348D01*
X108895969Y-92938724D01*
X108896798Y-92937677D01*
X108896976Y-92937818D01*
X108946110Y-92893621D01*
X109015073Y-92882396D01*
X109079156Y-92910236D01*
X109105243Y-92940341D01*
X109107288Y-92943656D01*
X109231344Y-93067712D01*
X109380666Y-93159814D01*
X109547203Y-93214999D01*
X109649991Y-93225500D01*
X110250008Y-93225499D01*
X110260576Y-93224419D01*
X110329268Y-93237187D01*
X110360861Y-93260096D01*
X110957939Y-93857174D01*
X110957949Y-93857185D01*
X110962279Y-93861515D01*
X110962280Y-93861516D01*
X111074084Y-93973320D01*
X111148021Y-94016007D01*
X111148022Y-94016008D01*
X111211011Y-94052375D01*
X111211012Y-94052376D01*
X111211014Y-94052376D01*
X111211015Y-94052377D01*
X111363743Y-94093301D01*
X111363746Y-94093301D01*
X111529453Y-94093301D01*
X111529469Y-94093300D01*
X117270531Y-94093300D01*
X117270547Y-94093301D01*
X117278143Y-94093301D01*
X117436254Y-94093301D01*
X117436257Y-94093301D01*
X117588985Y-94052377D01*
X117651979Y-94016007D01*
X117725916Y-93973320D01*
X117770861Y-93928374D01*
X117778632Y-93922704D01*
X117802818Y-93914016D01*
X117825369Y-93901703D01*
X117835154Y-93902402D01*
X117844389Y-93899086D01*
X117869433Y-93904854D01*
X117895060Y-93906687D01*
X117904930Y-93913029D01*
X117912476Y-93914768D01*
X117920620Y-93923113D01*
X117939409Y-93935188D01*
X118041507Y-94037286D01*
X118041511Y-94037289D01*
X118172614Y-94124890D01*
X118172627Y-94124897D01*
X118318298Y-94185235D01*
X118318303Y-94185237D01*
X118472953Y-94215999D01*
X118472956Y-94216000D01*
X118472958Y-94216000D01*
X118630644Y-94216000D01*
X118630645Y-94215999D01*
X118785297Y-94185237D01*
X118840920Y-94162197D01*
X118936608Y-94122563D01*
X118937191Y-94123972D01*
X118998234Y-94111256D01*
X119063481Y-94136248D01*
X119104859Y-94192548D01*
X119112300Y-94234857D01*
X119112300Y-95160500D01*
X119092615Y-95227539D01*
X119039811Y-95273294D01*
X118988300Y-95284500D01*
X118549998Y-95284500D01*
X118549980Y-95284501D01*
X118447203Y-95295000D01*
X118447200Y-95295001D01*
X118280668Y-95350185D01*
X118280663Y-95350187D01*
X118131342Y-95442289D01*
X118007288Y-95566343D01*
X118007283Y-95566349D01*
X118005241Y-95569661D01*
X118003247Y-95571453D01*
X118002807Y-95572011D01*
X118002711Y-95571935D01*
X117953291Y-95616383D01*
X117884328Y-95627602D01*
X117820247Y-95599755D01*
X117794168Y-95569656D01*
X117792319Y-95566659D01*
X117792316Y-95566655D01*
X117668345Y-95442684D01*
X117519124Y-95350643D01*
X117519119Y-95350641D01*
X117352697Y-95295494D01*
X117352690Y-95295493D01*
X117249986Y-95285000D01*
X117200000Y-95285000D01*
X117200000Y-97734999D01*
X117249972Y-97734999D01*
X117249986Y-97734998D01*
X117352697Y-97724505D01*
X117519119Y-97669358D01*
X117519124Y-97669356D01*
X117668345Y-97577315D01*
X117792318Y-97453342D01*
X117794165Y-97450348D01*
X117795969Y-97448724D01*
X117796798Y-97447677D01*
X117796976Y-97447818D01*
X117846110Y-97403621D01*
X117915073Y-97392396D01*
X117979156Y-97420236D01*
X118005243Y-97450341D01*
X118007288Y-97453656D01*
X118131344Y-97577712D01*
X118280666Y-97669814D01*
X118447203Y-97724999D01*
X118549991Y-97735500D01*
X119150008Y-97735499D01*
X119150016Y-97735498D01*
X119150019Y-97735498D01*
X119206302Y-97729748D01*
X119252797Y-97724999D01*
X119419334Y-97669814D01*
X119568656Y-97577712D01*
X119692712Y-97453656D01*
X119784814Y-97304334D01*
X119839999Y-97137797D01*
X119850500Y-97035009D01*
X119850499Y-96622800D01*
X119853049Y-96614115D01*
X119851761Y-96605156D01*
X119862737Y-96581120D01*
X119870183Y-96555762D01*
X119877025Y-96549833D01*
X119880785Y-96541600D01*
X119903014Y-96527313D01*
X119922987Y-96510007D01*
X119933501Y-96507719D01*
X119939563Y-96503824D01*
X119974493Y-96498801D01*
X119974497Y-96498801D01*
X120042957Y-96498801D01*
X120042960Y-96498800D01*
X120050567Y-96498800D01*
X144775500Y-96498800D01*
X144842539Y-96518485D01*
X144888294Y-96571289D01*
X144899500Y-96622800D01*
X144899500Y-96807491D01*
X144879815Y-96874530D01*
X144840598Y-96913029D01*
X144768844Y-96957287D01*
X144644789Y-97081342D01*
X144552687Y-97230663D01*
X144552685Y-97230668D01*
X144542815Y-97260455D01*
X144497501Y-97397203D01*
X144497501Y-97397204D01*
X144497500Y-97397204D01*
X144487000Y-97499983D01*
X144487000Y-98500001D01*
X144487001Y-98500019D01*
X144497500Y-98602796D01*
X144497501Y-98602799D01*
X144520604Y-98672517D01*
X144552686Y-98769334D01*
X144644788Y-98918656D01*
X144768844Y-99042712D01*
X144840596Y-99086968D01*
X144887321Y-99138915D01*
X144899500Y-99192507D01*
X144899500Y-99986103D01*
X144879815Y-100053142D01*
X144827011Y-100098897D01*
X144757853Y-100108841D01*
X144694297Y-100079816D01*
X144687819Y-100073784D01*
X144223790Y-99609755D01*
X144223788Y-99609752D01*
X144104917Y-99490881D01*
X144104916Y-99490880D01*
X144018104Y-99440760D01*
X144018104Y-99440759D01*
X144018100Y-99440758D01*
X143967985Y-99411823D01*
X143815257Y-99370899D01*
X143657143Y-99370899D01*
X143649547Y-99370899D01*
X143649531Y-99370900D01*
X118416257Y-99370900D01*
X118258143Y-99370900D01*
X118105415Y-99411823D01*
X118105414Y-99411823D01*
X118105412Y-99411824D01*
X118105409Y-99411825D01*
X118055296Y-99440759D01*
X118055295Y-99440760D01*
X118011889Y-99465820D01*
X117968485Y-99490879D01*
X117968482Y-99490881D01*
X117901458Y-99557906D01*
X117856680Y-99602684D01*
X117856678Y-99602686D01*
X117797681Y-99661683D01*
X117648014Y-99811349D01*
X117586691Y-99844833D01*
X117521330Y-99841373D01*
X117352700Y-99785495D01*
X117352690Y-99785493D01*
X117249986Y-99775000D01*
X117200000Y-99775000D01*
X117200000Y-100876000D01*
X117180315Y-100943039D01*
X117127511Y-100988794D01*
X117076000Y-101000000D01*
X116824000Y-101000000D01*
X116756961Y-100980315D01*
X116711206Y-100927511D01*
X116700000Y-100876000D01*
X116700000Y-99775000D01*
X116699999Y-99774999D01*
X116650029Y-99775000D01*
X116650011Y-99775001D01*
X116547302Y-99785494D01*
X116380880Y-99840641D01*
X116380871Y-99840646D01*
X116329896Y-99872087D01*
X116262503Y-99890527D01*
X116195840Y-99869604D01*
X116151071Y-99815961D01*
X116140800Y-99766548D01*
X116140800Y-97743451D01*
X116160485Y-97676412D01*
X116213289Y-97630657D01*
X116282447Y-97620713D01*
X116329897Y-97637912D01*
X116380875Y-97669356D01*
X116380880Y-97669358D01*
X116547302Y-97724505D01*
X116547309Y-97724506D01*
X116650019Y-97734999D01*
X116699999Y-97734998D01*
X116700000Y-97734998D01*
X116700000Y-96760000D01*
X115950001Y-96760000D01*
X115950001Y-96911403D01*
X115930316Y-96978442D01*
X115877512Y-97024197D01*
X115808354Y-97034141D01*
X115744798Y-97005116D01*
X115738320Y-96999084D01*
X115436818Y-96697582D01*
X115403333Y-96636259D01*
X115400499Y-96609901D01*
X115400499Y-95985013D01*
X115950000Y-95985013D01*
X115950000Y-96260000D01*
X116700000Y-96260000D01*
X116700000Y-95285000D01*
X116699999Y-95284999D01*
X116650029Y-95285000D01*
X116650011Y-95285001D01*
X116547302Y-95295494D01*
X116380880Y-95350641D01*
X116380875Y-95350643D01*
X116231654Y-95442684D01*
X116107684Y-95566654D01*
X116015643Y-95715875D01*
X116015641Y-95715880D01*
X115960494Y-95882302D01*
X115960493Y-95882309D01*
X115950000Y-95985013D01*
X115400499Y-95985013D01*
X115400499Y-95984998D01*
X115400498Y-95984981D01*
X115389999Y-95882203D01*
X115389998Y-95882200D01*
X115334814Y-95715666D01*
X115242712Y-95566344D01*
X115118656Y-95442288D01*
X114969334Y-95350186D01*
X114802797Y-95295001D01*
X114802795Y-95295000D01*
X114700010Y-95284500D01*
X114099998Y-95284500D01*
X114099980Y-95284501D01*
X113997203Y-95295000D01*
X113997200Y-95295001D01*
X113830668Y-95350185D01*
X113830663Y-95350187D01*
X113681342Y-95442289D01*
X113557288Y-95566343D01*
X113557283Y-95566349D01*
X113555241Y-95569661D01*
X113553247Y-95571453D01*
X113552807Y-95572011D01*
X113552711Y-95571935D01*
X113503291Y-95616383D01*
X113434328Y-95627602D01*
X113370247Y-95599755D01*
X113344168Y-95569656D01*
X113342319Y-95566659D01*
X113342316Y-95566655D01*
X113218345Y-95442684D01*
X113069124Y-95350643D01*
X113069119Y-95350641D01*
X112902697Y-95295494D01*
X112902690Y-95295493D01*
X112799986Y-95285000D01*
X112750000Y-95285000D01*
X112750000Y-96386000D01*
X112730315Y-96453039D01*
X112677511Y-96498794D01*
X112626000Y-96510000D01*
X112500000Y-96510000D01*
X112500000Y-96636000D01*
X112480315Y-96703039D01*
X112427511Y-96748794D01*
X112376000Y-96760000D01*
X111500001Y-96760000D01*
X111500001Y-97034986D01*
X111510494Y-97137697D01*
X111565641Y-97304119D01*
X111565643Y-97304124D01*
X111657684Y-97453345D01*
X111781654Y-97577315D01*
X111930875Y-97669356D01*
X111930880Y-97669358D01*
X112097302Y-97724505D01*
X112097309Y-97724506D01*
X112193198Y-97734303D01*
X112257889Y-97760699D01*
X112298041Y-97817880D01*
X112302212Y-97833469D01*
X112323361Y-97939791D01*
X112323364Y-97939801D01*
X112383702Y-98085472D01*
X112383709Y-98085485D01*
X112471702Y-98217174D01*
X112492580Y-98283851D01*
X112492600Y-98286065D01*
X112492600Y-99223200D01*
X112472915Y-99290239D01*
X112420111Y-99335994D01*
X112368600Y-99347200D01*
X110674500Y-99347200D01*
X110607461Y-99327515D01*
X110561706Y-99274711D01*
X110550500Y-99223200D01*
X110550500Y-97719797D01*
X110570185Y-97652758D01*
X110609403Y-97614258D01*
X110668656Y-97577712D01*
X110792712Y-97453656D01*
X110884814Y-97304334D01*
X110939999Y-97137797D01*
X110950500Y-97035009D01*
X110950499Y-95985013D01*
X111500000Y-95985013D01*
X111500000Y-96260000D01*
X112250000Y-96260000D01*
X112250000Y-95285000D01*
X112249999Y-95284999D01*
X112200029Y-95285000D01*
X112200011Y-95285001D01*
X112097302Y-95295494D01*
X111930880Y-95350641D01*
X111930875Y-95350643D01*
X111781654Y-95442684D01*
X111657684Y-95566654D01*
X111565643Y-95715875D01*
X111565641Y-95715880D01*
X111510494Y-95882302D01*
X111510493Y-95882309D01*
X111500000Y-95985013D01*
X110950499Y-95985013D01*
X110950499Y-95984992D01*
X110939999Y-95882203D01*
X110884814Y-95715666D01*
X110792712Y-95566344D01*
X110668656Y-95442288D01*
X110519334Y-95350186D01*
X110352797Y-95295001D01*
X110352795Y-95295000D01*
X110250010Y-95284500D01*
X109649998Y-95284500D01*
X109649980Y-95284501D01*
X109547203Y-95295000D01*
X109547200Y-95295001D01*
X109380668Y-95350185D01*
X109380663Y-95350187D01*
X109231342Y-95442289D01*
X109107288Y-95566343D01*
X109107283Y-95566349D01*
X109105241Y-95569661D01*
X109103247Y-95571453D01*
X109102807Y-95572011D01*
X109102711Y-95571935D01*
X109053291Y-95616383D01*
X108984328Y-95627602D01*
X108920247Y-95599755D01*
X108894168Y-95569656D01*
X108892319Y-95566659D01*
X108892316Y-95566655D01*
X108768345Y-95442684D01*
X108619124Y-95350643D01*
X108619119Y-95350641D01*
X108452697Y-95295494D01*
X108452690Y-95295493D01*
X108349986Y-95285000D01*
X108300000Y-95285000D01*
X108300000Y-97734999D01*
X108349972Y-97734999D01*
X108349986Y-97734998D01*
X108452697Y-97724505D01*
X108619119Y-97669358D01*
X108619124Y-97669356D01*
X108768345Y-97577315D01*
X108892318Y-97453342D01*
X108894165Y-97450348D01*
X108895969Y-97448724D01*
X108896798Y-97447677D01*
X108896976Y-97447818D01*
X108946110Y-97403621D01*
X109015073Y-97392396D01*
X109079156Y-97420236D01*
X109105243Y-97450341D01*
X109107288Y-97453656D01*
X109231344Y-97577712D01*
X109290596Y-97614258D01*
X109337321Y-97666204D01*
X109349500Y-97719797D01*
X109349500Y-99790201D01*
X109329815Y-99857240D01*
X109290598Y-99895739D01*
X109231344Y-99932287D01*
X109107288Y-100056343D01*
X109107283Y-100056349D01*
X109105241Y-100059661D01*
X109103247Y-100061453D01*
X109102807Y-100062011D01*
X109102711Y-100061935D01*
X109053291Y-100106383D01*
X108984328Y-100117602D01*
X108920247Y-100089755D01*
X108894168Y-100059656D01*
X108892319Y-100056659D01*
X108892316Y-100056655D01*
X108768345Y-99932684D01*
X108619124Y-99840643D01*
X108619119Y-99840641D01*
X108452697Y-99785494D01*
X108452690Y-99785493D01*
X108349986Y-99775000D01*
X108300000Y-99775000D01*
X108300000Y-100876000D01*
X108297449Y-100884685D01*
X108298738Y-100893647D01*
X108287759Y-100917687D01*
X108280315Y-100943039D01*
X108273474Y-100948966D01*
X108269713Y-100957203D01*
X108247478Y-100971492D01*
X108227511Y-100988794D01*
X108216996Y-100991081D01*
X108210935Y-100994977D01*
X108176000Y-101000000D01*
X107963200Y-101000000D01*
X107896161Y-100980315D01*
X107850406Y-100927511D01*
X107839200Y-100876000D01*
X107839200Y-87259656D01*
X107858885Y-87192617D01*
X107911689Y-87146862D01*
X107980847Y-87136918D01*
X108002193Y-87141947D01*
X108147203Y-87189999D01*
X108249992Y-87200500D01*
X108249997Y-87200500D01*
X109350003Y-87200500D01*
X109350008Y-87200500D01*
X109452797Y-87189999D01*
X109619334Y-87134814D01*
X109768655Y-87042711D01*
X109892711Y-86918655D01*
X109984814Y-86769334D01*
X110039999Y-86602797D01*
X110050500Y-86500008D01*
X110050500Y-83499992D01*
X110039999Y-83397203D01*
X109984814Y-83230666D01*
X109892866Y-83081597D01*
X109892713Y-83081348D01*
X109892710Y-83081344D01*
X109768655Y-82957289D01*
X109768651Y-82957286D01*
X109619337Y-82865187D01*
X109619335Y-82865186D01*
X109536065Y-82837593D01*
X109452797Y-82810001D01*
X109452795Y-82810000D01*
X109350015Y-82799500D01*
X109350008Y-82799500D01*
X108249992Y-82799500D01*
X108249984Y-82799500D01*
X108147204Y-82810000D01*
X108147203Y-82810001D01*
X108002204Y-82858049D01*
X107932375Y-82860451D01*
X107872334Y-82824719D01*
X107841141Y-82762198D01*
X107839200Y-82740343D01*
X107839200Y-70061397D01*
X107858885Y-69994358D01*
X107875519Y-69973716D01*
X111187819Y-66661416D01*
X111249142Y-66627931D01*
X111318834Y-66632915D01*
X111374767Y-66674787D01*
X111399184Y-66740251D01*
X111399500Y-66749097D01*
X111399500Y-69250015D01*
X111410000Y-69352795D01*
X111410001Y-69352796D01*
X111465186Y-69519335D01*
X111465187Y-69519337D01*
X111557286Y-69668651D01*
X111557289Y-69668655D01*
X111681344Y-69792710D01*
X111681348Y-69792713D01*
X111830662Y-69884812D01*
X111830664Y-69884813D01*
X111830666Y-69884814D01*
X111997203Y-69939999D01*
X112099992Y-69950500D01*
X112099997Y-69950500D01*
X113200003Y-69950500D01*
X113200008Y-69950500D01*
X113302797Y-69939999D01*
X113469334Y-69884814D01*
X113618655Y-69792711D01*
X113742711Y-69668655D01*
X113834814Y-69519334D01*
X113889999Y-69352797D01*
X113900500Y-69250008D01*
X113900500Y-66249992D01*
X113889999Y-66147203D01*
X113834814Y-65980666D01*
X113742711Y-65831345D01*
X113618655Y-65707289D01*
X113618651Y-65707286D01*
X113469337Y-65615187D01*
X113469335Y-65615186D01*
X113386065Y-65587593D01*
X113302797Y-65560001D01*
X113302795Y-65560000D01*
X113200015Y-65549500D01*
X113200008Y-65549500D01*
X112599098Y-65549500D01*
X112532059Y-65529815D01*
X112486304Y-65477011D01*
X112476360Y-65407853D01*
X112505385Y-65344297D01*
X112511417Y-65337819D01*
X112656614Y-65192621D01*
X113940835Y-63908399D01*
X114002156Y-63874916D01*
X114071847Y-63879900D01*
X114127781Y-63921771D01*
X114134053Y-63930986D01*
X114157288Y-63968656D01*
X114281344Y-64092712D01*
X114430666Y-64184814D01*
X114597203Y-64239999D01*
X114699991Y-64250500D01*
X115300008Y-64250499D01*
X115300016Y-64250498D01*
X115300019Y-64250498D01*
X115356302Y-64244748D01*
X115402797Y-64239999D01*
X115569334Y-64184814D01*
X115718656Y-64092712D01*
X115842712Y-63968656D01*
X115894461Y-63884756D01*
X115946409Y-63838032D01*
X116015371Y-63826809D01*
X116079454Y-63854653D01*
X116105539Y-63884757D01*
X116157286Y-63968654D01*
X116157288Y-63968656D01*
X116281344Y-64092712D01*
X116430666Y-64184814D01*
X116597203Y-64239999D01*
X116699991Y-64250500D01*
X117300008Y-64250499D01*
X117300016Y-64250498D01*
X117300019Y-64250498D01*
X117356302Y-64244748D01*
X117402797Y-64239999D01*
X117569334Y-64184814D01*
X117718656Y-64092712D01*
X117842712Y-63968656D01*
X117865947Y-63930984D01*
X117917892Y-63884262D01*
X117986854Y-63873038D01*
X118050937Y-63900880D01*
X118059166Y-63908401D01*
X119488584Y-65337819D01*
X119522069Y-65399142D01*
X119517085Y-65468834D01*
X119475213Y-65524767D01*
X119409749Y-65549184D01*
X119400903Y-65549500D01*
X118799984Y-65549500D01*
X118697204Y-65560000D01*
X118697203Y-65560001D01*
X118530664Y-65615186D01*
X118530662Y-65615187D01*
X118381348Y-65707286D01*
X118381344Y-65707289D01*
X118257289Y-65831344D01*
X118257286Y-65831348D01*
X118165187Y-65980662D01*
X118165186Y-65980664D01*
X118110001Y-66147203D01*
X118110000Y-66147204D01*
X118099500Y-66249984D01*
X118099500Y-69250015D01*
X118110000Y-69352795D01*
X118110001Y-69352796D01*
X118165186Y-69519335D01*
X118165187Y-69519337D01*
X118257286Y-69668651D01*
X118257289Y-69668655D01*
X118381344Y-69792710D01*
X118381348Y-69792713D01*
X118530662Y-69884812D01*
X118530664Y-69884813D01*
X118530666Y-69884814D01*
X118697203Y-69939999D01*
X118799992Y-69950500D01*
X118799997Y-69950500D01*
X119900003Y-69950500D01*
X119900008Y-69950500D01*
X120002797Y-69939999D01*
X120169334Y-69884814D01*
X120318655Y-69792711D01*
X120442711Y-69668655D01*
X120534814Y-69519334D01*
X120589999Y-69352797D01*
X120600500Y-69250008D01*
X120600500Y-66749097D01*
X120620185Y-66682058D01*
X120672989Y-66636303D01*
X120742147Y-66626359D01*
X120805703Y-66655384D01*
X120812181Y-66661416D01*
X123873581Y-69722816D01*
X123907066Y-69784139D01*
X123909900Y-69810497D01*
X123909900Y-71112134D01*
X123890215Y-71179173D01*
X123889002Y-71181025D01*
X123801009Y-71312714D01*
X123801002Y-71312727D01*
X123740664Y-71458398D01*
X123740661Y-71458410D01*
X123709900Y-71613053D01*
X123709900Y-71770746D01*
X123740661Y-71925389D01*
X123740664Y-71925401D01*
X123801002Y-72071072D01*
X123801009Y-72071085D01*
X123888610Y-72202188D01*
X123888613Y-72202192D01*
X124000107Y-72313686D01*
X124000111Y-72313689D01*
X124131214Y-72401290D01*
X124131227Y-72401297D01*
X124276898Y-72461635D01*
X124276903Y-72461637D01*
X124431553Y-72492399D01*
X124431556Y-72492400D01*
X124431558Y-72492400D01*
X124589244Y-72492400D01*
X124589245Y-72492399D01*
X124743897Y-72461637D01*
X124889579Y-72401294D01*
X125020689Y-72313689D01*
X125132189Y-72202189D01*
X125219794Y-72071079D01*
X125280137Y-71925397D01*
X125310900Y-71770742D01*
X125310900Y-71613058D01*
X125310900Y-71613055D01*
X125310899Y-71613053D01*
X125280138Y-71458410D01*
X125280137Y-71458403D01*
X125258717Y-71406689D01*
X125219797Y-71312727D01*
X125219790Y-71312714D01*
X125131798Y-71181025D01*
X125110920Y-71114347D01*
X125110900Y-71112134D01*
X125110900Y-69599460D01*
X125110901Y-69599447D01*
X125110901Y-69431344D01*
X125089854Y-69352796D01*
X125069977Y-69278616D01*
X125055037Y-69252739D01*
X124990924Y-69141690D01*
X124990918Y-69141682D01*
X118036818Y-62187582D01*
X118003333Y-62126259D01*
X118000499Y-62099901D01*
X118000499Y-60449998D01*
X118000498Y-60449981D01*
X117989999Y-60347203D01*
X117989998Y-60347200D01*
X117983196Y-60326674D01*
X117934814Y-60180666D01*
X117842712Y-60031344D01*
X117718656Y-59907288D01*
X117569334Y-59815186D01*
X117402797Y-59760001D01*
X117402795Y-59760000D01*
X117300010Y-59749500D01*
X116699998Y-59749500D01*
X116699980Y-59749501D01*
X116597203Y-59760000D01*
X116597200Y-59760001D01*
X116430668Y-59815185D01*
X116430663Y-59815187D01*
X116281342Y-59907289D01*
X116157289Y-60031342D01*
X116105539Y-60115243D01*
X116053591Y-60161967D01*
X115984628Y-60173190D01*
X115920546Y-60145346D01*
X115894461Y-60115243D01*
X115870843Y-60076952D01*
X115842712Y-60031344D01*
X115718656Y-59907288D01*
X115569334Y-59815186D01*
X115402797Y-59760001D01*
X115402795Y-59760000D01*
X115300010Y-59749500D01*
X114699998Y-59749500D01*
X114699980Y-59749501D01*
X114597203Y-59760000D01*
X114597200Y-59760001D01*
X114430668Y-59815185D01*
X114430663Y-59815187D01*
X114281342Y-59907289D01*
X114157289Y-60031342D01*
X114065187Y-60180663D01*
X114065185Y-60180668D01*
X114051202Y-60222867D01*
X114010001Y-60347203D01*
X114010001Y-60347204D01*
X114010000Y-60347204D01*
X113999500Y-60449983D01*
X113999500Y-62099901D01*
X113979815Y-62166940D01*
X113963181Y-62187582D01*
X106872956Y-69277807D01*
X106872949Y-69277814D01*
X106869986Y-69280778D01*
X106869984Y-69280780D01*
X106758180Y-69392584D01*
X106735803Y-69431343D01*
X106679123Y-69529515D01*
X106638199Y-69682243D01*
X106638199Y-69840357D01*
X106638199Y-69840359D01*
X106638200Y-69850353D01*
X106638200Y-101650730D01*
X106638199Y-101650748D01*
X106638199Y-101816454D01*
X106638198Y-101816454D01*
X101500000Y-101816454D01*
X101500000Y-58818209D01*
X129299500Y-58818209D01*
X129299500Y-59181790D01*
X129335137Y-59543630D01*
X129406064Y-59900212D01*
X129406067Y-59900223D01*
X129511614Y-60248165D01*
X129589631Y-60436515D01*
X129647482Y-60576180D01*
X129650754Y-60584078D01*
X129650756Y-60584083D01*
X129822140Y-60904720D01*
X129822151Y-60904738D01*
X130024140Y-61207035D01*
X130024150Y-61207049D01*
X130254807Y-61488106D01*
X130511893Y-61745192D01*
X130511898Y-61745196D01*
X130511899Y-61745197D01*
X130792956Y-61975854D01*
X131095268Y-62177853D01*
X131095277Y-62177858D01*
X131095279Y-62177859D01*
X131415916Y-62349243D01*
X131415918Y-62349243D01*
X131415924Y-62349247D01*
X131751836Y-62488386D01*
X132099767Y-62593930D01*
X132099773Y-62593931D01*
X132099776Y-62593932D01*
X132099787Y-62593935D01*
X132456369Y-62664862D01*
X132818206Y-62700500D01*
X132818209Y-62700500D01*
X133181791Y-62700500D01*
X133181794Y-62700500D01*
X133543631Y-62664862D01*
X133613045Y-62651054D01*
X133900212Y-62593935D01*
X133900223Y-62593932D01*
X133900223Y-62593931D01*
X133900233Y-62593930D01*
X134248164Y-62488386D01*
X134584076Y-62349247D01*
X134904732Y-62177853D01*
X135207044Y-61975854D01*
X135488101Y-61745197D01*
X135745197Y-61488101D01*
X135975854Y-61207044D01*
X136177853Y-60904732D01*
X136349247Y-60584076D01*
X136488386Y-60248164D01*
X136593930Y-59900233D01*
X136593932Y-59900223D01*
X136593935Y-59900212D01*
X136664862Y-59543630D01*
X136700500Y-59181790D01*
X136700500Y-58818209D01*
X136695410Y-58766534D01*
X136664862Y-58456369D01*
X136654477Y-58404161D01*
X136593935Y-58099787D01*
X136593932Y-58099776D01*
X136593931Y-58099773D01*
X136593930Y-58099767D01*
X136488386Y-57751836D01*
X136381108Y-57492844D01*
X156800000Y-57492844D01*
X156806401Y-57552372D01*
X156806403Y-57552379D01*
X156856645Y-57687086D01*
X156856649Y-57687093D01*
X156942809Y-57802187D01*
X156942812Y-57802190D01*
X157057906Y-57888350D01*
X157057913Y-57888354D01*
X157192620Y-57938596D01*
X157192627Y-57938598D01*
X157252155Y-57944999D01*
X157252172Y-57945000D01*
X157550000Y-57945000D01*
X158050000Y-57945000D01*
X158347828Y-57945000D01*
X158347844Y-57944999D01*
X158407372Y-57938598D01*
X158407379Y-57938596D01*
X158542086Y-57888354D01*
X158542093Y-57888350D01*
X158657187Y-57802190D01*
X158657190Y-57802187D01*
X158743350Y-57687093D01*
X158743354Y-57687086D01*
X158793596Y-57552379D01*
X158793598Y-57552372D01*
X158799999Y-57492844D01*
X158800000Y-57492827D01*
X158800000Y-56440000D01*
X158050000Y-56440000D01*
X158050000Y-57945000D01*
X157550000Y-57945000D01*
X157550000Y-56440000D01*
X156800000Y-56440000D01*
X156800000Y-57492844D01*
X136381108Y-57492844D01*
X136349247Y-57415924D01*
X136328970Y-57377989D01*
X136177859Y-57095279D01*
X136177858Y-57095277D01*
X136177853Y-57095268D01*
X135975854Y-56792956D01*
X135745197Y-56511899D01*
X135745196Y-56511898D01*
X135745192Y-56511893D01*
X135488106Y-56254807D01*
X135207049Y-56024150D01*
X135207048Y-56024149D01*
X135207044Y-56024146D01*
X134904732Y-55822147D01*
X134904727Y-55822144D01*
X134904720Y-55822140D01*
X134584083Y-55650756D01*
X134584078Y-55650754D01*
X134248165Y-55511614D01*
X133900223Y-55406067D01*
X133900212Y-55406064D01*
X133543630Y-55335137D01*
X133271111Y-55308296D01*
X133181794Y-55299500D01*
X132818206Y-55299500D01*
X132735679Y-55307628D01*
X132456369Y-55335137D01*
X132099787Y-55406064D01*
X132099776Y-55406067D01*
X131751834Y-55511614D01*
X131415921Y-55650754D01*
X131415916Y-55650756D01*
X131095279Y-55822140D01*
X131095261Y-55822151D01*
X130792964Y-56024140D01*
X130792950Y-56024150D01*
X130511893Y-56254807D01*
X130254807Y-56511893D01*
X130024150Y-56792950D01*
X130024140Y-56792964D01*
X129822151Y-57095261D01*
X129822140Y-57095279D01*
X129650756Y-57415916D01*
X129650754Y-57415921D01*
X129511614Y-57751834D01*
X129406067Y-58099776D01*
X129406064Y-58099787D01*
X129335137Y-58456369D01*
X129299500Y-58818209D01*
X101500000Y-58818209D01*
X101500000Y-54887155D01*
X156800000Y-54887155D01*
X156800000Y-55940000D01*
X157550000Y-55940000D01*
X158050000Y-55940000D01*
X158800000Y-55940000D01*
X158800000Y-54887172D01*
X158799999Y-54887155D01*
X158793598Y-54827627D01*
X158793596Y-54827620D01*
X158743354Y-54692913D01*
X158743350Y-54692906D01*
X158657190Y-54577812D01*
X158657187Y-54577809D01*
X158542093Y-54491649D01*
X158542086Y-54491645D01*
X158407379Y-54441403D01*
X158407372Y-54441401D01*
X158347844Y-54435000D01*
X158050000Y-54435000D01*
X158050000Y-55940000D01*
X157550000Y-55940000D01*
X157550000Y-54435000D01*
X157252155Y-54435000D01*
X157192627Y-54441401D01*
X157192620Y-54441403D01*
X157057913Y-54491645D01*
X157057906Y-54491649D01*
X156942812Y-54577809D01*
X156942809Y-54577812D01*
X156856649Y-54692906D01*
X156856645Y-54692913D01*
X156806403Y-54827620D01*
X156806401Y-54827627D01*
X156800000Y-54887155D01*
X101500000Y-54887155D01*
X101500000Y-51124000D01*
X101519685Y-51056961D01*
X101572489Y-51011206D01*
X101624000Y-51000000D01*
X218376000Y-51000000D01*
X218443039Y-51019685D01*
G37*
%TD.AperFunction*%
%TD*%
M02*
