%TF.GenerationSoftware,KiCad,Pcbnew,10.0.1*%
%TF.CreationDate,2026-05-05T02:11:59+03:00*%
%TF.ProjectId,maze_solver_4wd,6d617a65-5f73-46f6-9c76-65725f347764,rev?*%
%TF.SameCoordinates,Original*%
%TF.FileFunction,Paste,Top*%
%TF.FilePolarity,Positive*%
%FSLAX46Y46*%
G04 Gerber Fmt 4.6, Leading zero omitted, Abs format (unit mm)*
G04 Created by KiCad (PCBNEW 10.0.1) date 2026-05-05 02:11:59*
%MOMM*%
%LPD*%
G01*
G04 APERTURE LIST*
G04 Aperture macros list*
%AMRoundRect*
0 Rectangle with rounded corners*
0 $1 Rounding radius*
0 $2 $3 $4 $5 $6 $7 $8 $9 X,Y pos of 4 corners*
0 Add a 4 corners polygon primitive as box body*
4,1,4,$2,$3,$4,$5,$6,$7,$8,$9,$2,$3,0*
0 Add four circle primitives for the rounded corners*
1,1,$1+$1,$2,$3*
1,1,$1+$1,$4,$5*
1,1,$1+$1,$6,$7*
1,1,$1+$1,$8,$9*
0 Add four rect primitives between the rounded corners*
20,1,$1+$1,$2,$3,$4,$5,0*
20,1,$1+$1,$4,$5,$6,$7,0*
20,1,$1+$1,$6,$7,$8,$9,0*
20,1,$1+$1,$8,$9,$2,$3,0*%
G04 Aperture macros list end*
%ADD10RoundRect,0.100000X-0.850000X-0.100000X0.850000X-0.100000X0.850000X0.100000X-0.850000X0.100000X0*%
%ADD11RoundRect,0.375000X-0.625000X-0.375000X0.625000X-0.375000X0.625000X0.375000X-0.625000X0.375000X0*%
%ADD12RoundRect,0.500000X-0.500000X-1.400000X0.500000X-1.400000X0.500000X1.400000X-0.500000X1.400000X0*%
%ADD13R,1.500000X0.900000*%
%ADD14R,0.900000X1.500000*%
%ADD15R,1.050000X1.050000*%
%ADD16R,1.700000X1.000000*%
%ADD17R,1.000000X0.800000*%
%ADD18R,0.700000X1.500000*%
%ADD19RoundRect,0.250000X-0.262500X-0.450000X0.262500X-0.450000X0.262500X0.450000X-0.262500X0.450000X0*%
%ADD20RoundRect,0.250000X-0.250000X-1.500000X0.250000X-1.500000X0.250000X1.500000X-0.250000X1.500000X0*%
%ADD21RoundRect,0.250001X-0.499999X-1.449999X0.499999X-1.449999X0.499999X1.449999X-0.499999X1.449999X0*%
%ADD22R,2.510000X1.000000*%
%ADD23R,1.000000X2.510000*%
%ADD24RoundRect,0.250000X-0.250000X-0.475000X0.250000X-0.475000X0.250000X0.475000X-0.250000X0.475000X0*%
G04 APERTURE END LIST*
D10*
%TO.C,U4*%
X179000000Y-115850000D03*
X179000000Y-116500000D03*
X179000000Y-117150000D03*
X179000000Y-117800000D03*
X179000000Y-118450000D03*
X179000000Y-119100000D03*
X179000000Y-119750000D03*
X179000000Y-120400000D03*
X179000000Y-121050000D03*
X179000000Y-121700000D03*
X179000000Y-122350000D03*
X179000000Y-123000000D03*
X186000000Y-123000000D03*
X186000000Y-122350000D03*
X186000000Y-121700000D03*
X186000000Y-121050000D03*
X186000000Y-120400000D03*
X186000000Y-119750000D03*
X186000000Y-119100000D03*
X186000000Y-118450000D03*
X186000000Y-117800000D03*
X186000000Y-117150000D03*
X186000000Y-116500000D03*
X186000000Y-115850000D03*
%TD*%
%TO.C,U3*%
X142500000Y-115650000D03*
X142500000Y-116300000D03*
X142500000Y-116950000D03*
X142500000Y-117600000D03*
X142500000Y-118250000D03*
X142500000Y-118900000D03*
X142500000Y-119550000D03*
X142500000Y-120200000D03*
X142500000Y-120850000D03*
X142500000Y-121500000D03*
X142500000Y-122150000D03*
X142500000Y-122800000D03*
X149500000Y-122800000D03*
X149500000Y-122150000D03*
X149500000Y-121500000D03*
X149500000Y-120850000D03*
X149500000Y-120200000D03*
X149500000Y-119550000D03*
X149500000Y-118900000D03*
X149500000Y-118250000D03*
X149500000Y-117600000D03*
X149500000Y-116950000D03*
X149500000Y-116300000D03*
X149500000Y-115650000D03*
%TD*%
D11*
%TO.C,U2*%
X161500000Y-128900000D03*
X161500000Y-131200000D03*
D12*
X167800000Y-131200000D03*
D11*
X161500000Y-133500000D03*
%TD*%
D13*
%TO.C,U1*%
X153380000Y-89070000D03*
X153380000Y-90340000D03*
X153380000Y-91610000D03*
X153380000Y-92880000D03*
X153380000Y-94150000D03*
X153380000Y-95420000D03*
X153380000Y-96690000D03*
X153380000Y-97960000D03*
X153380000Y-99230000D03*
X153380000Y-100500000D03*
X153380000Y-101770000D03*
X153380000Y-103040000D03*
X153380000Y-104310000D03*
X153380000Y-105580000D03*
D14*
X156420000Y-106830000D03*
X157690000Y-106830000D03*
X158960000Y-106830000D03*
X160230000Y-106830000D03*
X161500000Y-106830000D03*
X162770000Y-106830000D03*
X164040000Y-106830000D03*
X165310000Y-106830000D03*
X166580000Y-106830000D03*
X167850000Y-106830000D03*
D13*
X170880000Y-105580000D03*
X170880000Y-104310000D03*
X170880000Y-103040000D03*
X170880000Y-101770000D03*
X170880000Y-100500000D03*
X170880000Y-99230000D03*
X170880000Y-97960000D03*
X170880000Y-96690000D03*
X170880000Y-95420000D03*
X170880000Y-94150000D03*
X170880000Y-92880000D03*
X170880000Y-91610000D03*
X170880000Y-90340000D03*
X170880000Y-89070000D03*
D15*
X159925000Y-94885000D03*
X159925000Y-96410000D03*
X159925000Y-97935000D03*
X161450000Y-94885000D03*
X161450000Y-96410000D03*
X161450000Y-97935000D03*
X162975000Y-94885000D03*
X162975000Y-96410000D03*
X162975000Y-97935000D03*
%TD*%
D16*
%TO.C,SW3*%
X121000000Y-127200000D03*
X127300000Y-127200000D03*
X121000000Y-131000000D03*
X127300000Y-131000000D03*
%TD*%
%TO.C,SW2*%
X121000000Y-117700000D03*
X127300000Y-117700000D03*
X121000000Y-121500000D03*
X127300000Y-121500000D03*
%TD*%
D17*
%TO.C,SW1*%
X108850000Y-123390000D03*
X108850000Y-125600000D03*
X116150000Y-123390000D03*
X116150000Y-125600000D03*
D18*
X110250000Y-122740000D03*
X113250000Y-122740000D03*
X114750000Y-122740000D03*
%TD*%
D19*
%TO.C,R2*%
X145500000Y-102950000D03*
X147325000Y-102950000D03*
%TD*%
%TO.C,R1*%
X145500000Y-98000000D03*
X147325000Y-98000000D03*
%TD*%
D20*
%TO.C,J9*%
X209150000Y-136250000D03*
X211150000Y-136250000D03*
D21*
X206800000Y-142000000D03*
X213500000Y-142000000D03*
%TD*%
D20*
%TO.C,J8*%
X111350000Y-136750000D03*
X113350000Y-136750000D03*
D21*
X109000000Y-142500000D03*
X115700000Y-142500000D03*
%TD*%
D22*
%TO.C,J7*%
X207190000Y-100300000D03*
X210500000Y-102840000D03*
X207190000Y-105380000D03*
X210500000Y-107920000D03*
X207190000Y-110460000D03*
X210500000Y-113000000D03*
%TD*%
D20*
%TO.C,J6*%
X204000000Y-62500000D03*
X206000000Y-62500000D03*
D21*
X201650000Y-68250000D03*
X208350000Y-68250000D03*
%TD*%
D20*
%TO.C,J5*%
X115000000Y-62000000D03*
X117000000Y-62000000D03*
D21*
X112650000Y-67750000D03*
X119350000Y-67750000D03*
%TD*%
D20*
%TO.C,J4*%
X201500000Y-77000000D03*
X203500000Y-77000000D03*
X205500000Y-77000000D03*
X207500000Y-77000000D03*
D21*
X199150000Y-82750000D03*
X209850000Y-82750000D03*
%TD*%
D20*
%TO.C,J3*%
X111150000Y-79250000D03*
X113150000Y-79250000D03*
X115150000Y-79250000D03*
X117150000Y-79250000D03*
D21*
X108800000Y-85000000D03*
X119500000Y-85000000D03*
%TD*%
D23*
%TO.C,J2*%
X155260000Y-59500000D03*
X157800000Y-56190000D03*
X160340000Y-59500000D03*
X162880000Y-56190000D03*
X165420000Y-59500000D03*
X167960000Y-56190000D03*
X170500000Y-59500000D03*
%TD*%
D20*
%TO.C,J1*%
X111500000Y-107750000D03*
X113500000Y-107750000D03*
D21*
X109150000Y-113500000D03*
X115850000Y-113500000D03*
%TD*%
D24*
%TO.C,C14*%
X116950000Y-101000000D03*
X118850000Y-101000000D03*
%TD*%
%TO.C,C13*%
X116950000Y-96510000D03*
X118850000Y-96510000D03*
%TD*%
%TO.C,C12*%
X116950000Y-92000000D03*
X118850000Y-92000000D03*
%TD*%
%TO.C,C11*%
X112500000Y-101000000D03*
X114400000Y-101000000D03*
%TD*%
%TO.C,C10*%
X112500000Y-96510000D03*
X114400000Y-96510000D03*
%TD*%
%TO.C,C9*%
X112500000Y-92000000D03*
X114400000Y-92000000D03*
%TD*%
%TO.C,C8*%
X108050000Y-101000000D03*
X109950000Y-101000000D03*
%TD*%
%TO.C,C7*%
X108050000Y-96510000D03*
X109950000Y-96510000D03*
%TD*%
%TO.C,C1*%
X108050000Y-92000000D03*
X109950000Y-92000000D03*
%TD*%
M02*
